<svg width="500" height="500" viewBox="0 0 500 500" fill="none" xmlns="http://www.w3.org/2000/svg">
<path d="M449.901 398.494H416.779V398.744H449.901V398.494Z" fill="#EBEBEB"/>
<path d="M331.22 401.208H322.527V401.458H331.22V401.208Z" fill="#EBEBEB"/>
<path d="M415.778 389.208H396.586V389.458H415.778V389.208Z" fill="#EBEBEB"/>
<path d="M95.652 390.888H52.459V391.138H95.652V390.888Z" fill="#EBEBEB"/>
<path d="M110.89 390.888H104.557V391.138H110.89V390.888Z" fill="#EBEBEB"/>
<path d="M225.147 395.111H131.471V395.361H225.147V395.111Z" fill="#EBEBEB"/>
<path d="M237.014 337.8H43.915C40.768 337.8 38.207 335.239 38.207 332.092V60.6601C38.207 57.5131 40.768 54.9521 43.915 54.9521H237.014C240.16 54.9521 242.721 57.5131 242.721 60.6601V332.092C242.721 335.239 240.16 337.8 237.014 337.8ZM43.915 55.2031C40.905 55.2031 38.457 57.6511 38.457 60.6611V332.093C38.457 335.103 40.905 337.551 43.915 337.551H237.014C240.023 337.551 242.471 335.103 242.471 332.093V60.6601C242.471 57.6511 240.023 55.2021 237.014 55.2021L43.915 55.2031Z" fill="#EBEBEB"/>
<path d="M453.311 337.8H260.213C257.066 337.8 254.506 335.239 254.506 332.092V60.6601C254.506 57.5131 257.067 54.9521 260.213 54.9521H453.311C456.459 54.9521 459.019 57.5131 459.019 60.6601V332.092C459.02 335.239 456.459 337.8 453.311 337.8ZM260.213 55.2031C257.204 55.2031 254.756 57.6511 254.756 60.6611V332.093C254.756 335.103 257.204 337.551 260.213 337.551H453.311C456.321 337.551 458.769 335.103 458.769 332.093V60.6601C458.769 57.6511 456.321 55.2021 453.311 55.2021L260.213 55.2031Z" fill="#EBEBEB"/>
<path d="M500 382.398H0V382.648H500V382.398Z" fill="#EBEBEB"/>
<path d="M150.802 214.923L91.5042 229.007C90.4802 229.25 89.4532 228.617 89.2102 227.594L70.3762 148.298C70.1332 147.274 70.7662 146.247 71.7892 146.004L108.316 137.328L138.838 156.307L152.215 212.628C152.459 213.653 151.826 214.68 150.802 214.923Z" fill="#F0F0F0"/>
<path d="M138.839 156.308L108.317 137.329L106.379 137.789L113.568 168.058L140.131 161.749L138.839 156.308Z" fill="#E6E6E6"/>
<path d="M138.79 156.105L114.165 161.953L108.316 137.329L138.79 156.105Z" fill="#FAFAFA"/>
<path d="M130.814 165.54L86.959 175.957L93.5615 203.753L137.417 193.335L130.814 165.54Z" fill="#E6E6E6"/>
<path d="M103.593 191.291L96.3125 203.107L115.408 198.571L103.593 191.291Z" fill="#FAFAFA"/>
<path d="M111.113 199.591L137.418 193.343L136.817 190.809L122.108 181.746L111.113 199.591Z" fill="#FAFAFA"/>
<path d="M111.544 180.565C112.159 183.153 110.559 185.749 107.971 186.363C105.383 186.978 102.787 185.378 102.172 182.79C101.558 180.202 103.157 177.606 105.745 176.992C108.333 176.377 110.929 177.977 111.544 180.565Z" fill="#FAFAFA"/>
<path d="M406.106 148.661L362.85 128.51C362.103 128.162 361.78 127.275 362.128 126.528L389.075 68.6833C389.423 67.9363 390.31 67.6133 391.057 67.9613L417.703 80.3743L427.229 106.854L408.089 147.939C407.741 148.686 406.853 149.009 406.106 148.661Z" fill="#EBEBEB"/>
<path d="M427.228 106.854L417.703 80.3738L416.289 79.7148L406.002 101.796L425.379 110.823L427.228 106.854Z" fill="#E0E0E0"/>
<path d="M427.299 106.705L409.336 98.337L417.704 80.374L427.299 106.705Z" fill="#F5F5F5"/>
<path d="M408.07 132.257C397.406 127.289 386.742 122.321 376.078 117.353C373.925 116.35 372.036 119.551 374.203 120.56C384.867 125.528 395.531 130.496 406.195 135.464C408.348 136.467 410.237 133.267 408.07 132.257Z" fill="#FAFAFA"/>
<path d="M383.649 100.283C394.313 105.251 404.977 110.219 415.641 115.187C417.794 116.19 419.683 112.989 417.516 111.98C406.852 107.012 396.188 102.044 385.524 97.0759C383.37 96.0729 381.481 99.2739 383.649 100.283Z" fill="#FAFAFA"/>
<path d="M378.695 110.693C389.359 115.661 400.023 120.629 410.688 125.597C412.841 126.6 414.73 123.399 412.563 122.39C401.899 117.422 391.235 112.454 380.57 107.486C378.417 106.483 376.528 109.684 378.695 110.693Z" fill="#FAFAFA"/>
<path d="M302.99 329.362L302.004 326.094C301.676 325.007 300.782 324.184 299.672 323.947L275.551 318.803C273.869 318.444 272.214 319.517 271.855 321.2L262.023 367.306C261.65 369.055 262.765 370.774 264.514 371.147L319.328 382.836C321.076 383.209 322.796 382.094 323.169 380.345L331.75 340.106C332.109 338.424 331.036 336.769 329.353 336.41L305.009 331.219C304.048 331.015 303.274 330.303 302.99 329.362Z" fill="#E0E0E0"/>
<path d="M329.353 336.411L305.232 331.267C304.121 331.03 302.97 331.416 302.227 332.275L299.993 334.857C299.35 335.6 298.354 335.934 297.393 335.729L273.049 330.538C271.366 330.179 269.712 331.252 269.353 332.935L262.023 367.307C261.65 369.055 262.765 370.775 264.514 371.148L319.328 382.837C321.077 383.21 322.796 382.095 323.169 380.346L331.75 340.107C332.108 338.424 331.035 336.77 329.353 336.411Z" fill="#F0F0F0"/>
<path d="M245.178 423.714C352.26 423.714 439.067 418.645 439.067 412.391C439.067 406.138 352.26 401.068 245.178 401.068C138.096 401.068 51.2891 406.138 51.2891 412.391C51.2891 418.645 138.096 423.714 245.178 423.714Z" fill="#F5F5F5"/>
<path d="M364.502 315.027H130.669C124.1 315.027 118.775 309.702 118.775 303.133V125.354C118.775 118.785 124.1 113.46 130.669 113.46H364.501C371.07 113.46 376.395 118.785 376.395 125.354V303.133C376.396 309.702 371.071 315.027 364.502 315.027Z" fill="#407BFF"/>
<path opacity="0.4" d="M364.502 315.027H130.669C124.1 315.027 118.775 309.702 118.775 303.133V125.354C118.775 118.785 124.1 113.46 130.669 113.46H364.501C371.07 113.46 376.395 118.785 376.395 125.354V303.133C376.396 309.702 371.071 315.027 364.502 315.027Z" fill="white"/>
<path opacity="0.8" d="M130.669 127.104C126.316 127.104 122.775 130.646 122.775 134.999V303.132C122.775 307.485 126.316 311.027 130.669 311.027H364.501C368.854 311.027 372.395 307.486 372.395 303.132V134.999C372.395 130.646 368.854 127.104 364.501 127.104H130.669Z" fill="white"/>
<path opacity="0.3" d="M137.155 123.251H134.343C133.301 123.251 132.457 122.406 132.457 121.365V118.553C132.457 117.511 133.302 116.667 134.343 116.667H137.155C138.197 116.667 139.041 117.512 139.041 118.553V121.365C139.041 122.407 138.197 123.251 137.155 123.251Z" fill="white"/>
<path opacity="0.5" d="M147.833 123.251H145.021C143.979 123.251 143.135 122.406 143.135 121.365V118.553C143.135 117.511 143.98 116.667 145.021 116.667H147.833C148.875 116.667 149.719 117.512 149.719 118.553V121.365C149.719 122.407 148.874 123.251 147.833 123.251Z" fill="white"/>
<path opacity="0.7" d="M158.51 123.251H155.699C154.657 123.251 153.812 122.406 153.812 121.365V118.553C153.812 117.511 154.658 116.667 155.699 116.667H158.51C159.552 116.667 160.398 117.512 160.398 118.553V121.365C160.398 122.407 159.552 123.251 158.51 123.251Z" fill="white"/>
<path d="M235.539 123.138L235.53 118.962L233.46 122.418H232.938L230.868 119.016V123.138H229.752V116.838H230.715L233.217 121.014L235.674 116.838H236.637L236.646 123.138H235.539Z" fill="white"/>
<path d="M242.739 118.331L240.489 123.524C240.279 124.046 240.024 124.413 239.724 124.626C239.424 124.839 239.061 124.946 238.635 124.946C238.395 124.946 238.158 124.907 237.924 124.829C237.69 124.751 237.498 124.643 237.348 124.505L237.798 123.677C237.906 123.779 238.033 123.86 238.181 123.92C238.328 123.98 238.476 124.01 238.626 124.01C238.824 124.01 238.987 123.959 239.117 123.857C239.246 123.754 239.364 123.584 239.472 123.344L239.553 123.155L237.456 118.331H238.626L240.138 121.886L241.659 118.331H242.739Z" fill="white"/>
<path d="M247.203 117.819V119.736H250.245V120.726H247.203V123.138H246.033V116.838H250.632V117.819H247.203Z" fill="white"/>
<path d="M251.621 117.346C251.483 117.217 251.414 117.056 251.414 116.865C251.414 116.673 251.483 116.512 251.621 116.383C251.759 116.254 251.93 116.189 252.134 116.189C252.338 116.189 252.509 116.251 252.647 116.373C252.785 116.496 252.854 116.651 252.854 116.837C252.854 117.035 252.787 117.201 252.651 117.336C252.516 117.471 252.344 117.538 252.134 117.538C251.93 117.539 251.759 117.475 251.621 117.346ZM251.566 118.331H252.691V123.137H251.566V118.331Z" fill="white"/>
<path d="M254.168 116.459H255.293V123.137H254.168V116.459Z" fill="white"/>
<path d="M261.269 121.094H257.498C257.564 121.448 257.737 121.728 258.016 121.935C258.295 122.142 258.641 122.246 259.056 122.246C259.584 122.246 260.019 122.072 260.361 121.724L260.964 122.417C260.748 122.675 260.475 122.87 260.145 123.002C259.815 123.134 259.443 123.2 259.029 123.2C258.501 123.2 258.036 123.095 257.634 122.885C257.232 122.675 256.922 122.382 256.702 122.007C256.483 121.632 256.373 121.208 256.373 120.734C256.373 120.266 256.479 119.844 256.693 119.469C256.906 119.094 257.201 118.801 257.579 118.592C257.957 118.382 258.383 118.277 258.857 118.277C259.325 118.277 259.743 118.381 260.112 118.588C260.481 118.795 260.769 119.086 260.976 119.461C261.183 119.836 261.286 120.27 261.286 120.761C261.287 120.839 261.281 120.95 261.269 121.094ZM257.943 119.497C257.694 119.71 257.543 119.994 257.488 120.348H260.215C260.167 120 260.02 119.718 259.774 119.502C259.528 119.286 259.222 119.178 258.856 119.178C258.497 119.177 258.192 119.284 257.943 119.497Z" fill="white"/>
<path d="M262.709 123.047C262.337 122.945 262.04 122.816 261.818 122.66L262.25 121.805C262.466 121.949 262.726 122.065 263.028 122.152C263.331 122.239 263.63 122.282 263.924 122.282C264.596 122.282 264.932 122.105 264.932 121.751C264.932 121.584 264.846 121.466 264.675 121.4C264.504 121.334 264.23 121.271 263.852 121.211C263.456 121.151 263.133 121.082 262.884 121.004C262.635 120.926 262.419 120.789 262.236 120.594C262.053 120.399 261.962 120.128 261.962 119.78C261.962 119.324 262.153 118.96 262.533 118.686C262.914 118.413 263.428 118.277 264.077 118.277C264.407 118.277 264.737 118.315 265.067 118.389C265.397 118.464 265.667 118.565 265.877 118.691L265.445 119.546C265.037 119.306 264.578 119.186 264.068 119.186C263.738 119.186 263.487 119.236 263.317 119.335C263.146 119.434 263.061 119.564 263.061 119.727C263.061 119.907 263.152 120.035 263.335 120.11C263.518 120.185 263.801 120.256 264.186 120.321C264.57 120.381 264.885 120.45 265.131 120.528C265.377 120.606 265.589 120.738 265.766 120.924C265.943 121.11 266.031 121.374 266.031 121.716C266.031 122.166 265.836 122.526 265.446 122.796C265.056 123.066 264.525 123.201 263.853 123.201C263.462 123.2 263.081 123.149 262.709 123.047Z" fill="white"/>
<path d="M169.822 168.256L168.711 166.239C168.342 165.568 167.636 165.151 166.87 165.151H150.232C149.072 165.151 148.131 166.092 148.131 167.252V199.054C148.131 200.26 149.109 201.238 150.315 201.238H188.124C189.33 201.238 190.308 200.26 190.308 199.054V171.299C190.308 170.138 189.367 169.198 188.207 169.198H171.415C170.752 169.198 170.142 168.837 169.822 168.256Z" fill="#407BFF"/>
<path opacity="0.3" d="M169.822 168.256L168.711 166.239C168.342 165.568 167.636 165.151 166.87 165.151H150.232C149.072 165.151 148.131 166.092 148.131 167.252V199.054C148.131 200.26 149.109 201.238 150.315 201.238H188.124C189.33 201.238 190.308 200.26 190.308 199.054V171.299C190.308 170.138 189.367 169.198 188.207 169.198H171.415C170.752 169.198 170.142 168.837 169.822 168.256Z" fill="white"/>
<path d="M185.051 170.47H152.803V194.584H185.051V170.47Z" fill="#263238"/>
<path opacity="0.8" d="M185.051 170.47H152.803V194.584H185.051V170.47Z" fill="white"/>
<path d="M187.382 172.891H150.473V200.49H187.382V172.891Z" fill="#263238"/>
<path opacity="0.9" d="M187.382 172.891H150.473V200.49H187.382V172.891Z" fill="white"/>
<path d="M194.014 173.584C185.166 173.584 180.74 173.584 171.892 173.584C170.873 173.584 169.929 173.944 169.439 174.523C168.849 175.219 168.559 175.568 167.988 176.264C167.577 176.765 166.797 177.077 165.944 177.077C157.301 177.077 152.979 177.077 144.335 177.077C142.841 177.077 141.84 177.889 142.099 178.891C144.211 187.076 145.266 191.169 147.378 199.354C147.647 200.395 148.833 201.239 150.029 201.239C162.523 201.239 175.016 201.239 187.51 201.239C188.706 201.239 189.892 200.395 190.161 199.354C192.221 191.369 194.281 183.383 196.341 175.398C196.599 174.396 195.557 173.584 194.014 173.584Z" fill="#407BFF"/>
<g opacity="0.6">
<path d="M194.014 173.584C185.166 173.584 180.74 173.584 171.892 173.584C170.873 173.584 169.929 173.944 169.439 174.523C168.849 175.219 168.559 175.568 167.988 176.264C167.577 176.765 166.797 177.077 165.944 177.077C157.301 177.077 152.979 177.077 144.335 177.077C142.841 177.077 141.84 177.889 142.099 178.891C144.211 187.076 145.266 191.169 147.378 199.354C147.647 200.395 148.833 201.239 150.029 201.239C162.523 201.239 175.016 201.239 187.51 201.239C188.706 201.239 189.892 200.395 190.161 199.354C192.221 191.369 194.281 183.383 196.341 175.398C196.599 174.396 195.557 173.584 194.014 173.584Z" fill="white"/>
</g>
<path d="M148.947 213.22C147.554 213.22 146.426 212.091 146.426 210.699C146.426 209.307 147.555 208.178 148.947 208.178H189.276C190.669 208.178 191.797 209.307 191.797 210.699C191.797 212.091 190.668 213.22 189.276 213.22H148.947Z" fill="#263238"/>
<path opacity="0.6" d="M148.947 213.22C147.554 213.22 146.426 212.091 146.426 210.699C146.426 209.307 147.555 208.178 148.947 208.178H189.276C190.669 208.178 191.797 209.307 191.797 210.699C191.797 212.091 190.668 213.22 189.276 213.22H148.947Z" fill="white"/>
<path d="M245.037 168.256L243.926 166.239C243.557 165.568 242.851 165.151 242.085 165.151H225.447C224.286 165.151 223.346 166.092 223.346 167.252V199.054C223.346 200.26 224.324 201.238 225.53 201.238H263.339C264.545 201.238 265.523 200.26 265.523 199.054V171.299C265.523 170.138 264.582 169.198 263.422 169.198H246.63C245.967 169.198 245.357 168.837 245.037 168.256Z" fill="#407BFF"/>
<path opacity="0.3" d="M245.037 168.256L243.926 166.239C243.557 165.568 242.851 165.151 242.085 165.151H225.447C224.286 165.151 223.346 166.092 223.346 167.252V199.054C223.346 200.26 224.324 201.238 225.53 201.238H263.339C264.545 201.238 265.523 200.26 265.523 199.054V171.299C265.523 170.138 264.582 169.198 263.422 169.198H246.63C245.967 169.198 245.357 168.837 245.037 168.256Z" fill="white"/>
<path d="M260.266 170.47H228.018V194.584H260.266V170.47Z" fill="#263238"/>
<path opacity="0.8" d="M260.266 170.47H228.018V194.584H260.266V170.47Z" fill="white"/>
<path d="M262.596 172.891H225.688V200.49H262.596V172.891Z" fill="#263238"/>
<path opacity="0.9" d="M262.596 172.891H225.688V200.49H262.596V172.891Z" fill="white"/>
<path d="M269.229 173.584C260.38 173.584 255.955 173.584 247.107 173.584C246.088 173.584 245.144 173.944 244.654 174.523C244.064 175.219 243.774 175.568 243.203 176.264C242.792 176.765 242.012 177.077 241.159 177.077C232.516 177.077 228.194 177.077 219.55 177.077C218.056 177.077 217.055 177.889 217.314 178.891C219.426 187.076 220.481 191.169 222.593 199.354C222.861 200.395 224.048 201.239 225.244 201.239C237.738 201.239 250.231 201.239 262.725 201.239C263.921 201.239 265.108 200.395 265.376 199.354C267.436 191.369 269.496 183.383 271.556 175.398C271.813 174.396 270.772 173.584 269.229 173.584Z" fill="#407BFF"/>
<g opacity="0.6">
<path d="M269.229 173.584C260.38 173.584 255.955 173.584 247.107 173.584C246.088 173.584 245.144 173.944 244.654 174.523C244.064 175.219 243.774 175.568 243.203 176.264C242.792 176.765 242.012 177.077 241.159 177.077C232.516 177.077 228.194 177.077 219.55 177.077C218.056 177.077 217.055 177.889 217.314 178.891C219.426 187.076 220.481 191.169 222.593 199.354C222.861 200.395 224.048 201.239 225.244 201.239C237.738 201.239 250.231 201.239 262.725 201.239C263.921 201.239 265.108 200.395 265.376 199.354C267.436 191.369 269.496 183.383 271.556 175.398C271.813 174.396 270.772 173.584 269.229 173.584Z" fill="white"/>
</g>
<path d="M224.269 213.22C222.876 213.22 221.748 212.091 221.748 210.699C221.748 209.307 222.877 208.178 224.269 208.178H264.598C265.99 208.178 267.119 209.307 267.119 210.699C267.119 212.091 265.99 213.22 264.598 213.22H224.269Z" fill="#263238"/>
<path opacity="0.6" d="M224.269 213.22C222.876 213.22 221.748 212.091 221.748 210.699C221.748 209.307 222.877 208.178 224.269 208.178H264.598C265.99 208.178 267.119 209.307 267.119 210.699C267.119 212.091 265.99 213.22 264.598 213.22H224.269Z" fill="white"/>
<path d="M169.822 248.543L168.711 246.526C168.342 245.855 167.636 245.438 166.87 245.438H150.232C149.072 245.438 148.131 246.379 148.131 247.539V279.341C148.131 280.547 149.109 281.525 150.315 281.525H188.124C189.33 281.525 190.308 280.547 190.308 279.341V251.585C190.308 250.425 189.367 249.484 188.207 249.484H171.415C170.752 249.484 170.142 249.124 169.822 248.543Z" fill="#407BFF"/>
<path opacity="0.3" d="M169.822 248.543L168.711 246.526C168.342 245.855 167.636 245.438 166.87 245.438H150.232C149.072 245.438 148.131 246.379 148.131 247.539V279.341C148.131 280.547 149.109 281.525 150.315 281.525H188.124C189.33 281.525 190.308 280.547 190.308 279.341V251.585C190.308 250.425 189.367 249.484 188.207 249.484H171.415C170.752 249.484 170.142 249.124 169.822 248.543Z" fill="white"/>
<path d="M185.051 250.757H152.803V274.871H185.051V250.757Z" fill="#263238"/>
<path opacity="0.8" d="M185.051 250.757H152.803V274.871H185.051V250.757Z" fill="white"/>
<path d="M187.382 253.178H150.473V280.777H187.382V253.178Z" fill="#263238"/>
<path opacity="0.9" d="M187.382 253.178H150.473V280.777H187.382V253.178Z" fill="white"/>
<path d="M194.014 253.87C185.166 253.87 180.74 253.87 171.892 253.87C170.873 253.87 169.929 254.23 169.439 254.809C168.849 255.506 168.559 255.854 167.988 256.55C167.577 257.051 166.797 257.363 165.944 257.363C157.301 257.363 152.979 257.363 144.335 257.363C142.841 257.363 141.84 258.175 142.099 259.177C144.211 267.362 145.266 271.455 147.378 279.64C147.647 280.681 148.833 281.525 150.029 281.525C162.523 281.525 175.016 281.525 187.51 281.525C188.706 281.525 189.892 280.681 190.161 279.64C192.221 271.655 194.281 263.669 196.341 255.684C196.599 254.682 195.557 253.871 194.014 253.87Z" fill="#407BFF"/>
<g opacity="0.6">
<path d="M194.014 253.87C185.166 253.87 180.74 253.87 171.892 253.87C170.873 253.87 169.929 254.23 169.439 254.809C168.849 255.506 168.559 255.854 167.988 256.55C167.577 257.051 166.797 257.363 165.944 257.363C157.301 257.363 152.979 257.363 144.335 257.363C142.841 257.363 141.84 258.175 142.099 259.177C144.211 267.362 145.266 271.455 147.378 279.64C147.647 280.681 148.833 281.525 150.029 281.525C162.523 281.525 175.016 281.525 187.51 281.525C188.706 281.525 189.892 280.681 190.161 279.64C192.221 271.655 194.281 263.669 196.341 255.684C196.599 254.682 195.557 253.871 194.014 253.87Z" fill="white"/>
</g>
<path d="M148.947 294.512C147.554 294.512 146.426 293.383 146.426 291.991C146.426 290.599 147.555 289.47 148.947 289.47H189.276C190.669 289.47 191.797 290.599 191.797 291.991C191.797 293.384 190.668 294.512 189.276 294.512H148.947Z" fill="#263238"/>
<path opacity="0.6" d="M148.947 294.512C147.554 294.512 146.426 293.383 146.426 291.991C146.426 290.599 147.555 289.47 148.947 289.47H189.276C190.669 289.47 191.797 290.599 191.797 291.991C191.797 293.384 190.668 294.512 189.276 294.512H148.947Z" fill="white"/>
<path d="M245.037 248.543L243.926 246.526C243.557 245.855 242.851 245.438 242.085 245.438H225.447C224.286 245.438 223.346 246.379 223.346 247.539V279.341C223.346 280.547 224.324 281.525 225.53 281.525H263.339C264.545 281.525 265.523 280.547 265.523 279.341V251.585C265.523 250.425 264.582 249.484 263.422 249.484H246.63C245.967 249.484 245.357 249.124 245.037 248.543Z" fill="#407BFF"/>
<path opacity="0.3" d="M245.037 248.543L243.926 246.526C243.557 245.855 242.851 245.438 242.085 245.438H225.447C224.286 245.438 223.346 246.379 223.346 247.539V279.341C223.346 280.547 224.324 281.525 225.53 281.525H263.339C264.545 281.525 265.523 280.547 265.523 279.341V251.585C265.523 250.425 264.582 249.484 263.422 249.484H246.63C245.967 249.484 245.357 249.124 245.037 248.543Z" fill="white"/>
<path d="M260.266 250.757H228.018V274.871H260.266V250.757Z" fill="#263238"/>
<path opacity="0.8" d="M260.266 250.757H228.018V274.871H260.266V250.757Z" fill="white"/>
<path d="M262.596 253.178H225.688V280.777H262.596V253.178Z" fill="#263238"/>
<path opacity="0.9" d="M262.596 253.178H225.688V280.777H262.596V253.178Z" fill="white"/>
<path d="M269.229 253.87C260.38 253.87 255.955 253.87 247.107 253.87C246.088 253.87 245.144 254.23 244.654 254.809C244.064 255.506 243.774 255.854 243.203 256.55C242.792 257.051 242.012 257.363 241.159 257.363C232.516 257.363 228.194 257.363 219.55 257.363C218.056 257.363 217.055 258.175 217.314 259.177C219.426 267.362 220.481 271.455 222.593 279.64C222.861 280.681 224.048 281.525 225.244 281.525C237.738 281.525 250.231 281.525 262.725 281.525C263.921 281.525 265.108 280.681 265.376 279.64C267.436 271.655 269.496 263.669 271.556 255.684C271.813 254.682 270.772 253.871 269.229 253.87Z" fill="#407BFF"/>
<g opacity="0.6">
<path d="M269.229 253.87C260.38 253.87 255.955 253.87 247.107 253.87C246.088 253.87 245.144 254.23 244.654 254.809C244.064 255.506 243.774 255.854 243.203 256.55C242.792 257.051 242.012 257.363 241.159 257.363C232.516 257.363 228.194 257.363 219.55 257.363C218.056 257.363 217.055 258.175 217.314 259.177C219.426 267.362 220.481 271.455 222.593 279.64C222.861 280.681 224.048 281.525 225.244 281.525C237.738 281.525 250.231 281.525 262.725 281.525C263.921 281.525 265.108 280.681 265.376 279.64C267.436 271.655 269.496 263.669 271.556 255.684C271.813 254.682 270.772 253.871 269.229 253.87Z" fill="white"/>
</g>
<path d="M224.269 294.512C222.876 294.512 221.748 293.383 221.748 291.991C221.748 290.599 222.877 289.47 224.269 289.47H264.598C265.99 289.47 267.119 290.599 267.119 291.991C267.119 293.384 265.99 294.512 264.598 294.512H224.269Z" fill="#263238"/>
<path opacity="0.6" d="M224.269 294.512C222.876 294.512 221.748 293.383 221.748 291.991C221.748 290.599 222.877 289.47 224.269 289.47H264.598C265.99 289.47 267.119 290.599 267.119 291.991C267.119 293.384 265.99 294.512 264.598 294.512H224.269Z" fill="white"/>
<path d="M318.556 248.543L317.445 246.526C317.076 245.855 316.37 245.438 315.604 245.438H298.966C297.805 245.438 296.865 246.379 296.865 247.539V279.341C296.865 280.547 297.843 281.525 299.049 281.525H336.858C338.064 281.525 339.042 280.547 339.042 279.341V251.585C339.042 250.425 338.101 249.484 336.941 249.484H320.149C319.486 249.484 318.875 249.124 318.556 248.543Z" fill="#407BFF"/>
<path opacity="0.3" d="M318.556 248.543L317.445 246.526C317.076 245.855 316.37 245.438 315.604 245.438H298.966C297.805 245.438 296.865 246.379 296.865 247.539V279.341C296.865 280.547 297.843 281.525 299.049 281.525H336.858C338.064 281.525 339.042 280.547 339.042 279.341V251.585C339.042 250.425 338.101 249.484 336.941 249.484H320.149C319.486 249.484 318.875 249.124 318.556 248.543Z" fill="white"/>
<path d="M333.785 250.757H301.537V274.871H333.785V250.757Z" fill="#263238"/>
<path opacity="0.8" d="M333.785 250.757H301.537V274.871H333.785V250.757Z" fill="white"/>
<path d="M336.114 253.178H299.205V280.777H336.114V253.178Z" fill="#263238"/>
<path opacity="0.9" d="M336.114 253.178H299.205V280.777H336.114V253.178Z" fill="white"/>
<path d="M342.749 253.87C333.901 253.87 329.475 253.87 320.627 253.87C319.608 253.87 318.664 254.23 318.174 254.809C317.584 255.506 317.294 255.854 316.723 256.55C316.312 257.051 315.532 257.363 314.679 257.363C306.036 257.363 301.714 257.363 293.07 257.363C291.577 257.363 290.575 258.175 290.834 259.177C292.946 267.362 294.001 271.455 296.113 279.64C296.381 280.681 297.568 281.525 298.764 281.525C311.258 281.525 323.751 281.525 336.245 281.525C337.441 281.525 338.628 280.681 338.896 279.64C340.956 271.655 343.016 263.669 345.076 255.684C345.333 254.682 344.292 253.871 342.749 253.87Z" fill="#407BFF"/>
<g opacity="0.6">
<path d="M342.749 253.87C333.901 253.87 329.475 253.87 320.627 253.87C319.608 253.87 318.664 254.23 318.174 254.809C317.584 255.506 317.294 255.854 316.723 256.55C316.312 257.051 315.532 257.363 314.679 257.363C306.036 257.363 301.714 257.363 293.07 257.363C291.577 257.363 290.575 258.175 290.834 259.177C292.946 267.362 294.001 271.455 296.113 279.64C296.381 280.681 297.568 281.525 298.764 281.525C311.258 281.525 323.751 281.525 336.245 281.525C337.441 281.525 338.628 280.681 338.896 279.64C340.956 271.655 343.016 263.669 345.076 255.684C345.333 254.682 344.292 253.871 342.749 253.87Z" fill="white"/>
</g>
<path d="M297.789 294.512C296.396 294.512 295.268 293.383 295.268 291.991C295.268 290.599 296.397 289.47 297.789 289.47H338.118C339.511 289.47 340.639 290.599 340.639 291.991C340.639 293.384 339.51 294.512 338.118 294.512H297.789Z" fill="#263238"/>
<path opacity="0.6" d="M297.789 294.512C296.396 294.512 295.268 293.383 295.268 291.991C295.268 290.599 296.397 289.47 297.789 289.47H338.118C339.511 289.47 340.639 290.599 340.639 291.991C340.639 293.384 339.51 294.512 338.118 294.512H297.789Z" fill="white"/>
<path d="M297.269 213.219C295.876 213.219 294.748 212.09 294.748 210.698C294.748 209.306 295.877 208.177 297.269 208.177H337.598C338.991 208.177 340.119 209.306 340.119 210.698C340.119 212.09 338.99 213.219 337.598 213.219H297.269Z" fill="#263238"/>
<path opacity="0.6" d="M297.269 213.219C295.876 213.219 294.748 212.09 294.748 210.698C294.748 209.306 295.877 208.177 297.269 208.177H337.598C338.991 208.177 340.119 209.306 340.119 210.698C340.119 212.09 338.99 213.219 337.598 213.219H297.269Z" fill="white"/>
<path d="M295.894 202.126L304.493 227.288C304.853 228.34 306.101 229.193 307.281 229.193H324.201C324.98 229.193 325.568 228.815 325.736 228.207L326.24 226.378C326.385 225.851 326.894 225.525 327.568 225.525H344.644C345.824 225.525 346.489 224.672 346.13 223.62L338.785 202.127L338.684 197.927V165.586C338.684 164.406 337.727 163.449 336.547 163.449H319.627C318.848 163.449 318.131 163.873 317.755 164.555L316.626 166.607C316.301 167.197 315.68 167.564 315.006 167.564H297.93C296.75 167.564 295.793 168.521 295.793 169.701V197.927L295.894 202.126Z" fill="#407BFF"/>
<path opacity="0.6" d="M295.894 202.126L304.493 227.288C304.853 228.34 306.101 229.193 307.281 229.193H324.201C324.98 229.193 325.568 228.815 325.736 228.207L326.24 226.378C326.385 225.851 326.894 225.525 327.568 225.525H344.644C345.824 225.525 346.489 224.672 346.13 223.62L338.785 202.127L338.684 197.927V165.586C338.684 164.406 337.727 163.449 336.547 163.449H319.627C318.848 163.449 318.131 163.873 317.755 164.555L316.626 166.607C316.301 167.197 315.68 167.564 315.006 167.564H297.93C296.75 167.564 295.793 168.521 295.793 169.701V197.927L295.894 202.126Z" fill="white"/>
<path d="M295.895 202.126L304.494 227.288C304.854 228.34 306.102 229.193 307.282 229.193H324.202C324.981 229.193 325.569 228.815 325.737 228.207L326.241 226.378C326.386 225.851 326.895 225.525 327.569 225.525H344.645C345.825 225.525 346.49 224.672 346.131 223.62L338.786 202.127L295.895 202.126Z" fill="#407BFF"/>
<path opacity="0.3" d="M295.895 202.126L304.494 227.288C304.854 228.34 306.102 229.193 307.282 229.193H324.202C324.981 229.193 325.569 228.815 325.737 228.207L326.241 226.378C326.386 225.851 326.895 225.525 327.569 225.525H344.645C345.825 225.525 346.49 224.672 346.131 223.62L338.786 202.127L295.895 202.126Z" fill="white"/>
<path opacity="0.1" d="M300.027 202.126H334.841L341.192 220.019H306.378L300.027 202.126Z" fill="black"/>
<path d="M300.028 202.127H334.842V173.915H300.028V202.127Z" fill="#263238"/>
<path opacity="0.8" d="M300.028 202.127H334.842V173.915H300.028V202.127Z" fill="white"/>
<path d="M300.027 202.126H334.841L341.898 181.797H307.084L300.027 202.126Z" fill="#263238"/>
<path opacity="0.9" d="M300.027 202.126H334.841L341.898 181.797H307.084L300.027 202.126Z" fill="white"/>
<path d="M300.027 202.126H334.841L341.898 217.196H307.084L300.027 202.126Z" fill="#263238"/>
<path opacity="0.9" d="M300.027 202.126H334.841L341.898 217.196H307.084L300.027 202.126Z" fill="white"/>
<path d="M300.027 202.126H334.841L346.228 194.379H311.414L300.027 202.126Z" fill="#263238"/>
<path opacity="0.8" d="M300.027 202.126H334.841L346.228 194.379H311.414L300.027 202.126Z" fill="white"/>
<path d="M108.305 378.254C109.158 364.685 115.106 350.946 124.684 341.632C127.072 339.309 132.091 334.706 128.02 332.278C123.374 329.506 114.445 342.48 113.203 344.878C115.836 334.539 123.841 327.054 132.522 322.759C136.813 320.636 140.899 318.635 136.327 315.48C131.648 312.251 121.865 319.975 119.584 323.249C125.005 315.685 131.855 308.096 138.872 303.571C146.621 298.575 143.123 290.23 135.132 296.676C130.177 300.673 122.042 310.653 122.042 310.653C122.018 310.639 134.833 284.964 130.97 282.604C126.007 279.571 117.213 314.615 114.793 321.503C115.437 315.782 116.046 301.943 111.747 301.343C107.857 300.799 108.809 335.259 107.904 341.34C107.335 343.997 107.079 345.333 106.629 348.016C106.206 343.426 103.647 331.325 99.765 332.723C96.488 333.904 98.516 342.965 99.368 347.261C101.43 357.67 103.51 367.743 103.525 378.419C105.437 378.352 106.393 378.32 108.305 378.254Z" fill="#407BFF"/>
<path opacity="0.4" d="M112.452 308.086C113.026 315.575 113.547 323.167 112.828 330.685C114.373 326.31 116.157 322.034 118.164 317.88C118.18 317.815 118.208 317.748 118.256 317.682C118.26 317.676 118.264 317.671 118.268 317.665C118.874 316.418 119.491 315.177 120.137 313.953C120.398 313.459 121.041 313.684 120.949 314.136C125.693 308.115 131.417 302.641 138.236 299.117C138.741 298.856 139.08 299.618 138.602 299.889C130.681 304.372 124.795 310.685 118.957 318.15C116.523 323.085 114.394 328.356 112.716 333.597C116.906 326.757 123.733 321.875 131.357 319.56C131.877 319.403 132.172 320.203 131.654 320.366C121.097 323.697 113.691 331.081 110.645 340.75C110.62 340.831 110.586 340.906 110.541 340.962C109.074 347.142 107.955 353.142 107.094 359.435C110.073 350.57 116.485 342.736 123.84 337.241C124.286 336.908 124.685 337.672 124.245 338.003C115.412 344.651 109.715 353.434 106.723 363.532C106.718 363.549 106.709 363.559 106.703 363.575C106.384 367.551 106.238 371.553 106.28 375.563C106.287 376.199 105.446 376.209 105.447 375.576C105.474 362.122 107.448 349.12 111.075 335.999C113.015 326.912 112.315 317.417 111.584 308.265C111.533 307.641 112.405 307.466 112.452 308.086Z" fill="white"/>
<path d="M107.299 378.237C106.287 362.144 99.2326 345.85 87.8726 334.804C85.0396 332.05 79.0876 326.59 83.9156 323.71C89.4266 320.422 100.016 335.809 101.489 338.654C98.3656 326.391 88.8726 317.514 78.5766 312.421C73.4876 309.903 68.6416 307.53 74.0636 303.788C79.6126 299.959 91.2156 309.119 93.9216 313.002C87.4926 304.032 79.3686 295.031 71.0456 289.664C61.8556 283.738 66.0036 273.842 75.4806 281.486C81.3576 286.227 91.0056 298.062 91.0056 298.062C91.0336 298.045 75.8356 267.595 80.4176 264.795C86.3046 261.198 96.7336 302.76 99.6035 310.929C98.8405 304.144 98.1176 287.731 103.217 287.019C107.83 286.374 106.701 327.243 107.774 334.455C108.449 337.607 108.752 339.191 109.286 342.373C109.787 336.929 112.823 322.578 117.426 324.236C121.313 325.636 118.907 336.382 117.897 341.478C115.451 353.823 112.984 365.77 112.967 378.431C110.699 378.354 109.566 378.315 107.299 378.237Z" fill="#407BFF"/>
<path opacity="0.2" d="M102.379 295.02C101.699 303.902 101.081 312.906 101.933 321.823C100.1 316.634 97.9854 311.562 95.6054 306.637C95.5874 306.56 95.5534 306.481 95.4964 306.403C95.4914 306.396 95.4864 306.389 95.4814 306.383C94.7634 304.904 94.0314 303.432 93.2654 301.98C92.9564 301.394 92.1934 301.661 92.3024 302.197C86.6754 295.056 79.8874 288.563 71.8004 284.384C71.2014 284.075 70.7994 284.978 71.3664 285.299C80.7614 290.616 87.7414 298.103 94.6654 306.957C97.5524 312.81 100.076 319.062 102.067 325.277C97.0984 317.165 89.0014 311.375 79.9594 308.629C79.3424 308.442 78.9934 309.391 79.6074 309.585C92.1274 313.535 100.911 322.293 104.524 333.761C104.554 333.857 104.594 333.946 104.647 334.012C106.386 341.342 107.714 348.458 108.736 355.921C105.203 345.407 97.5994 336.116 88.8754 329.598C88.3464 329.203 87.8724 330.109 88.3954 330.502C98.8714 338.386 105.628 348.803 109.176 360.78C109.182 360.8 109.193 360.812 109.199 360.831C109.577 365.547 109.75 370.292 109.7 375.049C109.692 375.803 110.689 375.816 110.688 375.065C110.656 359.109 108.315 343.689 104.014 328.126C101.713 317.349 102.544 306.088 103.41 295.234C103.469 294.492 102.435 294.285 102.379 295.02Z" fill="white"/>
<path d="M107.299 378.237C106.287 362.144 99.2326 345.85 87.8726 334.804C85.0396 332.05 79.0876 326.59 83.9156 323.71C89.4266 320.422 100.016 335.809 101.489 338.654C98.3656 326.391 88.8726 317.514 78.5766 312.421C73.4876 309.903 68.6416 307.53 74.0636 303.788C79.6126 299.959 91.2156 309.119 93.9216 313.002C87.4926 304.032 79.3686 295.031 71.0456 289.664C61.8556 283.738 66.0036 273.842 75.4806 281.486C81.3576 286.227 91.0056 298.062 91.0056 298.062C91.0336 298.045 75.8356 267.595 80.4176 264.795C86.3046 261.198 96.7336 302.76 99.6035 310.929C98.8405 304.144 98.1176 287.731 103.217 287.019C107.83 286.374 106.701 327.243 107.774 334.455C108.449 337.607 108.752 339.191 109.286 342.373C109.787 336.929 112.823 322.578 117.426 324.236C121.313 325.636 118.907 336.382 117.897 341.478C115.451 353.823 112.984 365.77 112.967 378.431C110.699 378.354 109.566 378.315 107.299 378.237Z" fill="#407BFF"/>
<path opacity="0.2" d="M107.299 378.237C106.287 362.144 99.2326 345.85 87.8726 334.804C85.0396 332.05 79.0876 326.59 83.9156 323.71C89.4266 320.422 100.016 335.809 101.489 338.654C98.3656 326.391 88.8726 317.514 78.5766 312.421C73.4876 309.903 68.6416 307.53 74.0636 303.788C79.6126 299.959 91.2156 309.119 93.9216 313.002C87.4926 304.032 79.3686 295.031 71.0456 289.664C61.8556 283.738 66.0036 273.842 75.4806 281.486C81.3576 286.227 91.0056 298.062 91.0056 298.062C91.0336 298.045 75.8356 267.595 80.4176 264.795C86.3046 261.198 96.7336 302.76 99.6035 310.929C98.8405 304.144 98.1176 287.731 103.217 287.019C107.83 286.374 106.701 327.243 107.774 334.455C108.449 337.607 108.752 339.191 109.286 342.373C109.787 336.929 112.823 322.578 117.426 324.236C121.313 325.636 118.907 336.382 117.897 341.478C115.451 353.823 112.984 365.77 112.967 378.431C110.699 378.354 109.566 378.315 107.299 378.237Z" fill="white"/>
<path opacity="0.5" d="M102.379 295.02C101.699 303.902 101.081 312.906 101.933 321.823C100.1 316.634 97.9854 311.562 95.6054 306.637C95.5874 306.56 95.5534 306.481 95.4964 306.403C95.4914 306.396 95.4864 306.389 95.4814 306.383C94.7634 304.904 94.0314 303.432 93.2654 301.98C92.9564 301.394 92.1934 301.661 92.3024 302.197C86.6754 295.056 79.8874 288.563 71.8004 284.384C71.2014 284.075 70.7994 284.978 71.3664 285.299C80.7614 290.616 87.7414 298.103 94.6654 306.957C97.5524 312.81 100.076 319.062 102.067 325.277C97.0984 317.165 89.0014 311.375 79.9594 308.629C79.3424 308.442 78.9934 309.391 79.6074 309.585C92.1274 313.535 100.911 322.293 104.524 333.761C104.554 333.857 104.594 333.946 104.647 334.012C106.386 341.342 107.714 348.458 108.736 355.921C105.203 345.407 97.5994 336.116 88.8754 329.598C88.3464 329.203 87.8724 330.109 88.3954 330.502C98.8714 338.386 105.628 348.803 109.176 360.78C109.182 360.8 109.193 360.812 109.199 360.831C109.577 365.547 109.75 370.292 109.7 375.049C109.692 375.803 110.689 375.816 110.688 375.065C110.656 359.109 108.315 343.689 104.014 328.126C101.713 317.349 102.544 306.088 103.41 295.234C103.469 294.492 102.435 294.285 102.379 295.02Z" fill="white"/>
<path d="M123.83 376.046H92.551C90.521 376.046 88.875 377.692 88.875 379.722V381.337C88.875 383.367 90.521 385.013 92.551 385.013L96.153 411.024H120.229L123.831 385.013C125.861 385.013 127.507 383.367 127.507 381.337V379.722C127.506 377.692 125.86 376.046 123.83 376.046Z" fill="#407BFF"/>
<path opacity="0.2" d="M123.83 376.046H92.551C90.521 376.046 88.875 377.692 88.875 379.722V381.337C88.875 383.367 90.521 385.013 92.551 385.013L96.153 411.024H120.229L123.831 385.013C125.861 385.013 127.507 383.367 127.507 381.337V379.722C127.506 377.692 125.86 376.046 123.83 376.046Z" fill="black"/>
<path opacity="0.2" d="M123.089 390.373L123.82 385.095H92.5625L93.2935 390.373H123.089Z" fill="black"/>
<path d="M388.8 196.099C388.8 196.099 406.708 211.501 406.708 220.627C406.708 229.016 388.917 238.008 381.099 239.172C379.287 239.442 373.769 239.172 373.769 239.172C372.076 239.172 370.566 238.104 370.003 236.507L369.912 236.249C369.402 234.804 369.741 233.172 370.843 232.106C371.669 231.307 372.758 230.536 374.007 230.34C376.831 229.899 380.805 233.872 380.805 233.872C380.805 233.872 398.172 223.422 398.172 221.509C398.172 219.596 390.236 213.339 387.87 209.882C385.885 206.985 383.844 202.773 388.8 196.099Z" fill="#B97964"/>
<path d="M389.248 195.243C390.987 196.283 394.905 199.288 401.221 207.636C401.221 207.636 400.989 212.195 392.875 216.445C392.875 216.445 384.22 209.799 384.297 203.385C384.35 199.007 386.146 196.569 387.281 195.462C387.81 194.948 388.615 194.864 389.248 195.243Z" fill="#407BFF"/>
<path opacity="0.2" d="M387.424 210.938C389.876 214.141 392.875 216.445 392.875 216.445C393.095 216.33 393.307 216.214 393.515 216.098C394.337 206.299 391.252 200.062 391.252 200.062L388.193 204.235L387.424 210.938Z" fill="black"/>
<path opacity="0.2" d="M381.435 239.113C384.578 238.577 389.163 236.881 393.573 234.511C391.932 233.312 391.446 229.143 391.306 227.198C386.854 230.202 381.747 233.302 380.928 233.798L381.435 239.113Z" fill="#606060"/>
<path d="M391.715 216.174C391.715 216.174 398.94 212.272 401.22 206.399L402.572 208.679C402.572 208.679 400.228 214.404 393.119 217.611L391.715 216.174Z" fill="#407BFF"/>
<path opacity="0.5" d="M391.715 216.174C391.715 216.174 398.94 212.272 401.22 206.399L402.572 208.679C402.572 208.679 400.228 214.404 393.119 217.611L391.715 216.174Z" fill="white"/>
<path d="M383.132 209.494L382.125 208.198C381.79 207.767 381.247 207.552 380.708 207.637L368.996 209.492C368.179 209.621 367.622 210.388 367.751 211.205L371.297 233.592C371.431 234.441 372.229 235.02 373.078 234.886L399.693 230.671C400.542 230.536 401.121 229.739 400.987 228.89L397.893 209.352C397.764 208.535 396.996 207.978 396.179 208.107L384.359 209.979C383.891 210.053 383.422 209.867 383.132 209.494Z" fill="#407BFF"/>
<path opacity="0.4" d="M383.132 209.494L382.125 208.198C381.79 207.767 381.247 207.552 380.708 207.637L368.996 209.492C368.179 209.621 367.622 210.388 367.751 211.205L371.297 233.592C371.431 234.441 372.229 235.02 373.078 234.886L399.693 230.671C400.542 230.536 401.121 229.739 400.987 228.89L397.893 209.352C397.764 208.535 396.996 207.978 396.179 208.107L384.359 209.979C383.891 210.053 383.422 209.867 383.132 209.494Z" fill="white"/>
<path d="M396.177 208.108L384.465 209.963C383.926 210.048 383.476 210.421 383.291 210.934L382.734 212.478C382.574 212.922 382.184 213.244 381.718 213.318L369.898 215.19C369.081 215.319 368.524 216.086 368.653 216.903L371.296 233.592C371.43 234.441 372.228 235.02 373.077 234.886L399.692 230.671C400.541 230.536 401.12 229.739 400.986 228.89L397.892 209.352C397.761 208.536 396.994 207.978 396.177 208.108Z" fill="#407BFF"/>
<path opacity="0.7" d="M396.177 208.108L384.465 209.963C383.926 210.048 383.476 210.421 383.291 210.934L382.734 212.478C382.574 212.922 382.184 213.244 381.718 213.318L369.898 215.19C369.081 215.319 368.524 216.086 368.653 216.903L371.296 233.592C371.43 234.441 372.228 235.02 373.077 234.886L399.692 230.671C400.541 230.536 401.12 229.739 400.986 228.89L397.892 209.352C397.761 208.536 396.994 207.978 396.177 208.108Z" fill="white"/>
<path d="M410.596 391.37L414.21 403.966L420.101 402.807L418.555 389.361L410.596 391.37Z" fill="#B97964"/>
<path d="M413.698 402.035L420.651 400.773C420.913 400.725 421.173 400.866 421.277 401.111L423.56 406.54C423.766 407.02 423.544 407.576 423.064 407.782C423.002 407.808 422.938 407.828 422.872 407.841C420.358 408.252 418.104 408.519 414.984 409.09C411.302 409.759 412.316 410.03 407.998 410.878C405.396 411.386 404.38 408.507 405.46 408.161C410.407 406.605 410.655 404.981 412.279 402.815C412.64 402.39 413.145 402.112 413.698 402.035Z" fill="#263238"/>
<path d="M359.26 388.924V405.616H365.52L368.746 389.31L359.26 388.924Z" fill="#B97964"/>
<path d="M359.148 404.552L366.202 404.804C366.468 404.813 366.692 405.006 366.741 405.268L367.811 411.052C367.91 411.564 367.574 412.06 367.062 412.158C366.996 412.171 366.929 412.176 366.863 412.175C364.322 412.04 362.066 411.82 358.9 411.711C355.164 411.578 356.096 412.059 351.702 411.965C349.054 411.905 348.678 408.88 349.805 408.772C354.964 408.309 355.552 406.778 357.599 405.01C358.04 404.672 358.592 404.509 359.148 404.552Z" fill="#263238"/>
<path d="M378.27 249.468L389.958 246.171C389.958 246.171 398.247 251.485 399.474 275.639C399.967 285.351 402.739 292.847 402.352 311.254C402.239 316.624 403.408 321.96 405.811 326.764C407.95 331.039 410.523 337.265 412.271 345.084C415.774 360.745 420.102 396.601 420.102 396.601L411.653 398.044C411.653 398.044 403.822 371.461 393.519 344.879C383.216 318.296 376.003 277.701 376.003 277.701L373.295 249.47H378.27V249.468Z" fill="#263238"/>
<path opacity="0.6" d="M383.113 278.935L380.743 279.45L378.064 282.129L377.373 284.866C378.444 290.245 380.109 298.181 382.244 307.042C386.324 284.491 383.113 278.935 383.113 278.935Z" fill="black"/>
<path d="M356.633 248.438L358.797 400.206H367.143C367.143 400.206 375.798 362.805 375.798 347.968C375.798 339.185 375.22 329.898 374.749 323.781C374.399 319.239 374.974 314.681 376.424 310.363C379.168 302.194 383.484 288.122 384.041 278.937C384.041 278.937 394.962 278.524 387.132 248.438L356.633 248.438Z" fill="#263238"/>
<path d="M363.086 171.649L359.236 175.383C359.236 175.383 360.439 176.808 362.657 176.562L363.086 171.649Z" fill="#A24E3F"/>
<path d="M384.131 172.412C382.582 180.021 382.09 183.282 377.66 186.677C371.173 189.856 361.975 188.22 361.222 180.295C360.541 173.165 363.183 161.947 371.139 159.905C376.811 158.452 382.586 161.872 384.039 167.544C384.447 169.138 384.478 170.804 384.131 172.412Z" fill="#B97964"/>
<path d="M364.644 166.796C364.542 166.783 364.453 166.721 364.404 166.63C364.076 165.93 363.431 165.431 362.671 165.288C362.505 165.27 362.384 165.121 362.4 164.955C362.421 164.788 362.571 164.668 362.739 164.684C363.705 164.843 364.532 165.466 364.951 166.352C365.028 166.503 364.968 166.687 364.818 166.764C364.764 166.791 364.703 166.802 364.644 166.796Z" fill="#263238"/>
<path opacity="0.2" d="M366.204 184.454C364.283 184.395 362.895 183.805 362.018 183.271C363.399 186.203 366.322 187.768 369.605 188.121L369.493 186.513C369.493 186.513 369.78 184.563 366.204 184.454Z" fill="#606060"/>
<path d="M368.996 193.61L369.678 183.835C369.678 183.835 373.632 182.393 376.002 183.835C376.002 183.835 377.135 191.15 379.299 192.902L368.996 193.61Z" fill="#B97964"/>
<path d="M361.369 169.925C361.228 170.491 361.406 171.026 361.777 171.12C362.148 171.213 362.593 170.812 362.715 170.258C362.837 169.704 362.678 169.157 362.305 169.069C361.932 168.981 361.516 169.361 361.369 169.925Z" fill="#263238"/>
<path d="M362.617 169.056C362.617 169.056 361.371 168.817 360.933 167.735C360.933 167.735 360.822 169.189 362.397 169.711L362.617 169.056Z" fill="#263238"/>
<path d="M363.849 171.672C363.216 173.127 363.188 174.774 363.773 176.249C364.563 178.2 366.631 177.907 367.811 176.306C368.881 174.856 369.741 172.104 368.271 170.652C366.8 169.199 364.643 169.902 363.849 171.672Z" fill="#B97964"/>
<path d="M387.285 166.798C387.285 166.798 391.406 162.868 388.109 159.983C384.812 157.098 388.573 163.104 387.285 166.798Z" fill="#263238"/>
<path d="M370.233 161.49C370.233 161.49 365.854 157.832 364.36 160.614C362.866 163.396 366.884 160.254 370.233 161.49Z" fill="#263238"/>
<path d="M369.772 169.936L363.306 167.861L363.349 167.716C363.513 167.157 363.193 166.569 362.634 166.405L361.451 166.057C361.181 165.978 360.895 166.008 360.648 166.143C360.401 166.278 360.22 166.502 360.141 166.772L358.905 170.973C358.8 171.329 358.84 171.703 359.018 172.029C359.195 172.354 359.489 172.59 359.844 172.695L360.392 172.857C360.522 172.896 360.653 172.914 360.782 172.914C361.382 172.914 361.936 172.522 362.114 171.919L363.133 168.457L369.584 170.527L369.772 169.936ZM360.944 166.685C361.047 166.629 361.165 166.617 361.277 166.649L362.46 166.997C362.692 167.065 362.824 167.309 362.756 167.54L362.717 167.671L360.709 167.027L360.733 166.945C360.766 166.833 360.841 166.741 360.944 166.685ZM361.519 171.742C361.399 172.15 360.971 172.383 360.565 172.263L360.017 172.101C359.82 172.043 359.658 171.912 359.559 171.731C359.461 171.551 359.439 171.344 359.496 171.147L360.534 167.621L362.542 168.265L361.519 171.742Z" fill="#263238"/>
<path d="M365.596 196.354C365.596 196.354 366.62 192.49 373.295 191.099C379.97 189.708 382.597 195.017 382.597 195.017L365.596 196.354Z" fill="#407BFF"/>
<path opacity="0.5" d="M365.596 196.354C365.596 196.354 366.62 192.49 373.295 191.099C379.97 189.708 382.597 195.017 382.597 195.017L365.596 196.354Z" fill="white"/>
<path d="M355.858 249.441C355.858 249.441 382.982 252.79 391.637 246.17C391.637 246.17 389.125 236.305 389.956 225.022C390.787 213.74 394.264 202.612 390.555 196.507C386.846 190.402 359.413 194.961 354.004 200.525C348.595 206.09 355.858 227.727 355.858 249.441Z" fill="#407BFF"/>
<path opacity="0.2" d="M360.109 205.318L357.868 212.006L352.824 218.304C353.411 222.934 354.203 228.142 354.832 233.638C357.101 231.139 359.358 227.863 360.881 223.71C365.777 210.357 361.886 202.923 361.886 202.923L360.109 205.318Z" fill="black"/>
<path d="M365.596 175.284C365.596 175.284 357.559 195.157 371.16 195.009C384.76 194.861 387.996 191.564 384.369 188.885C380.742 186.206 392.655 177.345 388.193 166.218C388.193 166.218 386.615 157.357 377.548 157.46C377.548 157.46 375.558 154.558 371.87 154.048C368.402 153.569 365.973 157.417 367.808 160.398L369.678 163.435C369.678 163.435 362.608 165.702 365.596 175.284Z" fill="#263238"/>
<path d="M358.84 199.444C358.84 199.444 352.184 200.914 350.876 209.284C349.568 217.654 348.737 224.003 346.298 224.847C343.726 225.738 332.304 216.095 332.304 216.095L332.684 210.476C332.77 209.202 332.075 208.003 330.926 207.445L330.056 207.022C328.955 206.487 327.643 206.642 326.697 207.419L325.988 208.002C325.094 208.736 324.68 209.9 324.903 211.035C325.345 213.289 326.277 216.905 327.857 218.046C327.857 218.046 344.075 236.7 348.914 234.763C353.753 232.825 357.405 221.092 359.377 216.215C360.949 212.329 363.012 208.045 358.84 199.444Z" fill="#B97964"/>
<path d="M359.259 198.363C357.446 197.197 349.909 198.595 348.131 215.904C348.131 215.904 354.081 220.927 359.722 220.231C359.722 220.231 367.064 203.386 359.259 198.363Z" fill="#407BFF"/>
<path d="M347.746 214.242C347.746 214.242 353.58 219.211 360.883 218.968L360.036 220.918C360.036 220.918 353.851 222.279 347.475 216.175L347.746 214.242Z" fill="#407BFF"/>
<path opacity="0.5" d="M347.746 214.242C347.746 214.242 353.58 219.211 360.883 218.968L360.036 220.918C360.036 220.918 353.851 222.279 347.475 216.175L347.746 214.242Z" fill="white"/>
<path d="M410.199 396.04L410.993 399.147L420.889 397.26L420.545 394.183L410.199 396.04Z" fill="#407BFF"/>
<path d="M357.771 398.216L357.887 401.307H368.126L368.744 398.216H357.771Z" fill="#407BFF"/>
</svg>
