<svg width="3710" height="3710" viewBox="0 0 3710 3710" fill="none" xmlns="http://www.w3.org/2000/svg">
<g clip-path="url(#clip0_1612_1664)">
<path d="M2893.84 2799C2822.44 2872.59 2758.56 2915.85 2709.65 2948.51C2232.61 3267.03 1687.31 3175.23 1518.72 3143.85C1246.72 3093.22 1017.11 3057.51 819.834 2879.28C371.565 2474.29 393.368 1629.44 735.9 1106.09C776.514 1044.04 1118.53 537.07 1665.01 465.634C1678.37 463.887 1688.35 462.892 1697.08 461.967C1781.62 453.016 2305.49 405.776 2732.66 763.655C2793.8 814.884 2892.21 907.287 2983.46 1048.22C3317.11 1563.52 3318.17 2361.61 2893.84 2799Z" fill="url(#paint0_linear_1612_1664)"/>
<path d="M1183.26 989.425C1175.68 986.52 1171.36 978.294 1173.51 970.281C1178.2 952.752 1183.72 935.167 1189.92 918.015C1192.94 909.67 1202.15 905.349 1210.49 908.365C1210.59 908.403 1210.69 908.44 1210.78 908.477C1218.93 911.6 1223.12 920.689 1220.14 928.934C1214.24 945.23 1209 961.934 1204.54 978.584C1202.25 987.153 1193.44 992.245 1184.87 989.949C1184.32 989.804 1183.78 989.625 1183.26 989.425ZM1234.3 859.119C1233.71 858.894 1233.13 858.632 1232.56 858.333C1224.71 854.208 1221.68 844.495 1225.81 836.641C1234.28 820.509 1243.53 804.579 1253.3 789.298C1258.07 781.821 1267.96 779.638 1275.48 784.407C1282.96 789.186 1285.14 799.122 1280.37 806.592C1271.09 821.119 1262.3 836.251 1254.25 851.585C1250.42 858.868 1241.79 861.992 1234.3 859.119ZM1312.76 743.292C1311.09 742.652 1309.5 741.72 1308.06 740.491C1301.32 734.718 1300.54 724.578 1306.31 717.839C1318.13 704.025 1330.71 690.553 1343.69 677.799C1350.02 671.584 1360.18 671.682 1366.4 677.996C1372.62 684.323 1372.53 694.496 1366.21 700.713C1353.88 712.824 1341.94 725.613 1330.71 738.733C1326.17 744.036 1318.92 745.654 1312.76 743.292ZM1415.17 647.898C1412.41 646.84 1409.91 645.009 1408.02 642.457C1402.74 635.328 1404.25 625.267 1411.38 619.989C1426.01 609.165 1441.28 598.842 1456.77 589.308C1464.32 584.669 1474.21 587.021 1478.87 594.571C1483.52 602.125 1481.16 612.02 1473.6 616.671C1458.89 625.724 1444.39 635.526 1430.49 645.817C1425.91 649.203 1420.12 649.796 1415.17 647.898ZM1536.28 577.737C1532.41 576.254 1529.11 573.284 1527.32 569.189C1523.75 561.063 1527.45 551.587 1535.57 548.027C1552.2 540.736 1569.37 534.051 1586.61 528.171C1595 525.299 1604.13 529.78 1607 538.182C1609.86 546.577 1605.38 555.706 1596.98 558.576C1580.6 564.164 1564.28 570.517 1548.48 577.446C1544.45 579.214 1540.09 579.196 1536.28 577.737ZM1669.88 536.118C1664.87 534.197 1660.93 529.812 1659.84 524.153C1658.17 515.439 1663.87 507.02 1672.58 505.338C1690.43 501.898 1708.66 499.178 1726.74 497.266C1735.57 496.334 1743.47 502.729 1744.41 511.554C1745.34 520.372 1738.95 528.282 1730.12 529.217C1712.94 531.037 1695.62 533.616 1678.66 536.886C1675.6 537.476 1672.59 537.154 1669.88 536.118ZM2233.23 711.017C2231.16 710.221 2229.22 708.981 2227.55 707.295C2215.44 695.005 2202.62 683.079 2189.46 671.853C2182.71 666.096 2181.9 655.956 2187.66 649.211C2193.41 642.459 2203.55 641.654 2210.31 647.412C2224.17 659.235 2237.67 671.794 2250.43 684.734C2256.66 691.052 2256.59 701.224 2250.27 707.452C2245.64 712.022 2238.94 713.202 2233.23 711.017ZM1809.3 525.149C1803.08 522.765 1798.76 516.634 1799 509.602C1799.3 500.733 1806.73 493.79 1815.59 494.089C1833.77 494.703 1852.13 496.116 1870.19 498.289C1878.99 499.39 1885.28 507.345 1884.22 516.157C1883.16 524.964 1875.16 531.245 1866.35 530.188C1849.21 528.122 1831.76 526.781 1814.51 526.196C1812.67 526.132 1810.92 525.77 1809.3 525.149ZM2124.37 623.088C2123.38 622.709 2122.42 622.23 2121.49 621.638C2106.92 612.367 2091.75 603.606 2076.42 595.587C2068.56 591.472 2065.52 581.767 2069.63 573.907C2073.74 566.049 2083.45 562.965 2091.31 567.115C2107.44 575.554 2123.4 584.773 2138.73 594.525C2146.22 599.288 2148.42 609.219 2143.66 616.702C2139.49 623.257 2131.36 625.764 2124.37 623.088ZM1947.67 545.598C1940.1 542.697 1935.78 534.491 1937.91 526.483C1940.19 517.907 1948.99 512.805 1957.56 515.076C1975.12 519.74 1992.71 525.224 2009.84 531.385C2009.95 531.419 2010.06 531.461 2010.16 531.501C2018.3 534.619 2022.49 543.689 2019.53 551.929C2016.53 560.281 2007.33 564.618 1998.98 561.614C1982.7 555.767 1965.99 550.561 1949.31 546.131C1948.75 545.978 1948.2 545.801 1947.67 545.598Z" fill="#91B3FA"/>
<path d="M2304.84 798.172C2301.89 797.04 2299.23 795.029 2297.32 792.213C2292.66 785.363 2287.78 778.5 2282.82 771.802C2277.54 764.678 2279.04 754.613 2286.16 749.333C2293.29 744.047 2303.36 745.534 2308.63 752.675C2313.85 759.715 2318.98 766.935 2323.89 774.143C2328.87 781.477 2326.97 791.473 2319.64 796.458C2315.12 799.536 2309.59 799.991 2304.84 798.172Z" fill="#91B3FA"/>
<path d="M2400.25 1278.54C2393.01 1275.76 2388.65 1268.07 2390.29 1260.24C2391.99 1252.14 2393.55 1243.86 2394.93 1235.64C2396.39 1226.89 2404.68 1220.99 2413.42 1222.45C2422.21 1223.92 2428.08 1232.2 2426.62 1240.94C2425.17 1249.59 2423.52 1258.31 2421.73 1266.85C2419.91 1275.53 2411.39 1281.09 2402.71 1279.26C2401.86 1279.09 2401.03 1278.84 2400.25 1278.54Z" fill="#91B3FA"/>
<path d="M1564.61 1734.84C1557.7 1732.19 1550.82 1729.42 1543.96 1726.52C1535.79 1723.07 1531.96 1713.65 1535.41 1705.48C1538.86 1697.3 1548.33 1693.46 1556.46 1696.92C1572.3 1703.61 1588.37 1709.64 1604.42 1714.9C1612.85 1717.68 1617.44 1726.74 1614.68 1735.17C1611.91 1743.61 1602.84 1748.2 1594.41 1745.43C1584.48 1742.18 1574.45 1738.61 1564.61 1734.84ZM1468.27 1688.27C1467.43 1687.95 1466.6 1687.55 1465.8 1687.08C1450.39 1677.94 1435.18 1668.04 1420.62 1657.66C1413.4 1652.52 1411.72 1642.48 1416.86 1635.26C1422.01 1628.04 1432.07 1626.34 1439.27 1631.5C1453.1 1641.36 1467.54 1650.76 1482.19 1659.45C1489.82 1663.97 1492.34 1673.83 1487.81 1681.45C1483.76 1688.29 1475.44 1691.02 1468.27 1688.27ZM1676.37 1766.14C1669.29 1763.43 1664.92 1755.99 1666.33 1748.27C1667.91 1739.54 1676.28 1733.75 1685.01 1735.34C1701.7 1738.38 1718.76 1740.74 1735.7 1742.35C1744.53 1743.21 1751.01 1751.04 1750.17 1759.87C1749.32 1768.71 1741.48 1775.18 1732.65 1774.34C1714.8 1772.63 1696.84 1770.15 1679.26 1766.95C1678.25 1766.77 1677.29 1766.49 1676.37 1766.14ZM1358.24 1605.4C1356.33 1604.67 1354.54 1603.56 1352.97 1602.07C1339.95 1589.78 1327.3 1576.78 1315.37 1563.44C1309.45 1556.83 1310.02 1546.68 1316.63 1540.76C1323.25 1534.85 1333.4 1535.41 1339.31 1542.03C1350.64 1554.7 1362.65 1567.04 1375.02 1578.71C1381.47 1584.8 1381.76 1594.97 1375.67 1601.42C1371.07 1606.3 1364.14 1607.66 1358.24 1605.4ZM1813.67 1775.61C1807.87 1773.38 1803.64 1767.88 1803.36 1761.28C1802.99 1752.41 1809.87 1744.92 1818.74 1744.55C1835.69 1743.84 1852.84 1742.39 1869.73 1740.25C1878.53 1739.13 1886.58 1745.36 1887.69 1754.16C1888.8 1762.96 1882.58 1771 1873.78 1772.12C1855.99 1774.37 1837.93 1775.9 1820.09 1776.65C1817.83 1776.75 1815.66 1776.37 1813.67 1775.61ZM1949.73 1754.72C1945.09 1752.94 1941.34 1749.04 1939.95 1743.88C1937.65 1735.31 1942.73 1726.5 1951.3 1724.2C1967.73 1719.79 1984.17 1714.63 2000.15 1708.87C2008.5 1705.85 2017.7 1710.18 2020.71 1718.54C2023.72 1726.89 2019.39 1736.09 2011.04 1739.1C1994.22 1745.16 1976.92 1750.58 1959.63 1755.23C1956.23 1756.14 1952.79 1755.89 1949.73 1754.72ZM2078 1704.66C2074.47 1703.31 2071.41 1700.72 2069.52 1697.11C2065.41 1689.25 2068.45 1679.54 2076.31 1675.43C2091.4 1667.54 2106.32 1658.93 2120.66 1649.83C2128.15 1645.08 2138.07 1647.29 2142.83 1654.79C2147.58 1662.28 2145.36 1672.2 2137.87 1676.96C2122.78 1686.53 2107.08 1695.6 2091.2 1703.9C2086.95 1706.12 2082.15 1706.26 2078 1704.66ZM2192.29 1627.83C2189.85 1626.9 2187.6 1625.35 2185.79 1623.21C2180.06 1616.44 2180.9 1606.31 2187.68 1600.58C2200.67 1589.58 2213.34 1577.91 2225.33 1565.88C2231.6 1559.6 2241.78 1559.59 2248.05 1565.85C2254.33 1572.11 2254.35 1582.28 2248.08 1588.57C2235.45 1601.24 2222.11 1613.53 2208.43 1625.1C2203.79 1629.02 2197.59 1629.86 2192.29 1627.83ZM2286.97 1527.75C2285.59 1527.22 2284.27 1526.49 2283.03 1525.56C2275.95 1520.22 2274.54 1510.15 2279.88 1503.07C2290.11 1489.51 2299.89 1475.34 2308.95 1460.94C2313.68 1453.44 2323.62 1451.2 2331.1 1455.91C2338.61 1460.64 2340.87 1470.56 2336.14 1478.07C2326.59 1493.22 2316.3 1508.14 2305.53 1522.41C2301.12 1528.26 2293.48 1530.24 2286.97 1527.75ZM2357.29 1409.39C2356.98 1409.27 2356.68 1409.14 2356.37 1409C2348.3 1405.33 2344.73 1395.8 2348.4 1387.73C2353.59 1376.33 2358.48 1364.64 2362.95 1352.97C2364.57 1348.74 2366.14 1344.5 2367.66 1340.27C2370.65 1331.92 2379.85 1327.57 2388.2 1330.57C2396.71 1333.43 2400.89 1342.76 2397.9 1351.1C2396.3 1355.57 2394.66 1360.01 2392.95 1364.46C2388.25 1376.74 2383.1 1389.04 2377.65 1401.03C2374.11 1408.8 2365.16 1412.4 2357.29 1409.39Z" fill="#91B3FA"/>
<path d="M1268.96 1500C1265.97 1498.86 1263.3 1496.82 1261.39 1493.98C1256.53 1486.76 1251.74 1479.31 1247.14 1471.82C1242.49 1464.26 1244.85 1454.37 1252.41 1449.73C1259.97 1445.08 1269.86 1447.43 1274.51 1455C1278.88 1462.11 1283.43 1469.19 1288.04 1476.04C1292.99 1483.4 1291.04 1493.38 1283.68 1498.34C1279.17 1501.37 1273.67 1501.81 1268.96 1500Z" fill="#91B3FA"/>
<path d="M1355.86 1333.77C1356.87 1336.81 1359.69 1338.89 1362.89 1338.93L1454.26 1340.16C1476.51 1376.58 1504.73 1409.7 1538.41 1437.89L1526.14 1528.38C1525.7 1531.56 1527.34 1534.65 1530.2 1536.09L1628.07 1585.43C1630.93 1586.87 1634.39 1586.34 1636.69 1584.1L1702.13 1520.41C1744.82 1530.71 1788.23 1533.69 1830.74 1529.92L1886.08 1602.64C1888.02 1605.18 1891.37 1606.22 1894.41 1605.22L1998.5 1570.89C2001.55 1569.89 2003.62 1567.07 2003.66 1563.86L2004.89 1472.49C2041.3 1450.24 2074.43 1422.02 2102.62 1388.34L2193.11 1400.62C2196.28 1401.05 2199.38 1399.42 2200.82 1396.56L2250.16 1298.68C2251.6 1295.82 2251.07 1292.36 2248.83 1290.06L2185.14 1224.62C2195.44 1181.93 2198.42 1138.52 2194.65 1096.01L2267.36 1040.67C2269.91 1038.73 2270.95 1035.39 2269.95 1032.34L2235.62 928.252C2234.62 925.209 2231.79 923.139 2228.59 923.096L2137.22 921.861C2114.97 885.449 2086.75 852.324 2053.07 824.135L2065.34 733.643C2065.77 730.47 2064.15 727.373 2061.28 725.93L1963.41 676.598C1960.55 675.155 1957.09 675.688 1954.79 677.922L1889.35 741.615C1846.66 731.313 1803.25 728.332 1760.74 732.104L1705.4 659.392C1703.46 656.842 1700.11 655.805 1697.07 656.808L1592.98 691.135C1589.94 692.138 1587.87 694.96 1587.82 698.163L1586.59 789.532C1550.17 811.786 1517.05 840.008 1488.86 873.682L1398.37 861.409C1395.2 860.978 1392.1 862.609 1390.66 865.471L1341.32 963.347C1339.88 966.208 1340.41 969.667 1342.65 971.963L1406.34 1037.4C1396.04 1080.09 1393.06 1123.51 1396.83 1166.01L1324.12 1221.36C1321.57 1223.3 1320.53 1226.64 1321.53 1229.68L1355.86 1333.77Z" fill="url(#paint1_linear_1612_1664)"/>
<path d="M1756.25 1233.87C1706.1 1214.66 1676.17 1160.96 1688.21 1107.01C1701.45 1047.72 1760.45 1010.25 1819.74 1023.48C1848.47 1029.89 1872.97 1047.1 1888.75 1071.94C1904.52 1096.78 1909.68 1126.28 1903.27 1155.01C1890.04 1214.3 1831.04 1251.77 1771.74 1238.54C1766.4 1237.35 1761.22 1235.78 1756.25 1233.87ZM1826.14 1052.18C1822.27 1050.7 1818.26 1049.49 1814.14 1048.57C1768.68 1038.42 1723.44 1067.15 1713.3 1112.61C1703.15 1158.07 1731.87 1203.32 1777.34 1213.46C1822.8 1223.6 1868.04 1194.87 1878.19 1149.41C1883.1 1127.39 1879.15 1104.77 1867.05 1085.72C1857.22 1070.24 1842.96 1058.63 1826.14 1052.18Z" fill="#91B3FA"/>
<path d="M1701.42 1383.28C1692.8 1379.98 1684.31 1376.22 1675.96 1372.02C1673.33 1370.69 1670.72 1369.32 1668.14 1367.92C1655.39 1360.97 1643.22 1353.02 1631.81 1344.19C1631.66 1344.07 1631.5 1343.95 1631.34 1343.83C1630.9 1343.49 1630.47 1343.15 1630.03 1342.8C1629.17 1342.13 1628.32 1341.45 1627.48 1340.77C1625.26 1338.97 1624.54 1336.01 1625.51 1333.47C1625.75 1332.86 1626.08 1332.27 1626.52 1331.73C1628.74 1328.97 1632.79 1328.55 1635.55 1330.77C1649.76 1342.24 1665.3 1352.25 1681.74 1360.54C1763.39 1401.71 1856.77 1395.23 1930.08 1351.64C1970.86 1327.4 2005.43 1291.66 2028.32 1246.25C2032.34 1238.28 2035.92 1230.17 2039.07 1221.96C2060.24 1166.67 2061.75 1106.28 2042.96 1049.29C2021.37 983.825 1975.58 930.687 1914.03 899.665C1786.91 835.607 1631.49 886.897 1567.45 1013.95C1563.5 1021.79 1559.96 1029.79 1556.85 1037.93C1543.34 1073.2 1537.7 1111.04 1540.47 1148.74C1540.54 1149.71 1540.39 1150.65 1540.06 1151.51C1539.2 1153.76 1537.09 1155.43 1534.53 1155.62C1530.99 1155.87 1527.9 1153.23 1527.65 1149.68C1524.75 1110.09 1530.66 1070.37 1544.84 1033.34C1548.11 1024.8 1551.83 1016.4 1555.97 1008.17C1623.2 874.773 1786.46 820.977 1919.81 888.186C1984.43 920.754 2032.5 976.539 2055.16 1045.26C2074.89 1105.09 2073.31 1168.49 2051.08 1226.53C2047.77 1235.16 2044.01 1243.67 2039.8 1252.03C2007.23 1316.65 1951.44 1364.72 1882.72 1387.38C1822.89 1407.11 1759.47 1405.52 1701.42 1383.28Z" fill="#91B3FA"/>
<path d="M3188.36 1373.63C3191.28 1376.54 3192.07 1381.13 3190 1384.93C3186.13 1392.04 3182 1399.13 3177.71 1406C3174.93 1410.46 3169.05 1411.82 3164.58 1409.04C3160.1 1406.26 3158.76 1400.37 3161.54 1395.91C3165.63 1389.36 3169.57 1382.61 3173.26 1375.82C3175.77 1371.2 3181.55 1369.49 3186.18 1372C3187 1372.45 3187.73 1373 3188.36 1373.63Z" fill="#91B3FA"/>
<path d="M3147.57 1434.55C3150.99 1437.96 3151.35 1443.47 3148.24 1447.3C3139.46 1458.12 3130.02 1468.6 3120.19 1478.47C3118.12 1480.54 3116.03 1482.6 3113.9 1484.65C3110.1 1488.3 3104.01 1487.84 3100.42 1484.4C3096.77 1480.6 3096.89 1474.57 3100.67 1470.92C3102.71 1468.97 3104.71 1467 3106.69 1465.01C3116.07 1455.6 3125.07 1445.6 3133.44 1435.29C3136.76 1431.2 3142.76 1430.58 3146.85 1433.89C3147.1 1434.11 3147.34 1434.32 3147.57 1434.55ZM3076.26 1503.16C3076.58 1503.48 3076.89 1503.82 3077.17 1504.19C3080.33 1508.4 3079.48 1514.38 3075.27 1517.54C3061.77 1527.69 3047.52 1537.08 3032.92 1545.46C3028.36 1548.09 3022.53 1546.48 3019.91 1541.95C3017.29 1537.38 3018.86 1531.56 3023.43 1528.94C3037.36 1520.94 3050.95 1511.97 3063.82 1502.3C3067.66 1499.42 3072.96 1499.87 3076.26 1503.16ZM2990.44 1552.42C2991.3 1553.28 2992.01 1554.31 2992.51 1555.49C2994.54 1560.34 2992.25 1565.93 2987.4 1567.96C2971.84 1574.47 2955.71 1580.09 2939.45 1584.63C2934.38 1586.06 2929.13 1583.1 2927.71 1578.02C2926.29 1572.95 2929.25 1567.69 2934.32 1566.28C2949.82 1561.94 2965.2 1556.59 2980.03 1550.38C2983.7 1548.85 2987.79 1549.78 2990.44 1552.42ZM2895.14 1579.08C2896.54 1580.48 2897.51 1582.31 2897.83 1584.41C2898.61 1589.61 2895.03 1594.47 2889.82 1595.25C2873.11 1597.76 2856.11 1599.26 2839.27 1599.69C2834.01 1599.82 2829.64 1595.65 2829.5 1590.4C2829.37 1585.14 2833.52 1580.77 2838.79 1580.63C2854.84 1580.22 2871.06 1578.8 2886.99 1576.4C2890.09 1575.94 2893.07 1577.03 2895.14 1579.08ZM2796.21 1581.66C2798.16 1583.6 2799.26 1586.38 2798.97 1589.34C2798.47 1594.57 2793.81 1598.41 2788.57 1597.9C2771.78 1596.27 2754.93 1593.59 2738.49 1589.93C2733.34 1588.79 2730.11 1583.69 2731.25 1578.55C2732.4 1573.42 2737.49 1570.18 2742.62 1571.32C2758.31 1574.81 2774.39 1577.37 2790.41 1578.93C2792.69 1579.15 2794.71 1580.16 2796.21 1581.66ZM2699.67 1560.15C2702.2 1562.67 2703.2 1566.52 2701.92 1570.11C2700.16 1575.06 2694.71 1577.65 2689.75 1575.88C2673.86 1570.22 2658.17 1563.51 2643.13 1555.94C2638.43 1553.55 2636.54 1547.84 2638.91 1543.14C2641.27 1538.44 2647.01 1536.54 2651.7 1538.91C2666.05 1546.13 2681 1552.53 2696.15 1557.93C2697.52 1558.41 2698.71 1559.19 2699.67 1560.15ZM2611.35 1515.7C2614.51 1518.85 2615.11 1523.9 2612.53 1527.75C2609.6 1532.12 2603.68 1533.29 2599.31 1530.36C2585.34 1521 2571.77 1510.64 2558.99 1499.57C2555.06 1496.05 2554.58 1490.1 2558.03 1486.12C2561.47 1482.14 2567.49 1481.71 2571.47 1485.16C2583.66 1495.73 2596.6 1505.61 2609.92 1514.53C2610.44 1514.88 2610.92 1515.27 2611.35 1515.7ZM2505.67 1412.12C2506.06 1412.51 2506.42 1412.94 2506.75 1413.41C2514.73 1424.79 2523.47 1435.93 2532.73 1446.52C2534.13 1448.13 2535.51 1449.7 2536.92 1451.25C2540.45 1455.16 2540.15 1461.18 2536.24 1464.71C2532.34 1468.25 2526.18 1468.03 2522.78 1464.04C2521.29 1462.38 2519.81 1460.72 2518.35 1459.03C2508.67 1447.96 2499.51 1436.28 2491.15 1424.35C2488.13 1420.04 2489.17 1414.1 2493.48 1411.08C2497.32 1408.39 2502.46 1408.92 2505.67 1412.12Z" fill="#91B3FA"/>
<path d="M3114.85 892.686C3118.53 896.358 3118.59 902.327 3114.95 906.075C3111.29 909.849 3105.25 909.943 3101.48 906.274C3090.11 895.236 3077.97 884.798 3065.4 875.252C3061.26 872.051 3060.38 866.091 3063.57 861.896C3066.76 857.701 3072.73 856.89 3076.93 860.068C3090.11 870.087 3102.84 881.023 3114.75 892.594C3114.78 892.624 3114.82 892.657 3114.85 892.686ZM3147.73 928.689C3147.97 928.932 3148.2 929.185 3148.42 929.458C3158.86 942.354 3168.61 956.018 3177.43 970.065C3180.22 974.528 3178.88 980.404 3174.42 983.199C3169.95 986.005 3164.07 984.621 3161.28 980.196C3152.87 966.79 3143.56 953.753 3133.6 941.443C3130.29 937.355 3130.92 931.352 3135.01 928.044C3138.84 924.948 3144.32 925.299 3147.73 928.689ZM3037.33 833.853C3040.33 836.835 3041.07 841.566 3038.84 845.393C3036.2 849.936 3030.37 851.483 3025.82 848.839C3012.11 840.878 2997.8 833.682 2983.29 827.457C2978.45 825.357 2976.21 819.777 2978.29 814.939C2980.36 810.105 2985.97 807.863 2990.81 809.937C3006.02 816.464 3021.02 824.011 3035.39 832.361C3036.12 832.786 3036.77 833.288 3037.33 833.853ZM3199.4 1011.21C3200.17 1011.97 3200.82 1012.88 3201.31 1013.92C3208.35 1028.96 3214.52 1044.59 3219.66 1060.36C3221.3 1065.37 3218.56 1070.74 3213.56 1072.38C3208.56 1074 3203.18 1071.27 3201.54 1066.27C3196.64 1051.23 3190.75 1036.34 3184.05 1022C3181.82 1017.23 3183.87 1011.55 3188.64 1009.33C3192.37 1007.59 3196.65 1008.46 3199.4 1011.21ZM2947.91 795.507C2950.3 797.888 2951.35 801.469 2950.34 804.93C2948.86 809.99 2943.57 812.889 2938.52 811.418C2923.34 806.987 2907.73 803.443 2892.11 800.889C2886.91 800.04 2883.39 795.134 2884.25 789.939C2885.1 784.745 2890 781.222 2895.19 782.074C2911.57 784.762 2927.94 788.473 2943.86 793.113C2945.44 793.576 2946.82 794.42 2947.91 795.507ZM2851.89 779.731C2853.72 781.554 2854.8 784.106 2854.69 786.883C2854.47 792.142 2850.03 796.23 2844.77 796.009C2828.92 795.348 2812.91 795.641 2797.16 796.877C2791.91 797.291 2787.32 793.365 2786.91 788.123C2786.5 782.876 2790.42 778.292 2795.66 777.88C2812.17 776.58 2828.96 776.269 2845.56 776.962C2848.04 777.067 2850.26 778.109 2851.89 779.731ZM2754.84 787.414C2756.13 788.695 2757.07 790.351 2757.45 792.269C2758.5 797.427 2755.16 802.458 2750 803.504C2734.46 806.642 2718.99 810.771 2704 815.77C2699.02 817.425 2693.61 814.733 2691.95 809.741C2690.29 804.746 2692.98 799.352 2697.98 797.684C2713.69 792.449 2729.93 788.115 2746.22 784.814C2749.47 784.159 2752.66 785.24 2754.84 787.414Z" fill="#91B3FA"/>
<path d="M3229.7 1104.2C3231 1105.5 3231.94 1107.19 3232.32 1109.13C3233.88 1117.13 3235.21 1125.22 3236.28 1133.17C3236.97 1138.38 3233.31 1143.19 3228.1 1143.89C3222.89 1144.57 3218.09 1140.92 3217.38 1135.71C3216.37 1128.13 3215.1 1120.41 3213.61 1112.77C3212.6 1107.6 3215.98 1102.6 3221.14 1101.59C3224.37 1100.97 3227.53 1102.04 3229.7 1104.2Z" fill="#91B3FA"/>
<path d="M3137.19 1185.83C3137.39 1183.78 3136.27 1181.83 3134.4 1180.97L3081.04 1156.42C3077.46 1129.23 3069.52 1102.41 3057.08 1077.06L3087.88 1027.1C3088.97 1025.35 3088.81 1023.1 3087.51 1021.51L3042.87 967.007C3041.56 965.414 3039.39 964.825 3037.46 965.538L2982.41 985.899C2960.01 968.717 2935.28 955.647 2909.32 946.78L2895.77 889.631C2895.29 887.628 2893.6 886.147 2891.55 885.943L2821.44 878.973C2819.39 878.77 2817.44 879.888 2816.58 881.758L2792.03 935.117C2764.84 938.698 2738.02 946.643 2712.68 959.079L2662.71 928.276C2660.96 927.196 2658.71 927.346 2657.12 928.65L2602.62 973.295C2601.02 974.6 2600.44 976.772 2601.15 978.702L2621.51 1033.75C2604.33 1056.15 2591.26 1080.88 2582.39 1106.84L2525.24 1120.4C2523.24 1120.87 2521.76 1122.57 2521.56 1124.61L2514.59 1194.72C2514.38 1196.77 2515.5 1198.72 2517.37 1199.58L2570.73 1224.13C2574.31 1251.32 2582.26 1278.14 2594.69 1303.48L2563.89 1353.45C2562.81 1355.2 2562.96 1357.45 2564.26 1359.04L2608.91 1413.54C2610.21 1415.14 2612.38 1415.73 2614.32 1415.01L2669.37 1394.65C2691.77 1411.83 2716.5 1424.9 2742.45 1433.77L2756.01 1490.92C2756.49 1492.92 2758.18 1494.4 2760.23 1494.61L2830.34 1501.58C2832.38 1501.78 2834.34 1500.66 2835.2 1498.79L2859.75 1445.43C2886.94 1441.85 2913.76 1433.91 2939.1 1421.47L2989.07 1452.27C2990.82 1453.35 2993.06 1453.2 2994.66 1451.9L3049.16 1407.25C3050.75 1405.95 3051.34 1403.78 3050.63 1401.85L3030.27 1346.79C3047.45 1324.4 3060.52 1299.67 3069.38 1273.71L3126.53 1260.15C3128.54 1259.68 3130.02 1257.98 3130.22 1255.93L3137.19 1185.83Z" fill="url(#paint2_linear_1612_1664)"/>
<path d="M2876.88 1139.31C2887.77 1150.16 2894.88 1164.16 2897.19 1179.64C2900.03 1198.68 2895.28 1217.69 2883.82 1233.17C2860.18 1265.11 2814.96 1271.86 2783 1248.22C2751.05 1224.48 2744.3 1179.33 2767.95 1147.39C2779.4 1131.91 2796.2 1121.82 2815.24 1118.98C2834.29 1116.13 2853.3 1120.87 2868.78 1132.34C2871.67 1134.48 2874.38 1136.81 2876.88 1139.31ZM2788.44 1227.82C2790.25 1229.63 2792.22 1231.33 2794.34 1232.9C2817.84 1250.29 2851.11 1245.33 2868.51 1221.83C2876.93 1210.44 2880.43 1196.46 2878.33 1182.45C2876.24 1168.44 2868.81 1156.1 2857.44 1147.65C2846.05 1139.23 2832.06 1135.74 2818.06 1137.83C2804.05 1139.92 2791.69 1147.34 2783.26 1158.73C2767.44 1180.1 2770.12 1209.58 2788.44 1227.82Z" fill="#91B3FA"/>
<path d="M2951.01 1062.97C2955.28 1067.22 2959.37 1071.73 2963.27 1076.49C2971.02 1085.94 2977.82 1096.19 2983.48 1106.98C2983.73 1107.47 2983.98 1107.96 2984.23 1108.44C2986.17 1112.21 2985.35 1116.66 2982.51 1119.52C2981.83 1120.21 2981.01 1120.8 2980.1 1121.27C2975.42 1123.68 2969.69 1121.81 2967.28 1117.14C2962.08 1107.02 2955.77 1097.41 2948.53 1088.57L2948.53 1088.57C2948.13 1088.09 2947.73 1087.6 2947.33 1087.13C2930 1066.38 2908.15 1050.74 2883.66 1041.05C2870.37 1035.8 2856.29 1032.3 2841.71 1030.72C2841.59 1030.71 2841.47 1030.69 2841.36 1030.68C2840.99 1030.64 2840.63 1030.6 2840.27 1030.57C2797.62 1026.33 2755.86 1038.95 2722.71 1066.11C2718.41 1069.63 2714.33 1073.33 2710.47 1077.21C2684.49 1103.29 2668.4 1137.24 2664.71 1174.38C2660.47 1217.03 2673.09 1258.78 2700.25 1291.93C2727.41 1325.06 2765.86 1345.68 2808.51 1349.93C2851.17 1354.17 2892.92 1341.55 2926.08 1314.39C2930.3 1310.94 2934.33 1307.28 2938.15 1303.44C2954.73 1286.79 2967.47 1266.71 2975.41 1244.59C2975.9 1243.22 2976.66 1242.04 2977.63 1241.08C2980.15 1238.55 2984.01 1237.55 2987.59 1238.84C2992.54 1240.63 2995.13 1246.07 2993.35 1251.03C2984.46 1275.79 2970.2 1298.26 2951.66 1316.88C2947.38 1321.18 2942.88 1325.27 2938.16 1329.13C2901.06 1359.52 2854.35 1373.64 2806.62 1368.9C2758.91 1364.15 2715.89 1341.15 2685.51 1304.01C2655.12 1266.92 2640.99 1220.21 2645.75 1172.49C2649.87 1130.94 2667.87 1092.96 2696.94 1063.78C2701.26 1059.45 2705.83 1055.3 2710.62 1051.37C2782.45 992.539 2886.6 998.796 2951.01 1062.97Z" fill="#91B3FA"/>
<path d="M605.739 1931.62C601.393 1930.32 598.236 1926.29 598.262 1921.52C598.304 1912.62 598.617 1903.59 599.194 1894.7C599.569 1888.93 604.553 1884.55 610.337 1884.92C616.126 1885.27 620.495 1890.28 620.121 1896.06C619.572 1904.53 619.273 1913.13 619.231 1921.63C619.206 1927.41 614.487 1932.08 608.695 1932.06C607.666 1932.05 606.677 1931.9 605.739 1931.62Z" fill="#91B3FA"/>
<path d="M613.533 1851.33C608.441 1849.81 605.227 1844.65 606.248 1839.32C609.122 1824.27 612.805 1809.19 617.191 1794.51C618.114 1791.42 619.076 1788.33 620.069 1785.24C621.851 1779.72 627.988 1776.99 633.267 1778.46C638.78 1780.24 641.808 1786.14 640.039 1791.65C639.087 1794.61 638.167 1797.56 637.284 1800.51C633.1 1814.51 629.588 1828.9 626.843 1843.25C625.757 1848.94 620.267 1852.67 614.579 1851.59C614.222 1851.52 613.872 1851.43 613.533 1851.33ZM646.905 1747.7C646.43 1747.56 645.952 1747.38 645.492 1747.17C640.235 1744.73 637.945 1738.5 640.376 1733.24C648.173 1716.38 657.089 1699.85 666.869 1684.12C669.926 1679.2 676.413 1677.72 681.31 1680.75C686.23 1683.82 687.736 1690.27 684.679 1695.19C675.348 1710.2 666.847 1725.97 659.407 1742.05C657.192 1746.84 651.821 1749.17 646.905 1747.7ZM704.411 1655.25C703.136 1654.87 701.915 1654.24 700.815 1653.36C696.315 1649.71 695.627 1643.11 699.27 1638.6C710.95 1624.19 723.659 1610.35 737.05 1597.47C741.228 1593.45 747.848 1593.58 751.876 1597.77C755.888 1601.94 755.758 1608.58 751.588 1612.59C738.819 1624.87 726.701 1638.06 715.565 1651.81C712.809 1655.21 708.361 1656.43 704.411 1655.25ZM782.888 1579.77C780.807 1579.15 778.907 1577.88 777.503 1576.01C774.036 1571.38 774.981 1564.8 779.619 1561.33C794.505 1550.2 810.205 1539.89 826.299 1530.7C831.33 1527.84 837.734 1529.6 840.601 1534.61C843.476 1539.64 841.728 1546.04 836.695 1548.92C821.356 1557.68 806.373 1567.51 792.183 1578.12C789.415 1580.19 785.963 1580.69 782.888 1579.77ZM877.417 1525.75C874.512 1524.88 872.003 1522.76 870.74 1519.74C868.505 1514.4 871.024 1508.26 876.363 1506.02C893.488 1498.86 911.215 1492.68 929.054 1487.66C934.635 1486.08 940.422 1489.34 941.988 1494.92C943.554 1500.49 940.305 1506.29 934.735 1507.85C917.711 1512.64 900.802 1518.53 884.464 1525.37C882.138 1526.34 879.658 1526.42 877.417 1525.75ZM982.18 1496.31C978.417 1495.18 975.443 1491.97 974.811 1487.83C973.94 1482.11 977.877 1476.77 983.6 1475.89C1001.95 1473.1 1020.65 1471.43 1039.17 1470.94C1044.97 1470.8 1049.77 1475.36 1049.93 1481.14C1050.09 1486.93 1045.52 1491.75 1039.73 1491.9C1022.07 1492.38 1004.25 1493.96 986.754 1496.62C985.17 1496.87 983.618 1496.73 982.18 1496.31ZM1090.93 1493.37C1086.22 1491.97 1083.01 1487.38 1083.51 1482.32C1084.07 1476.55 1089.2 1472.34 1094.96 1472.89C1113.38 1474.69 1131.92 1477.66 1150.08 1481.73C1155.72 1483.1 1159.28 1488.62 1158.01 1494.27C1156.75 1499.92 1151.14 1503.47 1145.49 1502.2C1128.17 1498.31 1110.48 1495.48 1092.93 1493.77C1092.24 1493.7 1091.57 1493.56 1090.93 1493.37ZM1247.3 1538.71C1246.72 1538.54 1246.14 1538.31 1245.58 1538.02C1231.92 1531.15 1217.65 1524.91 1203.15 1519.47C1200.96 1518.63 1198.8 1517.84 1196.64 1517.07C1191.18 1515.12 1188.33 1509.13 1190.28 1503.67C1192.22 1498.2 1198.3 1495.21 1203.67 1497.31C1205.98 1498.14 1208.28 1498.97 1210.58 1499.85C1225.72 1505.54 1240.68 1512.09 1255 1519.29C1260.18 1521.9 1262.26 1528.2 1259.66 1533.37C1257.34 1537.98 1252.08 1540.14 1247.3 1538.71Z" fill="#91B3FA"/>
<path d="M927.497 2359.42C922.013 2357.78 918.848 2352.03 920.419 2346.5C922.002 2340.93 927.805 2337.7 933.373 2339.29C950.141 2344.06 967.342 2347.86 984.5 2350.56C990.176 2351.5 994.133 2356.82 993.228 2362.55C992.325 2368.27 986.954 2372.17 981.237 2371.28C963.245 2368.43 945.21 2364.47 927.634 2359.46C927.59 2359.45 927.541 2359.43 927.497 2359.42ZM876.879 2341.65C876.515 2341.55 876.164 2341.42 875.808 2341.27C858.974 2334.21 842.4 2326.05 826.543 2317.03C821.512 2314.16 819.752 2307.76 822.618 2302.73C825.482 2297.69 831.907 2295.96 836.918 2298.79C852.048 2307.41 867.864 2315.19 883.925 2321.94C889.264 2324.17 891.776 2330.32 889.535 2335.66C887.439 2340.65 881.942 2343.17 876.879 2341.65ZM1033.26 2376.06C1028.81 2374.73 1025.63 2370.53 1025.79 2365.66C1025.98 2359.88 1030.83 2355.35 1036.61 2355.54C1054.05 2356.11 1071.66 2355.63 1088.97 2354.1C1094.76 2353.62 1099.83 2357.86 1100.33 2363.63C1100.84 2369.4 1096.58 2374.49 1090.81 2375C1072.66 2376.6 1054.2 2377.1 1035.92 2376.49C1034.99 2376.46 1034.1 2376.31 1033.26 2376.06ZM783.813 2288.6C782.671 2288.26 781.567 2287.72 780.552 2286.96C765.9 2276.06 751.775 2264.13 738.578 2251.52C734.388 2247.52 734.238 2240.88 738.238 2236.69C742.231 2232.52 748.871 2232.36 753.06 2236.35C765.648 2248.37 779.112 2259.74 793.08 2270.14C797.722 2273.6 798.685 2280.18 795.226 2284.82C792.521 2288.45 787.914 2289.83 783.813 2288.6ZM1139.9 2366.64C1136.34 2365.58 1133.46 2362.66 1132.64 2358.78C1131.43 2353.1 1135.05 2347.54 1140.71 2346.33C1157.73 2342.72 1174.71 2338.02 1191.17 2332.36C1196.66 2330.48 1202.62 2333.4 1204.5 2338.88C1206.38 2344.36 1203.46 2350.32 1197.98 2352.2C1180.72 2358.13 1162.92 2363.06 1145.08 2366.85C1143.3 2367.23 1141.52 2367.13 1139.9 2366.64ZM1241.17 2331.91C1238.45 2331.1 1236.07 2329.19 1234.73 2326.44C1232.21 2321.23 1234.38 2314.95 1239.59 2312.43C1255.29 2304.82 1270.66 2296.19 1285.28 2286.79C1290.15 2283.66 1296.64 2285.07 1299.77 2289.94C1302.9 2294.81 1301.49 2301.29 1296.63 2304.42C1281.3 2314.28 1265.19 2323.33 1248.74 2331.3C1246.29 2332.49 1243.6 2332.64 1241.17 2331.91ZM1331.22 2273.92C1329.31 2273.35 1327.53 2272.23 1326.16 2270.57C1322.46 2266.12 1323.08 2259.51 1327.53 2255.81C1340.95 2244.67 1353.8 2232.61 1365.72 2219.96C1369.69 2215.76 1376.33 2215.55 1380.54 2219.52C1384.75 2223.5 1384.95 2230.13 1380.98 2234.35C1368.48 2247.61 1355 2260.26 1340.93 2271.95C1338.12 2274.28 1334.47 2274.89 1331.22 2273.92Z" fill="#91B3FA"/>
<path d="M706.017 2214.26C704.079 2213.68 702.289 2212.54 700.911 2210.85C695.227 2203.91 689.727 2196.76 684.552 2189.61C681.16 2184.92 682.206 2178.36 686.898 2174.97C691.589 2171.59 698.14 2172.63 701.544 2177.31C706.475 2184.13 711.726 2190.95 717.146 2197.58C720.813 2202.06 720.147 2208.67 715.666 2212.33C712.867 2214.62 709.24 2215.22 706.017 2214.26Z" fill="#91B3FA"/>
<path d="M753.15 2086.97C754.019 2089.06 756.12 2090.37 758.381 2090.23L822.88 2086.22C840.517 2110.71 862.185 2132.56 887.437 2150.65L883.613 2215.11C883.478 2217.37 884.794 2219.47 886.887 2220.33L958.541 2249.9C960.636 2250.76 963.047 2250.2 964.546 2248.51L1007.29 2200.1C1037.95 2205.08 1068.72 2204.87 1098.5 2199.94L1141.4 2248.26C1142.91 2249.96 1145.32 2250.51 1147.41 2249.64L1218.99 2219.88C1221.08 2219.01 1222.39 2216.91 1222.25 2214.65L1218.24 2150.15C1242.73 2132.51 1264.59 2110.84 1282.67 2085.59L1347.13 2089.42C1349.4 2089.55 1351.49 2088.24 1352.36 2086.14L1381.92 2014.49C1382.79 2012.39 1382.23 2009.98 1380.53 2008.48L1332.12 1965.73C1337.11 1935.08 1336.89 1904.31 1331.96 1874.53L1380.29 1831.62C1381.98 1830.12 1382.53 1827.71 1381.66 1825.62L1351.9 1754.04C1351.03 1751.95 1348.93 1750.64 1346.67 1750.78L1282.17 1754.79C1264.53 1730.3 1242.86 1708.45 1217.61 1690.36L1221.44 1625.89C1221.57 1623.63 1220.26 1621.54 1218.16 1620.67L1146.51 1591.11C1144.41 1590.24 1142 1590.8 1140.5 1592.5L1097.76 1640.91C1067.1 1635.92 1036.33 1636.14 1006.55 1641.07L963.646 1592.75C962.142 1591.05 959.728 1590.5 957.637 1591.37L886.064 1621.13C883.973 1622 882.663 1624.1 882.803 1626.36L886.808 1690.86C862.319 1708.5 840.466 1730.17 822.385 1755.42L757.916 1751.59C755.657 1751.46 753.558 1752.77 752.695 1754.87L723.13 1826.52C722.266 1828.62 722.826 1831.03 724.523 1832.53L772.931 1875.27C767.946 1905.93 768.16 1936.7 773.087 1966.48L724.766 2009.38C723.072 2010.89 722.52 2013.3 723.388 2015.39L753.15 2086.97Z" fill="url(#paint3_linear_1612_1664)"/>
<path d="M1029.65 1996.46C1013.45 1991.62 999.273 1981.75 988.969 1967.95C976.295 1950.98 970.992 1930.08 974.035 1909.11C980.306 1865.84 1020.62 1835.74 1063.91 1842.01C1107.24 1848.37 1137.3 1888.61 1131.02 1931.89C1127.98 1952.86 1116.95 1971.39 1099.98 1984.06C1083 1996.74 1062.11 2002.04 1041.13 1998.99C1037.22 1998.42 1033.38 1997.57 1029.65 1996.46ZM1069.26 1864.61C1066.56 1863.8 1063.77 1863.18 1060.9 1862.76C1029.06 1858.15 999.404 1880.29 994.786 1912.13C992.552 1927.55 996.448 1942.93 1005.77 1955.41C1015.1 1967.9 1028.73 1975.99 1044.15 1978.24C1059.57 1980.48 1074.95 1976.58 1087.43 1967.26C1099.92 1957.93 1108.03 1944.3 1110.27 1928.87C1114.47 1899.92 1096.51 1872.75 1069.26 1864.61Z" fill="#91B3FA"/>
<path d="M997.581 2109.05C991.223 2107.15 984.914 2104.92 978.651 2102.34C966.219 2097.21 954.296 2090.82 943.187 2083.31C942.69 2082.97 942.194 2082.63 941.697 2082.29C937.859 2079.64 936.332 2074.9 937.593 2070.66C937.901 2069.63 938.376 2068.63 939.017 2067.7C942.302 2062.93 948.829 2061.76 953.598 2065.02C963.904 2072.13 975.023 2078.16 986.642 2082.95L986.647 2082.95C987.284 2083.21 987.928 2083.47 988.564 2083.72C1016.17 2094.8 1045.48 2098.58 1074.26 2095.21C1089.88 2093.38 1105.35 2089.43 1120.3 2083.37C1120.42 2083.32 1120.55 2083.28 1120.67 2083.23C1121.04 2083.07 1121.41 2082.92 1121.78 2082.77C1165.32 2064.66 1199.21 2030.68 1217.2 1987.08C1219.53 1981.44 1221.55 1975.73 1223.27 1969.96C1234.87 1931.15 1232.77 1889.87 1217.01 1851.95C1198.9 1808.41 1164.92 1774.53 1121.33 1756.54C1077.76 1738.59 1029.75 1738.62 986.201 1756.72C942.658 1774.83 908.768 1808.81 890.782 1852.41C888.489 1857.95 886.492 1863.6 884.786 1869.31C877.391 1894.07 875.497 1920.17 879.332 1945.75C879.567 1947.33 879.442 1948.87 879.009 1950.3C877.883 1954.07 874.667 1957.05 870.517 1957.67C864.788 1958.51 859.451 1954.59 858.591 1948.85C854.302 1920.23 856.42 1891.02 864.686 1863.32C866.597 1856.93 868.83 1850.62 871.39 1844.41C891.518 1795.63 929.43 1757.62 978.152 1737.36C1026.87 1717.11 1080.54 1716.99 1129.33 1737.15C1178.1 1757.27 1216.12 1795.18 1236.37 1843.91C1254.01 1886.32 1256.35 1932.5 1243.38 1975.93C1241.45 1982.37 1239.19 1988.77 1236.59 1995.08C1197.62 2089.51 1093.43 2137.69 997.581 2109.05Z" fill="#91B3FA"/>
<path d="M1760.14 2555.79C1752.26 2556.49 1744.96 2551.14 1743.41 2543.2C1740 2525.84 1737.31 2508.08 1735.39 2490.4C1734.46 2481.8 1740.67 2474.07 1749.27 2473.14C1749.37 2473.13 1749.47 2473.12 1749.57 2473.11C1758.05 2472.36 1765.61 2478.52 1766.53 2487.02C1768.35 2503.81 1770.91 2520.69 1774.14 2537.18C1775.8 2545.66 1770.27 2553.89 1761.78 2555.55C1761.23 2555.66 1760.69 2555.74 1760.14 2555.79ZM1749.03 2419.82C1748.42 2419.88 1747.79 2419.9 1747.17 2419.88C1738.52 2419.63 1731.71 2412.42 1731.96 2403.78C1732.47 2386.02 1733.75 2368.11 1735.76 2350.55C1736.74 2341.95 1744.46 2335.8 1753.09 2336.76C1761.68 2337.74 1767.85 2345.51 1766.87 2354.09C1764.96 2370.79 1763.75 2387.8 1763.27 2404.68C1763.04 2412.7 1756.82 2419.13 1749.03 2419.82ZM1768.12 2284.79C1766.38 2284.95 1764.59 2284.81 1762.8 2284.35C1754.43 2282.18 1749.4 2273.64 1751.57 2265.27C1756.01 2248.11 1761.25 2230.92 1767.15 2214.2C1770.03 2206.04 1778.98 2201.77 1787.13 2204.64C1795.28 2207.52 1799.56 2216.46 1796.68 2224.62C1791.08 2240.5 1786.1 2256.81 1781.89 2273.11C1780.18 2279.7 1774.53 2284.22 1768.12 2284.79ZM1816.94 2157.4C1814.07 2157.65 1811.09 2157.12 1808.35 2155.69C1800.67 2151.71 1797.68 2142.26 1801.66 2134.58C1809.84 2118.84 1818.79 2103.26 1828.27 2088.28C1832.89 2080.98 1842.56 2078.8 1849.87 2083.42C1857.18 2088.04 1859.35 2097.72 1854.73 2105.02C1845.73 2119.25 1837.22 2134.05 1829.46 2149.01C1826.9 2153.94 1822.09 2156.94 1816.94 2157.4ZM1892.94 2044.09C1888.91 2044.44 1884.75 2043.26 1881.43 2040.44C1874.83 2034.85 1874.01 2024.97 1879.59 2018.37C1891.03 2004.87 1903.2 1991.66 1915.78 1979.13C1921.9 1973.02 1931.81 1973.03 1937.92 1979.16C1944.03 1985.28 1944.01 1995.2 1937.89 2001.31C1925.93 2013.22 1914.36 2025.77 1903.5 2038.61C1900.72 2041.88 1896.9 2043.73 1892.94 2044.09ZM1992.1 1950.42C1986.89 1950.88 1981.57 1948.73 1978.19 1944.24C1972.99 1937.33 1974.37 1927.52 1981.28 1922.31C1995.44 1911.65 2010.23 1901.47 2025.25 1892.04C2032.58 1887.45 2042.24 1889.66 2046.84 1896.99C2051.43 1904.31 2049.22 1913.98 2041.9 1918.57C2027.63 1927.53 2013.57 1937.2 2000.12 1947.33C1997.69 1949.16 1994.92 1950.17 1992.1 1950.42ZM2560.32 1862.28C2558.16 1862.47 2555.93 1862.22 2553.75 1861.45C2537.87 1855.88 2521.54 1850.93 2505.21 1846.74C2496.83 1844.59 2491.78 1836.05 2493.94 1827.68C2496.08 1819.3 2504.62 1814.25 2513 1816.4C2530.2 1820.82 2547.4 1826.03 2564.12 1831.9C2572.28 1834.76 2576.57 1843.7 2573.71 1851.86C2571.61 1857.85 2566.24 1861.75 2560.32 1862.28ZM2109.49 1881.1C2103.02 1881.68 2096.61 1878.16 2093.8 1871.9C2090.27 1864 2093.8 1854.74 2101.69 1851.21C2117.87 1843.96 2134.56 1837.33 2151.3 1831.5C2159.48 1828.69 2168.39 1832.97 2171.24 1841.14C2174.08 1849.3 2169.77 1858.23 2161.6 1861.08C2145.7 1866.61 2129.86 1872.91 2114.49 1879.79C2112.86 1880.52 2111.17 1880.95 2109.49 1881.1ZM2427.33 1831.91C2426.3 1832 2425.25 1832 2424.18 1831.88C2407.45 1830 2390.42 1828.82 2373.56 1828.37C2364.91 1828.13 2358.09 1820.94 2358.32 1812.3C2358.56 1803.65 2365.75 1796.79 2374.4 1797.06C2392.14 1797.54 2410.06 1798.78 2427.67 1800.75C2436.26 1801.72 2442.45 1809.47 2441.48 1818.06C2440.64 1825.58 2434.59 1831.26 2427.33 1831.91ZM2239.41 1839.74C2231.54 1840.44 2224.24 1835.11 2222.68 1827.18C2221 1818.7 2226.51 1810.46 2235 1808.78C2252.37 1805.34 2270.12 1802.61 2287.76 1800.67C2287.87 1800.65 2287.98 1800.64 2288.09 1800.63C2296.56 1799.88 2304.11 1806.02 2305.04 1814.51C2305.99 1823.11 2299.8 1830.84 2291.2 1831.79C2274.44 1833.64 2257.58 1836.24 2241.07 1839.5C2240.52 1839.61 2239.96 1839.69 2239.41 1839.74Z" fill="#91B3FA"/>
<path d="M2660.35 1907.93C2657.28 1908.2 2654.09 1907.58 2651.21 1905.93C2644.2 1901.93 2636.99 1898.01 2629.78 1894.27C2622.1 1890.29 2619.1 1880.84 2623.07 1873.16C2627.05 1865.48 2636.51 1862.47 2644.18 1866.46C2651.77 1870.39 2659.35 1874.52 2666.73 1878.73C2674.24 1883.02 2676.86 1892.58 2672.57 1900.09C2669.93 1904.72 2665.28 1907.49 2660.35 1907.93Z" fill="#91B3FA"/>
<path d="M2949.64 2287.7C2942.11 2288.37 2935 2283.5 2933.08 2275.94C2931.1 2268.12 2928.92 2260.2 2926.61 2252.42C2924.14 2244.13 2928.86 2235.41 2937.15 2232.94C2945.48 2230.47 2954.16 2235.2 2956.63 2243.49C2959.06 2251.68 2961.36 2260.02 2963.44 2268.26C2965.56 2276.64 2960.49 2285.16 2952.1 2287.28C2951.28 2287.49 2950.45 2287.63 2949.64 2287.7Z" fill="#91B3FA"/>
<path d="M2413.34 3045.18C2406.17 3045.82 2398.95 3046.34 2391.7 3046.74C2383.07 3047.22 2375.68 3040.6 2375.2 3031.97C2374.72 3023.34 2381.37 3015.91 2389.97 3015.46C2406.7 3014.54 2423.36 3012.93 2439.67 3010.67C2448.24 3009.49 2456.14 3015.45 2457.33 3024.02C2458.52 3032.59 2452.54 3040.5 2443.98 3041.69C2433.89 3043.09 2423.58 3044.26 2413.34 3045.18ZM2309.04 3045.66C2308.16 3045.74 2307.27 3045.74 2306.37 3045.67C2288.95 3044.27 2271.4 3042.12 2254.21 3039.27C2245.68 3037.85 2239.91 3029.79 2241.32 3021.26C2242.74 3012.73 2250.81 3006.94 2259.33 3008.37C2275.66 3011.08 2292.33 3013.12 2308.88 3014.46C2317.5 3015.15 2323.93 3022.7 2323.24 3031.32C2322.61 3039.04 2316.5 3044.99 2309.04 3045.66ZM2524.61 3024.72C2517.26 3025.37 2510.25 3020.73 2508.17 3013.37C2505.82 3005.05 2510.66 2996.4 2518.99 2994.05C2534.91 2989.56 2550.85 2984.32 2566.38 2978.47C2574.48 2975.44 2583.51 2979.53 2586.55 2987.62C2589.6 2995.72 2585.5 3004.75 2577.41 3007.79C2561.05 3013.94 2544.26 3019.46 2527.49 3024.19C2526.53 3024.46 2525.57 3024.63 2524.61 3024.72ZM2177.19 3020.22C2175.21 3020.39 2173.17 3020.19 2171.15 3019.56C2154.49 3014.38 2137.84 3008.41 2121.68 3001.84C2113.67 2998.58 2109.82 2989.45 2113.08 2981.44C2116.34 2973.43 2125.47 2969.57 2133.48 2972.84C2148.83 2979.07 2164.63 2984.74 2180.46 2989.66C2188.72 2992.23 2193.33 3001.01 2190.76 3009.27C2188.82 3015.51 2183.33 3019.67 2177.19 3020.22ZM2648.9 2974.2C2642.87 2974.74 2636.81 2971.73 2633.74 2966.06C2629.61 2958.46 2632.43 2948.95 2640.04 2944.83C2654.57 2936.95 2668.97 2928.33 2682.85 2919.22C2690.07 2914.47 2699.78 2916.48 2704.53 2923.72C2709.28 2930.95 2707.27 2940.65 2700.04 2945.4C2685.43 2954.99 2670.27 2964.06 2654.96 2972.36C2653.03 2973.41 2650.96 2974.01 2648.9 2974.2ZM2759.09 2897.63C2754.27 2898.06 2749.32 2896.26 2745.89 2892.33C2740.21 2885.81 2740.88 2875.92 2747.4 2870.24C2759.89 2859.33 2772.08 2847.77 2783.61 2835.89C2789.62 2829.67 2799.53 2829.52 2805.75 2835.55C2811.96 2841.57 2812.11 2851.48 2806.09 2857.69C2793.96 2870.2 2781.13 2882.36 2767.98 2893.83C2765.39 2896.09 2762.27 2897.35 2759.09 2897.63ZM2849.98 2798.86C2846.31 2799.19 2842.51 2798.23 2839.31 2795.88C2832.34 2790.76 2830.85 2780.95 2835.97 2773.99C2845.81 2760.61 2855.19 2746.68 2863.85 2732.57C2868.37 2725.21 2878 2722.89 2885.38 2727.42C2892.75 2731.95 2895.06 2741.58 2890.53 2748.96C2881.42 2763.8 2871.55 2778.47 2861.21 2792.54C2858.43 2796.31 2854.3 2798.48 2849.98 2798.86ZM2917.15 2682.63C2914.61 2682.86 2911.98 2682.47 2909.48 2681.37C2901.56 2677.89 2897.96 2668.66 2901.43 2660.74C2908.1 2645.55 2914.2 2629.9 2919.55 2614.23C2922.34 2606.05 2931.25 2601.68 2939.42 2604.47C2947.61 2607.27 2951.98 2616.17 2949.18 2624.35C2943.55 2640.86 2937.13 2657.33 2930.11 2673.33C2927.73 2678.75 2922.65 2682.14 2917.15 2682.63ZM2957.18 2554.44C2955.75 2554.57 2954.28 2554.5 2952.8 2554.21C2944.31 2552.57 2938.76 2544.35 2940.41 2535.86C2943.56 2519.61 2946.05 2503.02 2947.82 2486.53C2948.75 2477.93 2956.49 2471.71 2965.06 2472.63C2973.66 2473.55 2979.88 2481.28 2978.96 2489.88C2977.1 2507.24 2974.47 2524.71 2971.15 2541.81C2969.8 2548.82 2963.96 2553.84 2957.18 2554.44ZM2968.07 2420.68C2967.75 2420.71 2967.42 2420.72 2967.1 2420.73C2958.45 2420.98 2951.25 2414.16 2951.01 2405.52C2950.66 2393.32 2949.94 2380.98 2948.86 2368.85C2948.47 2364.45 2948.02 2360.07 2947.54 2355.71C2946.58 2347.12 2952.78 2339.37 2961.37 2338.42C2970.06 2337.28 2977.71 2343.66 2978.67 2352.25C2979.18 2356.84 2979.64 2361.44 2980.05 2366.06C2981.19 2378.83 2981.95 2391.81 2982.31 2404.64C2982.55 2412.96 2976.25 2419.95 2968.07 2420.68Z" fill="#91B3FA"/>
<path d="M2053.87 2966.17C2050.77 2966.45 2047.56 2965.81 2044.66 2964.14C2037.32 2959.9 2029.93 2955.42 2022.7 2950.84C2015.39 2946.21 2013.22 2936.53 2017.85 2929.23C2022.48 2921.93 2032.15 2919.75 2039.46 2924.38C2046.33 2928.74 2053.35 2932.99 2060.32 2937.02C2067.81 2941.33 2070.38 2950.91 2066.06 2958.4C2063.4 2962.99 2058.78 2965.73 2053.87 2966.17Z" fill="#91B3FA"/>
<path d="M2058.77 2783.39C2060.95 2785.62 2064.31 2786.23 2067.14 2784.89L2147.67 2746.84C2182.76 2769.19 2221.66 2786.11 2263.22 2796.37L2291.23 2880.87C2292.21 2883.83 2294.96 2885.84 2298.09 2885.88L2404.92 2887.16C2408.05 2887.19 2410.85 2885.25 2411.9 2882.31L2441.92 2798.51C2483.72 2789.24 2523.01 2773.26 2558.62 2751.75L2638.22 2791.72C2641.01 2793.12 2644.38 2792.59 2646.62 2790.41L2723.07 2715.77C2725.3 2713.59 2725.91 2710.23 2724.57 2707.41L2686.52 2626.87C2708.87 2591.79 2725.79 2552.89 2736.05 2511.33L2820.55 2483.31C2823.51 2482.33 2825.52 2479.58 2825.56 2476.46L2826.84 2369.62C2826.88 2366.5 2824.93 2363.69 2821.99 2362.64L2738.19 2332.62C2728.92 2290.82 2712.94 2251.53 2691.43 2215.93L2731.4 2136.32C2732.79 2133.53 2732.27 2130.16 2730.09 2127.92L2655.45 2051.48C2653.27 2049.24 2649.91 2048.64 2647.09 2049.97L2566.55 2088.03C2531.47 2065.67 2492.57 2048.75 2451.01 2038.49L2422.99 1954C2422.01 1951.03 2419.26 1949.02 2416.14 1948.98L2309.3 1947.71C2306.17 1947.67 2303.37 1949.62 2302.32 1952.56L2272.3 2036.36C2230.5 2045.62 2191.21 2061.61 2155.6 2083.11L2076 2043.15C2073.21 2041.75 2069.84 2042.27 2067.6 2044.45L1991.16 2119.09C1988.92 2121.27 1988.32 2124.63 1989.65 2127.46L2027.7 2207.99C2005.35 2243.08 1988.43 2281.98 1978.17 2323.54L1893.68 2351.55C1890.71 2352.53 1888.7 2355.29 1888.66 2358.41L1887.39 2465.24C1887.35 2468.37 1889.3 2471.17 1892.23 2472.22L1976.04 2502.24C1985.3 2544.04 2001.29 2583.33 2022.79 2618.94L1982.83 2698.54C1981.43 2701.33 1981.95 2704.7 1984.13 2706.94L2058.77 2783.39Z" fill="url(#paint4_linear_1612_1664)"/>
<path d="M2366.59 2524.42C2314.44 2529.07 2265.24 2494.87 2252.67 2442.48C2238.87 2384.88 2274.48 2326.81 2332.07 2313C2359.97 2306.3 2388.8 2310.88 2413.25 2325.88C2437.71 2340.87 2454.86 2364.49 2461.55 2392.39C2475.35 2449.98 2439.74 2508.06 2382.15 2521.87C2376.96 2523.11 2371.76 2523.96 2366.59 2524.42ZM2349.96 2335.39C2345.94 2335.74 2341.91 2336.4 2337.91 2337.36C2293.76 2347.94 2266.45 2392.48 2277.03 2436.63C2287.62 2480.78 2332.15 2508.11 2376.31 2497.51C2420.46 2486.92 2447.77 2442.38 2437.19 2398.24C2432.06 2376.84 2418.91 2358.73 2400.15 2347.24C2384.91 2337.89 2367.45 2333.82 2349.96 2335.39Z" fill="#91B3FA"/>
<path d="M2382.56 2678.73C2373.61 2679.53 2364.56 2679.88 2355.45 2679.77C2352.58 2679.74 2349.71 2679.66 2346.84 2679.53C2332.71 2678.91 2318.65 2677.16 2304.87 2674.32C2304.68 2674.28 2304.5 2674.24 2304.31 2674.2C2303.78 2674.09 2303.25 2673.98 2302.71 2673.86C2301.68 2673.64 2300.64 2673.41 2299.61 2673.17C2296.9 2672.56 2295 2670.26 2294.76 2667.63C2294.71 2666.99 2294.75 2666.33 2294.9 2665.67C2295.67 2662.3 2299.03 2660.2 2302.4 2660.96C2319.75 2664.92 2337.65 2667.04 2355.59 2667.25C2444.72 2668.33 2523.72 2622.66 2569.25 2553.09C2594.57 2514.39 2609.54 2468.29 2610.13 2418.72C2610.24 2410.03 2609.9 2401.39 2609.14 2392.85C2604 2335.36 2579.45 2281.84 2538.59 2239.99C2491.65 2191.91 2428.79 2164.99 2361.61 2164.19C2222.85 2162.54 2108.73 2274.02 2107.07 2412.71C2106.97 2421.26 2107.3 2429.79 2108.06 2438.25C2111.34 2474.92 2122.6 2510.47 2141.17 2542.3C2141.65 2543.12 2141.92 2544 2142 2544.89C2142.21 2547.23 2141.09 2549.6 2138.92 2550.86C2135.92 2552.59 2132.1 2551.6 2130.35 2548.6C2110.86 2515.19 2099.02 2477.87 2095.58 2439.37C2094.79 2430.49 2094.44 2421.54 2094.54 2412.57C2096.28 2266.96 2216.2 2149.92 2361.76 2151.66C2432.29 2152.5 2498.27 2180.76 2547.55 2231.23C2590.45 2275.17 2616.22 2331.36 2621.61 2391.71C2622.41 2400.68 2622.76 2409.75 2622.66 2418.87C2621.81 2489.41 2593.56 2555.39 2543.09 2604.67C2499.14 2647.57 2442.93 2673.34 2382.56 2678.73Z" fill="#91B3FA"/>
<path d="M2346.6 835.381C2346.6 835.381 2378.25 850.774 2384.07 868.457C2388.74 882.645 2423.73 884.475 2427.19 912.379C2428.97 926.786 2439.63 938.324 2453.98 940.523C2489.72 946.002 2544.8 964.56 2553.61 1026.61C2560.34 1073.97 2536.19 1091.93 2510.85 1098.15C2492.24 1102.72 2479.87 1120.82 2483.64 1139.61C2487.25 1157.63 2481.86 1178.46 2450.64 1194.94C2380.68 1231.86 2310.8 1107.48 2310.8 1107.48L2296.48 890.296L2346.6 835.381Z" fill="url(#paint5_linear_1612_1664)"/>
<path d="M2058.78 706.437C2058.78 706.437 2124.03 959.583 2269.07 1051.12C2269.07 1051.12 2210 1128.96 2182.98 1131.34C2182.98 1131.34 2040.72 906.385 2041.13 733.74L2058.78 706.437Z" fill="url(#paint6_linear_1612_1664)"/>
<path d="M2634.2 2197.17L2638.72 2234.4C2639.58 2241.46 2645.14 2247.04 2652.21 2247.85C2664.14 2249.21 2683.29 2250.61 2702.02 2248.63C2710.25 2247.76 2715.59 2239.43 2713.08 2231.55C2708.51 2217.18 2700.16 2195.61 2688.11 2182.92H2646.82C2639.19 2182.92 2633.27 2189.6 2634.2 2197.17Z" fill="url(#paint7_linear_1612_1664)"/>
<path d="M2310.8 1761.16L2303.84 1802.15C2303.84 1802.15 2327.17 2038.55 2331.32 2133.1C2331.98 2147.93 2328.14 2162.58 2320.36 2175.21L2279.78 2241.11L2382.91 2180.25L2384.97 2167.67L2368.08 2144.45L2390.2 1879.64C2391.5 1864.08 2388.29 1848.48 2380.95 1834.7L2359.62 1794.62L2310.8 1761.16Z" fill="url(#paint8_linear_1612_1664)"/>
<path d="M2272.99 2250.66H2305.9C2312.06 2250.66 2317.87 2247.83 2321.63 2242.95C2331.89 2229.61 2353.15 2203.6 2363.31 2202.92C2376.99 2202.01 2375.24 2250.66 2375.24 2250.66H2382.91L2392.63 2190.21C2395.07 2175 2387.51 2159.93 2373.85 2152.81C2373.85 2152.81 2370.73 2175.94 2353.76 2186.17C2336.8 2196.4 2284.75 2233.05 2284.75 2233.05C2284.75 2233.05 2278.37 2232.14 2271.37 2233.4C2260.99 2235.28 2262.44 2250.66 2272.99 2250.66Z" fill="url(#paint9_linear_1612_1664)"/>
<path d="M2452.06 1780.63C2452.06 1780.63 2588.78 2039.97 2610.52 2099.19C2632.25 2158.4 2639.86 2207.79 2640.16 2212.47C2640.61 2219.78 2649.7 2226.79 2674.76 2226.79C2687.69 2226.79 2694.03 2221.61 2697.13 2216.59C2699.77 2212.31 2699.91 2206.95 2697.68 2202.44C2689.77 2186.43 2664.67 2135.29 2655.38 2112.09C2644.28 2084.39 2620.41 1958.86 2607.32 1915.22C2594.23 1871.58 2579.43 1824.24 2522.41 1780.63C2522.41 1780.63 2483.28 1742.3 2452.06 1780.63Z" fill="url(#paint10_linear_1612_1664)"/>
<path d="M2365.7 1355.68C2330.43 1206.24 2419.77 1121.72 2419.77 1121.72C2363.4 1067.61 2260.69 1042.98 2260.69 1042.98C2260.69 1042.98 2162.68 1114.64 2174.3 1170.72C2181.12 1203.59 2243.2 1367.62 2243.2 1367.62C2243.2 1367.62 2300.6 1394.78 2365.7 1355.68Z" fill="url(#paint11_linear_1612_1664)"/>
<path d="M2443.89 1429.67C2429.54 1386.43 2365.7 1355.68 2365.7 1355.68C2300.6 1394.78 2243.2 1367.62 2243.2 1367.62C2243.2 1367.62 2230.32 1416.82 2239.21 1462.55C2248.09 1508.28 2303.83 1802.15 2303.83 1802.15C2391.67 1819.95 2526.75 1784.25 2526.75 1784.25C2470.81 1684.92 2458.24 1472.91 2443.89 1429.67Z" fill="url(#paint12_linear_1612_1664)"/>
<path d="M2324.76 944.226L2353.43 1073.02C2356.18 1084.37 2345.84 1082.51 2334.37 1080.35C2315.58 1076.8 2291.37 1069.51 2283.28 1054.9C2282.46 1053.41 2282.05 1051.73 2281.81 1050.04L2269.49 960.732C2268.52 953.646 2272.35 946.77 2278.89 943.87L2302.66 933.33C2311.81 929.273 2322.4 934.495 2324.76 944.226Z" fill="url(#paint13_linear_1612_1664)"/>
<path d="M2291.12 821.597C2291.12 821.597 2257.16 835.936 2234.07 885.007C2210.98 934.078 2228.22 956.736 2249.88 959.846C2271.54 962.956 2303.93 962.483 2338.19 930.784C2372.45 899.084 2335.26 804.6 2291.12 821.597Z" fill="url(#paint14_linear_1612_1664)"/>
<path d="M2315.16 904.585C2315.16 904.585 2340.78 832.792 2277.13 831.943L2262.15 842.412C2262.15 842.412 2238.8 802.607 2277.13 783.606C2315.46 764.606 2360.33 780.3 2376.64 831.943C2392.95 883.586 2395.74 918.157 2368.6 942.864C2341.46 967.572 2330.27 939.557 2330.27 939.557C2330.27 939.557 2345.05 916.446 2339.04 904.082C2333.02 891.718 2319.14 906.64 2319.14 906.64L2315.16 904.585Z" fill="url(#paint15_linear_1612_1664)"/>
<path d="M2322.3 912.582C2322.3 912.582 2335.25 875.599 2352.53 890.327C2369.81 905.055 2338.49 924.489 2326.22 930.783L2322.3 912.582Z" fill="url(#paint16_linear_1612_1664)"/>
<path d="M2045.75 750.029C2043.95 754.238 2059.12 762.431 2070.21 745.589C2071.38 737.104 2080.2 701.132 2075.8 693.686C2052.38 654.03 2023.99 648.785 2023.99 648.785C2017.7 657.889 2010.39 665.375 2006.18 676.727C2002.99 685.324 2003.46 694.897 2007.12 703.375C2010.79 711.884 2015.85 722.972 2020.8 731.749C2030.18 748.36 2045.75 750.029 2045.75 750.029Z" fill="url(#paint17_linear_1612_1664)"/>
<path d="M2435.62 1161.5C2435.62 1161.5 2173.34 1481.76 1977.39 1117.1C1977.39 1117.1 1973.63 1107.79 1975.98 1094.33C1977.17 1087.53 1972.68 1063.43 1970.21 1051.11C1969.41 1047.15 1972.23 1043.41 1976.24 1043.03C1979.39 1042.72 1982.48 1044.04 1984.43 1046.53L2020.23 1092.11C2022.89 1101.14 2018.6 1110.76 2010.09 1114.79C2004.67 1117.37 2002.96 1124.26 2006.6 1129.03C2155.62 1324.38 2404.87 1110.02 2409.44 1112.54C2425.62 1121.47 2444.32 1131.34 2435.62 1161.5Z" fill="url(#paint18_linear_1612_1664)"/>
<path d="M2278.65 3239.47C2284.32 3239.47 2288.92 3235.83 2288.92 3231.35V2261.36C2288.92 2256.87 2284.32 2253.24 2278.65 2253.24C2272.97 2253.24 2268.38 2256.87 2268.38 2261.36V3231.35C2268.38 3235.83 2272.97 3239.47 2278.65 3239.47Z" fill="url(#paint19_linear_1612_1664)"/>
<path d="M2556.97 3239.47C2562.64 3239.47 2567.24 3235.83 2567.24 3231.35V2261.36C2567.24 2256.87 2562.64 2253.24 2556.97 2253.24C2551.29 2253.24 2546.7 2256.87 2546.7 2261.36V3231.35C2546.7 3235.83 2551.29 3239.47 2556.97 3239.47Z" fill="url(#paint20_linear_1612_1664)"/>
<path d="M3240.77 3245.62C3242.11 3245.62 3243.47 3245.41 3244.78 3244.97C3250 3243.22 3252.44 3238.45 3250.22 3234.32L2725.02 2258.18C2722.8 2254.05 2716.76 2252.14 2711.55 2253.89C2706.33 2255.64 2703.9 2260.4 2706.11 2264.53L3231.31 3240.68C3232.97 3243.76 3236.77 3245.62 3240.77 3245.62Z" fill="url(#paint21_linear_1612_1664)"/>
<path d="M2916.36 3245.62C2917.7 3245.62 2919.06 3245.41 2920.37 3244.97C2925.59 3243.22 2928.02 3238.45 2925.81 3234.32L2400.61 2258.18C2398.39 2254.05 2392.35 2252.14 2387.14 2253.89C2381.92 2255.64 2379.48 2260.4 2381.7 2264.53L2906.9 3240.68C2908.56 3243.76 2912.36 3245.62 2916.36 3245.62Z" fill="url(#paint22_linear_1612_1664)"/>
<path d="M2262.7 2270.28H2743.79C2751.79 2270.28 2758.27 2265.16 2758.27 2258.84C2758.27 2252.53 2751.79 2247.41 2743.79 2247.41H2262.7C2254.71 2247.41 2248.22 2252.53 2248.22 2258.84C2248.22 2265.16 2254.71 2270.28 2262.7 2270.28Z" fill="url(#paint23_linear_1612_1664)"/>
<path d="M2470.5 2418.73H2795.87C2801.55 2418.73 2806.14 2415.1 2806.14 2410.62C2806.14 2406.13 2801.55 2402.5 2795.87 2402.5H2470.5C2464.83 2402.5 2460.23 2406.13 2460.23 2410.62C2460.23 2415.1 2464.83 2418.73 2470.5 2418.73Z" fill="url(#paint24_linear_1612_1664)"/>
<path d="M2895.71 2587.12H2570.33V2603.35H2895.71V2587.12Z" fill="url(#paint25_linear_1612_1664)"/>
<path d="M2992.36 2771.73H2666.98V2787.96H2992.36V2771.73Z" fill="url(#paint26_linear_1612_1664)"/>
<path d="M2768.34 2972.57H3093.71C3099.38 2972.57 3103.98 2968.94 3103.98 2964.46C3103.98 2959.98 3099.38 2956.34 3093.71 2956.34H2768.34C2762.67 2956.34 2758.07 2959.98 2758.07 2964.46C2758.07 2968.94 2762.67 2972.57 2768.34 2972.57Z" fill="url(#paint27_linear_1612_1664)"/>
<path d="M2866.33 3157.19H3191.7C3197.38 3157.19 3201.97 3153.56 3201.97 3149.08C3201.97 3144.59 3197.37 3140.96 3191.7 3140.96H2866.33C2860.66 3140.96 2856.06 3144.59 2856.06 3149.08C2856.06 3153.56 2860.66 3157.19 2866.33 3157.19Z" fill="url(#paint28_linear_1612_1664)"/>
<path d="M1318.52 3230.36C1286.06 3202.1 1216.3 3179.46 1216.3 3179.46L1174.33 3180.38C1163.68 3192.36 1158.87 3215.58 1156.81 3230.14C1164.71 3234.87 1179.52 3239.02 1206.68 3240.31C1256.95 3242.71 1297.53 3235.36 1318.52 3230.36Z" fill="url(#paint29_linear_1612_1664)"/>
<path d="M1318.52 3230.36C1297.53 3235.36 1256.95 3242.71 1206.67 3240.32C1179.52 3239.02 1164.71 3234.88 1156.81 3230.14C1156.64 3231.31 1156.49 3232.44 1156.36 3233.49C1155.61 3239.46 1159.31 3245.07 1165.06 3246.83C1203.4 3258.58 1287.72 3254.8 1320.59 3252.77C1327.62 3252.33 1331.29 3244.08 1326.79 3238.67C1324.45 3235.85 1321.65 3233.08 1318.52 3230.36Z" fill="url(#paint30_linear_1612_1664)"/>
<path d="M1193.99 3144.14L1177.76 3177.52C1177.76 3183.94 1182.24 3189.48 1188.52 3190.84C1195.02 3192.25 1203.65 3193.15 1212.03 3191.07C1217.26 3189.77 1221.1 3185.27 1221.73 3179.91L1242.17 3144.15L1193.99 3144.14Z" fill="url(#paint31_linear_1612_1664)"/>
<path d="M500.404 3150.34C488.19 3123.15 491.684 3110.92 467.503 3113.63C464.595 3113.95 462.181 3114.52 460.142 3115.24C458.617 3119.73 458.519 3124.7 460.156 3129.41C466.269 3147 470.933 3181.11 494.379 3210.7C499.306 3216.92 506.842 3220.53 514.774 3220.66L541.437 3221.1C516.151 3200.89 510.538 3172.9 500.404 3150.34Z" fill="url(#paint32_linear_1612_1664)"/>
<path d="M543.126 3180.78C522.663 3166.38 523.137 3103.48 523.137 3103.48L491.598 3087.42L467.816 3104.66C464.138 3107.39 461.542 3111.12 460.141 3115.24C462.18 3114.51 464.594 3113.95 467.502 3113.63C491.683 3110.92 488.189 3123.15 500.403 3150.34C510.538 3172.9 516.151 3200.89 541.436 3221.1L559.761 3221.41C567.994 3221.54 572.749 3212.14 567.758 3205.59C561.496 3197.37 552.931 3187.69 543.126 3180.78Z" fill="url(#paint33_linear_1612_1664)"/>
<path d="M523.33 3057.8L488.06 3087.42C485.654 3091.17 486.471 3096.12 489.969 3098.87C496.072 3103.67 506.646 3109.04 519.598 3103.48L558.303 3082.51L523.33 3057.8Z" fill="url(#paint34_linear_1612_1664)"/>
<path d="M499.929 3072.4L528.869 3093.99C533.118 3097.92 543.589 3098.32 548.284 3094.94C596.268 3060.35 1051.38 2851.15 1141.56 2818.48L1072.72 2673.95C1072.72 2673.95 487.785 3061.22 499.929 3072.4Z" fill="url(#paint35_linear_1612_1664)"/>
<path d="M1424.4 2791.69C1370.72 2762.88 1221.21 2737.98 1221.21 2737.98L1047.3 2690.89C1047.3 2690.89 999.552 2833.32 1083.22 2859.03C1166.89 2884.74 1287.83 2872.56 1338.53 2865.84C1338.53 2865.84 1270.75 2914.52 1189.6 3150.35C1189.6 3150.35 1216.91 3150.94 1239.13 3156.13C1239.13 3156.13 1420.24 2930.71 1439.22 2872.56C1451.74 2834.21 1469.28 2815.77 1424.4 2791.69Z" fill="url(#paint36_linear_1612_1664)"/>
<path d="M1528.48 2322.03C1490.87 2319.38 1376.57 2344.22 1376.57 2344.22L1435.26 2392.48C1435.26 2392.48 1481.52 2381.22 1512.35 2375.2C1512.35 2375.2 1588.45 2326.26 1528.48 2322.03Z" fill="url(#paint37_linear_1612_1664)"/>
<path d="M1662.83 2356.18C1662.83 2356.18 1612.43 2402.98 1581.81 2415.69C1551.19 2428.39 1533.29 2442.24 1514.32 2408.34C1495.35 2374.44 1502.65 2337.7 1527.97 2310.29C1527.97 2310.29 1566.84 2267.64 1588.5 2266.53C1610.17 2265.43 1662.83 2356.18 1662.83 2356.18Z" fill="url(#paint38_linear_1612_1664)"/>
<path d="M1554.67 2314.78L1556.28 2319.34C1556.28 2319.34 1588.25 2286.98 1600.83 2301.13C1613.42 2315.27 1649.76 2376.05 1677.95 2382.02C1705.13 2387.77 1729.79 2365.46 1731.5 2344.45C1731.61 2343.12 1730.59 2341.96 1729.27 2341.76L1725.9 2341.25C1723.59 2340.91 1722.87 2337.92 1724.77 2336.57C1726.58 2335.28 1726.07 2332.42 1723.9 2331.93C1715.44 2330.05 1700.03 2322.31 1683.2 2292.95C1659.33 2251.28 1630.95 2228.16 1599.91 2238.25C1597.94 2238.89 1596.13 2237.18 1596.56 2235.16C1597.41 2231.16 1596.5 2225.57 1588.12 2220.61C1573.53 2211.99 1548.61 2226.37 1536.08 2260.9C1535.48 2262.54 1533.49 2263.23 1532.1 2262.17C1527.23 2258.42 1517.15 2253.81 1513.71 2276.12C1510.19 2298.94 1515.3 2309.91 1517.91 2313.82C1518.61 2314.87 1519.93 2315.27 1521.1 2314.78L1547.79 2303.51C1549.17 2302.93 1550.76 2303.63 1551.26 2305.05L1554.67 2314.78Z" fill="url(#paint39_linear_1612_1664)"/>
<path d="M1549.36 2317.91C1549.36 2317.91 1583.9 2294.67 1567.25 2281.38C1550.61 2268.08 1527.77 2305.18 1531.16 2319.38L1549.36 2317.91Z" fill="url(#paint40_linear_1612_1664)"/>
<path d="M1863.93 2465.77C1863.93 2465.77 1892.29 2475.85 1897.52 2458.97C1902.76 2442.1 1888.14 2397.12 1897.41 2390.9C1906.69 2384.69 1922.72 2353.64 1917.64 2339.46L1906.02 2350.49C1906.02 2350.49 1913.94 2324.46 1905.25 2313.37L1883.26 2369.92C1883.26 2369.92 1854.11 2437.2 1863.93 2465.77Z" fill="url(#paint41_linear_1612_1664)"/>
<path d="M1351.46 2353.45C1351.46 2353.45 1402.01 2297.67 1512.51 2384.73C1588.67 2444.72 1863.1 2432.53 1863.1 2432.53C1863.1 2432.53 1862.96 2448.07 1868.34 2466.84C1868.34 2466.84 1638.04 2529.09 1465.17 2486.83C1465.17 2486.83 1274.16 2703.36 1259.45 2745.76C1259.45 2745.76 1135.32 2764.3 1047.3 2690.89C1047.3 2690.89 1070.91 2617.67 1147.34 2532.78C1246.59 2422.56 1351.46 2353.45 1351.46 2353.45Z" fill="url(#paint42_linear_1612_1664)"/>
<path d="M1378 2465.01C1377.08 2464.67 1376.56 2463.67 1376.83 2462.71C1377.12 2461.7 1378.17 2461.11 1379.18 2461.39C1379.83 2461.58 1444.94 2479.86 1455.21 2482.41C1456.22 2482.66 1456.85 2483.69 1456.6 2484.71C1456.35 2485.73 1455.31 2486.35 1454.29 2486.1C1443.97 2483.55 1378.81 2465.24 1378.15 2465.06C1378.1 2465.04 1378.05 2465.03 1378 2465.01Z" fill="url(#paint43_linear_1612_1664)"/>
</g>
<defs>
<linearGradient id="paint0_linear_1612_1664" x1="3474.55" y1="3625" x2="1540.47" y2="1566.15" gradientUnits="userSpaceOnUse">
<stop stop-color="#DAE3FE"/>
<stop offset="1" stop-color="#E9EFFD"/>
</linearGradient>
<linearGradient id="paint1_linear_1612_1664" x1="1714.28" y1="591.099" x2="2160.21" y2="3546.55" gradientUnits="userSpaceOnUse">
<stop stop-color="#4F52FF"/>
<stop offset="1" stop-color="#4042E2"/>
</linearGradient>
<linearGradient id="paint2_linear_1612_1664" x1="3597.81" y1="1026.28" x2="2038.42" y2="1357.57" gradientUnits="userSpaceOnUse">
<stop stop-color="#4F52FF"/>
<stop offset="1" stop-color="#4042E2"/>
</linearGradient>
<linearGradient id="paint3_linear_1612_1664" x1="1606.3" y1="1414.1" x2="777.712" y2="2171.81" gradientUnits="userSpaceOnUse">
<stop stop-color="#4F52FF"/>
<stop offset="1" stop-color="#4042E2"/>
</linearGradient>
<linearGradient id="paint4_linear_1612_1664" x1="1825.47" y1="2725.35" x2="2845.63" y2="2134.49" gradientUnits="userSpaceOnUse">
<stop stop-color="#4F52FF"/>
<stop offset="1" stop-color="#4042E2"/>
</linearGradient>
<linearGradient id="paint5_linear_1612_1664" x1="2290.94" y1="708.713" x2="2384.82" y2="944.19" gradientUnits="userSpaceOnUse">
<stop stop-color="#09005D"/>
<stop offset="1" stop-color="#1A0F91"/>
</linearGradient>
<linearGradient id="paint6_linear_1612_1664" x1="2126.12" y1="837.671" x2="2259.55" y2="1247.51" gradientUnits="userSpaceOnUse">
<stop stop-color="#FEBBBA"/>
<stop offset="1" stop-color="#FF928E"/>
</linearGradient>
<linearGradient id="paint7_linear_1612_1664" x1="2671.9" y1="2174.58" x2="2658.47" y2="1899.24" gradientUnits="userSpaceOnUse">
<stop stop-color="#09005D"/>
<stop offset="1" stop-color="#1A0F91"/>
</linearGradient>
<linearGradient id="paint8_linear_1612_1664" x1="2297.75" y1="2530.17" x2="2412.3" y2="1191.35" gradientUnits="userSpaceOnUse">
<stop stop-color="#FEBBBA"/>
<stop offset="1" stop-color="#FF928E"/>
</linearGradient>
<linearGradient id="paint9_linear_1612_1664" x1="2331.55" y1="2194.45" x2="2367.36" y2="1948.21" gradientUnits="userSpaceOnUse">
<stop stop-color="#09005D"/>
<stop offset="1" stop-color="#1A0F91"/>
</linearGradient>
<linearGradient id="paint10_linear_1612_1664" x1="2528.17" y1="2550.09" x2="2642.76" y2="1210.92" gradientUnits="userSpaceOnUse">
<stop stop-color="#FEBBBA"/>
<stop offset="1" stop-color="#FF928E"/>
</linearGradient>
<linearGradient id="paint11_linear_1612_1664" x1="3078.59" y1="646.543" x2="2625.32" y2="973.908" gradientUnits="userSpaceOnUse">
<stop stop-color="#FF928E"/>
<stop offset="1" stop-color="#FE7062"/>
</linearGradient>
<linearGradient id="paint12_linear_1612_1664" x1="2474.76" y1="1298.04" x2="2148.2" y2="2308.8" gradientUnits="userSpaceOnUse">
<stop stop-color="#09005D"/>
<stop offset="1" stop-color="#1A0F91"/>
</linearGradient>
<linearGradient id="paint13_linear_1612_1664" x1="2287.65" y1="1150.77" x2="2330.18" y2="913.487" gradientUnits="userSpaceOnUse">
<stop stop-color="#FEBBBA"/>
<stop offset="1" stop-color="#FF928E"/>
</linearGradient>
<linearGradient id="paint14_linear_1612_1664" x1="2230.87" y1="1007.53" x2="2418.62" y2="673.411" gradientUnits="userSpaceOnUse">
<stop stop-color="#FEBBBA"/>
<stop offset="1" stop-color="#FF928E"/>
</linearGradient>
<linearGradient id="paint15_linear_1612_1664" x1="2271.25" y1="716.564" x2="2365.12" y2="952.042" gradientUnits="userSpaceOnUse">
<stop stop-color="#09005D"/>
<stop offset="1" stop-color="#1A0F91"/>
</linearGradient>
<linearGradient id="paint16_linear_1612_1664" x1="2270.84" y1="1029.99" x2="2458.58" y2="695.866" gradientUnits="userSpaceOnUse">
<stop stop-color="#FEBBBA"/>
<stop offset="1" stop-color="#FF928E"/>
</linearGradient>
<linearGradient id="paint17_linear_1612_1664" x1="2081" y1="820.035" x2="2173.15" y2="1103.1" gradientUnits="userSpaceOnUse">
<stop stop-color="#FEBBBA"/>
<stop offset="1" stop-color="#FF928E"/>
</linearGradient>
<linearGradient id="paint18_linear_1612_1664" x1="2241.05" y1="1028.4" x2="2119.18" y2="1272.28" gradientUnits="userSpaceOnUse">
<stop stop-color="#FEBBBA"/>
<stop offset="1" stop-color="#FF928E"/>
</linearGradient>
<linearGradient id="paint19_linear_1612_1664" x1="3409.89" y1="1482.72" x2="2936.47" y2="2011.54" gradientUnits="userSpaceOnUse">
<stop stop-color="#09005D"/>
<stop offset="1" stop-color="#1A0F91"/>
</linearGradient>
<linearGradient id="paint20_linear_1612_1664" x1="3564.4" y1="1621.03" x2="3090.98" y2="2149.85" gradientUnits="userSpaceOnUse">
<stop stop-color="#09005D"/>
<stop offset="1" stop-color="#1A0F91"/>
</linearGradient>
<linearGradient id="paint21_linear_1612_1664" x1="3799.73" y1="1831.72" x2="3326.31" y2="2360.54" gradientUnits="userSpaceOnUse">
<stop stop-color="#09005D"/>
<stop offset="1" stop-color="#1A0F91"/>
</linearGradient>
<linearGradient id="paint22_linear_1612_1664" x1="3619.65" y1="1670.5" x2="3146.23" y2="2199.32" gradientUnits="userSpaceOnUse">
<stop stop-color="#09005D"/>
<stop offset="1" stop-color="#1A0F91"/>
</linearGradient>
<linearGradient id="paint23_linear_1612_1664" x1="3292.31" y1="1377.45" x2="2818.89" y2="1906.27" gradientUnits="userSpaceOnUse">
<stop stop-color="#09005D"/>
<stop offset="1" stop-color="#1A0F91"/>
</linearGradient>
<linearGradient id="paint24_linear_1612_1664" x1="3439.86" y1="1509.55" x2="2966.44" y2="2038.37" gradientUnits="userSpaceOnUse">
<stop stop-color="#09005D"/>
<stop offset="1" stop-color="#1A0F91"/>
</linearGradient>
<linearGradient id="paint25_linear_1612_1664" x1="3587.02" y1="1641.29" x2="3113.6" y2="2170.11" gradientUnits="userSpaceOnUse">
<stop stop-color="#09005D"/>
<stop offset="1" stop-color="#1A0F91"/>
</linearGradient>
<linearGradient id="paint26_linear_1612_1664" x1="3732.42" y1="1771.46" x2="3259" y2="2300.28" gradientUnits="userSpaceOnUse">
<stop stop-color="#09005D"/>
<stop offset="1" stop-color="#1A0F91"/>
</linearGradient>
<linearGradient id="paint27_linear_1612_1664" x1="3880.42" y1="1903.96" x2="3407.01" y2="2432.78" gradientUnits="userSpaceOnUse">
<stop stop-color="#09005D"/>
<stop offset="1" stop-color="#1A0F91"/>
</linearGradient>
<linearGradient id="paint28_linear_1612_1664" x1="4026.57" y1="2034.79" x2="3553.15" y2="2563.61" gradientUnits="userSpaceOnUse">
<stop stop-color="#09005D"/>
<stop offset="1" stop-color="#1A0F91"/>
</linearGradient>
<linearGradient id="paint29_linear_1612_1664" x1="1263.22" y1="2916.26" x2="1251.47" y2="3060.64" gradientUnits="userSpaceOnUse">
<stop stop-color="#09005D"/>
<stop offset="1" stop-color="#1A0F91"/>
</linearGradient>
<linearGradient id="paint30_linear_1612_1664" x1="1242.33" y1="3263.61" x2="1244.01" y2="3043.68" gradientUnits="userSpaceOnUse">
<stop stop-color="#09005D"/>
<stop offset="1" stop-color="#1A0F91"/>
</linearGradient>
<linearGradient id="paint31_linear_1612_1664" x1="1177.76" y1="3168.22" x2="1242.17" y2="3168.22" gradientUnits="userSpaceOnUse">
<stop stop-color="#FEBBBA"/>
<stop offset="1" stop-color="#FF928E"/>
</linearGradient>
<linearGradient id="paint32_linear_1612_1664" x1="479.432" y1="3202.08" x2="613.742" y2="2988.86" gradientUnits="userSpaceOnUse">
<stop stop-color="#09005D"/>
<stop offset="1" stop-color="#1A0F91"/>
</linearGradient>
<linearGradient id="paint33_linear_1612_1664" x1="637.044" y1="3034.9" x2="548.064" y2="3128.92" gradientUnits="userSpaceOnUse">
<stop stop-color="#09005D"/>
<stop offset="1" stop-color="#1A0F91"/>
</linearGradient>
<linearGradient id="paint34_linear_1612_1664" x1="486.683" y1="3081.82" x2="558.304" y2="3081.82" gradientUnits="userSpaceOnUse">
<stop stop-color="#FEBBBA"/>
<stop offset="1" stop-color="#FF928E"/>
</linearGradient>
<linearGradient id="paint35_linear_1612_1664" x1="1072.12" y1="2721.22" x2="555.751" y2="3179.27" gradientUnits="userSpaceOnUse">
<stop stop-color="#09005D"/>
<stop offset="1" stop-color="#1A0F91"/>
</linearGradient>
<linearGradient id="paint36_linear_1612_1664" x1="1538.07" y1="3308.98" x2="1235.89" y2="2855.71" gradientUnits="userSpaceOnUse">
<stop stop-color="#09005D"/>
<stop offset="1" stop-color="#1A0F91"/>
</linearGradient>
<linearGradient id="paint37_linear_1612_1664" x1="1657.14" y1="2216.65" x2="1410.9" y2="2382.29" gradientUnits="userSpaceOnUse">
<stop stop-color="#FEBBBA"/>
<stop offset="1" stop-color="#FF928E"/>
</linearGradient>
<linearGradient id="paint38_linear_1612_1664" x1="1588.4" y1="2430.46" x2="1572.73" y2="2228.99" gradientUnits="userSpaceOnUse">
<stop stop-color="#FEBBBA"/>
<stop offset="1" stop-color="#FF928E"/>
</linearGradient>
<linearGradient id="paint39_linear_1612_1664" x1="1665.27" y1="2244.56" x2="1539.73" y2="2439.28" gradientUnits="userSpaceOnUse">
<stop stop-color="#09005D"/>
<stop offset="1" stop-color="#1A0F91"/>
</linearGradient>
<linearGradient id="paint40_linear_1612_1664" x1="1561.37" y1="2432.56" x2="1545.7" y2="2231.1" gradientUnits="userSpaceOnUse">
<stop stop-color="#FEBBBA"/>
<stop offset="1" stop-color="#FF928E"/>
</linearGradient>
<linearGradient id="paint41_linear_1612_1664" x1="1857.1" y1="2461.75" x2="1934.37" y2="2330.52" gradientUnits="userSpaceOnUse">
<stop stop-color="#FEBBBA"/>
<stop offset="1" stop-color="#FF928E"/>
</linearGradient>
<linearGradient id="paint42_linear_1612_1664" x1="1462.11" y1="2886.12" x2="1455.39" y2="2404.84" gradientUnits="userSpaceOnUse">
<stop stop-color="#FF928E"/>
<stop offset="1" stop-color="#FE7062"/>
</linearGradient>
<linearGradient id="paint43_linear_1612_1664" x1="1719.98" y1="1918.15" x2="1300.26" y2="2687.07" gradientUnits="userSpaceOnUse">
<stop stop-color="#E1473D"/>
<stop offset="1" stop-color="#E9605A"/>
</linearGradient>
<clipPath id="clip0_1612_1664">
<rect width="3710" height="3710" fill="white"/>
</clipPath>
</defs>
</svg>
