<svg width="2000" height="2000" viewBox="0 0 2000 2000" fill="none" xmlns="http://www.w3.org/2000/svg">
<g clip-path="url(#clip0_1612_2597)">
<path d="M1628.56 1549.4L1626.44 1548.1C1747.58 1351.08 1810.71 1173.08 1814.07 1019.03C1817.55 859.71 1755.77 762.295 1703.34 708.629C1652.98 657.087 1587.06 621.234 1517.7 607.674C1452.69 594.964 1389.06 603.039 1343.13 629.829L1341.87 627.668C1388.31 600.577 1452.58 592.391 1518.18 605.22C1588.03 618.876 1654.42 654.981 1705.13 706.881C1757.9 760.89 1820.07 858.894 1816.57 1019.08C1813.2 1173.58 1749.94 1352.01 1628.56 1549.4Z" fill="#E5E5FF"/>
<path opacity="0.4" d="M1725.67 851.258C1669.1 728.698 1559.2 632.901 1422.5 616.249C1313.43 602.963 1203.75 601.186 1094.21 594.502C978.608 587.448 865.421 565.997 751.181 547.2C677.848 535.134 613.604 552.955 542.501 578.749C445.376 613.982 351.521 727.738 309.168 818.749C207.13 1038.02 263.489 1313.82 353.406 1527.49C357.811 1537.96 388.178 1621.25 397.282 1621.25C397.293 1621.25 1586.55 1621.25 1586.55 1621.25C1658.3 1516.03 1717.1 1400.3 1749.75 1280.81C1788.54 1138.83 1788.13 986.57 1725.67 851.258Z" fill="#E5E5FF"/>
<path d="M278.81 1291.63C232.114 1146.02 211.554 1019.4 217.7 915.293C222.811 828.704 246.385 756.786 287.765 701.538C382.576 574.955 540.936 577.457 542.532 577.5L542.469 580C540.931 579.952 383.765 577.511 289.747 703.064C248.674 757.914 225.273 829.376 220.195 915.466C214.072 1019.26 234.593 1145.56 281.191 1290.87L278.81 1291.63Z" fill="#E5E5FF"/>
<path d="M1421.69 1308.65H568.305C551.292 1308.65 537.5 1294.86 537.5 1277.85V447.748C537.5 430.735 551.292 416.943 568.305 416.943H1421.69C1438.71 416.943 1452.5 430.735 1452.5 447.748V1277.85C1452.5 1294.86 1438.71 1308.65 1421.69 1308.65Z" fill="#E5E5FF"/>
<path d="M1421.69 1309.9H568.304C550.63 1309.9 536.25 1295.52 536.25 1277.85V447.748C536.25 430.073 550.63 415.694 568.304 415.694H1421.69C1439.37 415.694 1453.75 430.074 1453.75 447.748V1277.85C1453.75 1295.52 1439.37 1309.9 1421.69 1309.9ZM568.304 418.193C552.008 418.193 538.75 431.451 538.75 447.747V1277.85C538.75 1294.14 552.008 1307.4 568.304 1307.4H1421.69C1437.99 1307.4 1451.25 1294.14 1451.25 1277.85V447.748C1451.25 431.452 1437.99 418.194 1421.69 418.194H568.304V418.193Z" fill="#CBCBFF"/>
<path d="M1347.5 520.833H1152.5V535.062H1347.5V520.833Z" fill="#9192FF"/>
<path d="M1401.94 582.083H1091.25V596.312H1401.94V582.083Z" fill="#B7B7FF"/>
<path d="M1371.08 624.167H1091.25V638.396H1371.08V624.167Z" fill="#B7B7FF"/>
<path d="M1338.94 666.25H1091.25V680.479H1338.94V666.25Z" fill="#CBCBFF"/>
<path d="M1401.94 708.333H1091.25V722.562H1401.94V708.333Z" fill="#CBCBFF"/>
<path d="M1320.59 750.417H1091.25V764.646H1320.59V750.417Z" fill="#CBCBFF"/>
<path d="M901.646 981.25H603.457V995.479H901.646V981.25Z" fill="#B7B7FF"/>
<path d="M1375.32 1020H604.312V1034.23H1375.32V1020Z" fill="#CBCBFF"/>
<path d="M963.015 520.833H603.926V900.859H963.015V520.833Z" fill="white"/>
<path d="M661.363 771.872H636.398V859.27H661.363V771.872Z" fill="#B7B7FF"/>
<path d="M706.227 784.191H681.262V859.27H706.227V784.191Z" fill="#E0E0FF"/>
<path d="M751.09 736.576H726.125V859.27H751.09V736.576Z" fill="#B7B7FF"/>
<path d="M795.953 745.362H770.988V859.27H795.953V745.362Z" fill="#E0E0FF"/>
<path d="M840.815 706.044H815.85V859.27H840.815V706.044Z" fill="#B7B7FF"/>
<path d="M885.678 684.802H860.713V859.271H885.678V684.802Z" fill="#E0E0FF"/>
<path d="M930.541 665.861H905.576V859.271H930.541V665.861Z" fill="#B7B7FF"/>
<path d="M689.384 723.953L642.236 705.094L643.137 702.843L688.947 721.167L735.626 682.537L779.168 683.55L910.42 602.5L911.694 604.563L779.83 685.991L736.476 684.983L689.384 723.953Z" fill="#B7B7FF"/>
<path d="M683.075 596.123H631.852V617.418H683.075V596.123Z" fill="#B7B7FF"/>
<path d="M747.916 608.334H700V610.834H747.916V608.334Z" fill="#B7B7FF"/>
<path d="M1314.1 926.844C1344.99 926.844 1370.03 901.807 1370.03 870.922C1370.03 840.037 1344.99 815 1314.1 815C1283.22 815 1258.18 840.037 1258.18 870.922C1258.18 901.807 1283.22 926.844 1314.1 926.844Z" fill="white"/>
<path d="M1154.75 926.845C1123.87 926.845 1098.84 901.809 1098.84 870.93C1098.84 843.003 1119.32 819.833 1146.1 815.65C1148.91 815.219 1151.8 814.994 1154.75 814.994C1171.3 814.994 1186.16 822.191 1196.38 833.612C1205.27 843.516 1210.67 856.597 1210.67 870.93C1210.67 901.809 1185.63 926.845 1154.75 926.845Z" fill="white"/>
<path d="M1154.75 870.93L1146.1 815.65C1148.91 815.219 1151.8 814.994 1154.75 814.994C1171.3 814.994 1186.16 822.191 1196.37 833.612L1154.75 870.93Z" fill="#B7B7FF"/>
<path d="M1377.4 1087.48H610.02V1234.98H1377.4V1087.48Z" fill="white"/>
<path d="M1379.63 1237.19H610.393V1087.81H1379.63V1237.19ZM612.268 1235.31H1377.75V1089.69H612.268V1235.31Z" fill="#B7B7FF"/>
<path d="M1378.69 1205.81H611.33V1207.69H1378.69V1205.81Z" fill="#B7B7FF"/>
<path d="M1378.69 1176.31H611.33V1178.19H1378.69V1176.31Z" fill="#B7B7FF"/>
<path d="M1378.69 1146.81H611.33V1148.69H1378.69V1146.81Z" fill="#B7B7FF"/>
<path d="M1378.69 1117.31H611.33V1119.19H1378.69V1117.31Z" fill="#B7B7FF"/>
<path d="M1251.74 1088.75H1249.86V1236.25H1251.74V1088.75Z" fill="#B7B7FF"/>
<path d="M1123.84 1088.75H1121.97V1236.25H1123.84V1088.75Z" fill="#B7B7FF"/>
<path d="M995.949 1088.75H994.074V1236.25H995.949V1088.75Z" fill="#B7B7FF"/>
<path d="M868.055 1088.75H866.18V1236.25H868.055V1088.75Z" fill="#B7B7FF"/>
<path d="M740.16 1088.75H738.285V1236.25H740.16V1088.75Z" fill="#B7B7FF"/>
<path d="M632.405 1212.89C643.561 1197.35 645.972 1177.34 655.937 1160.97C660.799 1152.99 667.235 1145.07 676.14 1141.5C691.491 1135.35 695.407 1155.16 695.734 1166.16C696.214 1182.34 693.53 1199.9 706.898 1212.06C711.36 1216.11 717.263 1218.52 723.287 1216.92C730.509 1215 735.002 1208.39 738.576 1202.31C748.809 1184.91 755.309 1164.97 762.418 1146.15C766.009 1136.65 770.574 1124.47 779.98 1119.15C793.385 1111.55 794.852 1128.35 794.82 1137.2C794.784 1146.91 794.886 1156.61 794.97 1166.31C795.01 1170.97 794.051 1180.7 799.532 1183.3C802.757 1184.83 805.313 1181.9 807.122 1179.56C808.695 1177.52 809.789 1175.13 811.358 1173.1C812.837 1171.19 814.152 1170.04 816.817 1169.82C819.266 1169.61 820.437 1169.59 822.101 1171.84C823.027 1173.1 823.458 1174.87 823.848 1176.34C825.776 1183.62 823.796 1191.86 827.92 1198.59C830.215 1202.33 835.152 1206.06 839.792 1205.33C849.159 1203.85 851.54 1188.59 852.664 1181.25C854.168 1171.43 855.573 1161.67 858.278 1152.09C861.002 1142.44 864.533 1130.91 871.87 1123.69C874.664 1120.95 878.51 1118.21 882.643 1118.67C888.679 1119.35 890.568 1126.16 892.044 1131.04C895.374 1142.07 897.369 1153.6 897.36 1165.13C897.354 1173.1 895.037 1183.07 900.346 1189.96C903.195 1193.66 908.028 1195.78 912.653 1194.63C919.41 1192.94 921.043 1186.38 922.416 1180.44C922.689 1179.25 922.895 1178.03 923.341 1176.9C924.658 1173.54 925.182 1173.15 928.8 1173C932.782 1172.84 932.938 1173.77 933.578 1177.07C934.223 1180.4 933.889 1183.76 934.89 1187.05C936.156 1191.21 939.079 1195.04 943.893 1193.6C948.336 1192.28 950.713 1187.53 952.181 1183.51C956.401 1171.97 956.008 1159.19 956.637 1147.11C957.054 1139.11 957.698 1130.51 961.393 1123.25C963.798 1118.52 970.899 1110.87 976.388 1115.85C983.532 1122.34 982.835 1138.15 982.998 1146.88C983.349 1165.61 980.205 1184.42 982.824 1203.08C983.803 1210.06 985.785 1220.49 993.531 1223.13C1004.26 1226.78 1012.16 1215.1 1015.01 1206.56C1017.28 1199.77 1017.8 1192.66 1019.41 1185.72C1020.26 1182.08 1021.55 1175.42 1026.53 1177.5C1030.82 1179.29 1032.59 1185.36 1036.37 1188.11C1048.55 1196.97 1056.01 1179.68 1057.45 1170.32C1059.54 1156.64 1057.38 1141.58 1062.5 1128.49C1063.8 1125.18 1065.83 1121.67 1068.87 1119.67C1076.31 1114.77 1083.65 1121.55 1085.89 1128.48C1087.59 1133.74 1087.27 1139.64 1087.37 1145.1C1087.48 1151.02 1087.64 1156.95 1087.75 1162.87C1087.93 1172.66 1087.05 1182.65 1087.68 1192.4C1088.11 1199.18 1090.68 1205.35 1096.54 1209.18C1111.24 1218.79 1128.43 1203.8 1137.81 1193.29C1148.47 1181.34 1155.64 1167.14 1161.16 1152.24C1163.95 1144.7 1166.74 1137.01 1171.1 1130.21C1173.5 1126.48 1180.15 1117.54 1185.61 1120.01C1189.17 1121.62 1190.35 1128.05 1191.12 1131.37C1192.41 1136.96 1193.03 1142.71 1193.49 1148.42C1194.38 1159.29 1194.44 1170.2 1194.64 1181.1C1194.81 1190.33 1195.59 1204.25 1205.85 1207.99C1221.87 1213.83 1229.51 1190.88 1233.95 1180.29C1237.62 1171.51 1242.1 1159.6 1250.65 1154.38C1257.91 1149.94 1262.97 1156.79 1265.65 1162.88C1268.23 1168.72 1269.56 1175.2 1269.64 1181.57C1269.7 1186.02 1269.35 1191.59 1274.22 1193.74C1284.85 1198.42 1294.53 1180.84 1298.67 1173.91C1302.43 1167.59 1305.29 1160.96 1308.45 1154.33C1312.42 1146.01 1325.41 1130.08 1330.81 1146.04C1332.85 1152.07 1332.14 1158.57 1331.74 1164.79C1331.28 1171.85 1330.78 1178.93 1331 1186.01C1331.26 1194.18 1332.74 1212.02 1345.07 1210.12C1352.55 1208.98 1360.25 1200.74 1365.85 1196.07C1374.06 1189.23 1381.8 1181.88 1389.15 1174.12C1390.25 1172.96 1388.49 1171.19 1387.38 1172.36C1380.03 1180.11 1372.29 1187.46 1364.08 1194.3C1359.69 1197.97 1355.22 1201.68 1350.47 1204.88C1344.29 1209.05 1338.25 1207.16 1335.78 1200.79C1330.94 1188.28 1333.89 1172.81 1334.54 1159.8C1334.93 1152.06 1333.96 1134.35 1322.1 1136.5C1315 1137.78 1310.09 1145.44 1307.13 1151.35C1303.76 1158.05 1301.01 1164.95 1297.22 1171.44C1293.46 1177.88 1289.14 1185.55 1282.88 1189.88C1278.16 1193.14 1272.63 1191.59 1272.1 1185.26C1271.86 1182.36 1272.17 1179.48 1271.83 1176.58C1270.85 1168.18 1267.65 1154.32 1258.57 1150.92C1245.96 1146.21 1236.77 1167.42 1233.18 1175.73C1229.51 1184.23 1226.66 1195.12 1219.87 1201.76C1215.08 1206.43 1207.31 1208.06 1202.41 1202.65C1198.83 1198.69 1197.93 1192.45 1197.43 1187.37C1195.48 1167.61 1198.43 1147.19 1192.79 1127.82C1191.17 1122.23 1188.07 1115.33 1181.16 1117.78C1169.56 1121.88 1164.29 1136.94 1160.34 1147.32C1154.02 1163.9 1147.03 1179.78 1134.72 1192.97C1127.63 1200.58 1117.34 1209.98 1106.23 1209.76C1091.65 1209.46 1089.83 1194.92 1090.25 1183.77C1090.66 1172.86 1090.23 1161.93 1089.99 1151.02C1089.8 1142.24 1090.99 1131.77 1086.65 1123.73C1083.88 1118.61 1078.02 1114.53 1071.98 1115.6C1066.84 1116.51 1063.03 1121.35 1060.95 1125.8C1055.37 1137.76 1056.85 1152.2 1055.59 1165C1054.87 1172.31 1053.57 1184.86 1045.01 1187.4C1034.24 1190.61 1033.9 1174.42 1024.84 1174.11C1015.24 1173.79 1015.16 1196.85 1013.5 1202.92C1011.45 1210.4 1007.55 1219.34 999.026 1220.96C993.751 1221.97 990.238 1218.65 988.19 1214.11C983.533 1203.8 984.105 1190.81 984.395 1179.76C984.611 1171.51 985.348 1163.28 985.493 1155.03C985.649 1146.13 987.419 1107.91 970.449 1112.01C958.709 1114.85 955.703 1130.01 954.659 1140.05C953.268 1153.44 954.445 1167.15 950.625 1180.22C949.632 1183.62 948.314 1187.54 945.47 1189.85C942.507 1192.26 938.972 1190.2 937.512 1187.1C936.521 1185 936.569 1182.36 936.374 1180.11C936.044 1176.31 935.566 1170.65 931.327 1169.05C926.425 1167.2 922.407 1172.21 920.932 1176.24C919.105 1181.22 919.701 1187.78 914.637 1191.08C909.555 1194.4 903.59 1191.27 901.138 1186.36C898.584 1181.25 899.507 1175.03 899.755 1169.53C900.007 1163.94 899.767 1158.36 899.125 1152.81C898.037 1143.4 896.276 1133.07 892.406 1124.36C887.068 1112.34 875.174 1115.53 868.096 1124.17C856.08 1138.83 853.056 1161.12 850.452 1179.2C849.617 1185 848.513 1191.02 845.918 1196.33C844.588 1199.05 842.679 1202.27 839.442 1202.82C834.028 1203.73 829.548 1197.49 828.36 1193.05C826.428 1185.84 828.252 1160.25 813.231 1168.11C808.569 1170.54 808.122 1176.37 804.146 1179.29C797.929 1183.87 797.547 1173.75 797.503 1169.84C797.436 1163.96 797.402 1158.09 797.351 1152.21C797.283 1144.33 797.884 1136.13 796.923 1128.29C796.309 1123.28 794.781 1117.44 789.609 1115.37C775.61 1109.78 765.165 1132.38 761.409 1141.85C753.443 1161.94 747.061 1183.41 735.855 1201.99C729.702 1212.2 719.209 1219.84 708.669 1210.29C701.138 1203.47 698.366 1193.44 698.168 1183.62C697.911 1170.85 701.734 1145.05 686.432 1138.41C673.097 1132.63 658.966 1151.02 653.326 1160.48C643.689 1176.64 641.198 1196.38 630.25 1211.64C629.307 1212.94 631.474 1214.19 632.405 1212.89Z" fill="#9192FF"/>
<path d="M1377.88 1621.25H1188.98C1181.73 1621.25 1175.86 1615.37 1175.86 1608.13V1483.75C1175.86 1476.5 1181.73 1470.63 1188.98 1470.63H1377.88C1385.13 1470.63 1391.01 1476.5 1391.01 1483.75V1608.13C1391.01 1615.37 1385.13 1621.25 1377.88 1621.25Z" fill="#E0E0FF"/>
<path d="M1386.26 1535.89H1180.6V1538.27H1386.26V1535.89Z" fill="#B7B7FF"/>
<path d="M1283.43 1557.73C1273.91 1557.73 1266.16 1549.98 1266.16 1540.46V1535.89H1300.7V1540.46C1300.7 1549.98 1292.96 1557.73 1283.43 1557.73ZM1268.55 1538.27V1540.46C1268.55 1548.67 1275.22 1555.34 1283.43 1555.34C1291.64 1555.34 1298.32 1548.67 1298.32 1540.46V1538.27H1268.55Z" fill="#B7B7FF"/>
<path d="M1324.13 1478.32H1321.74V1447.43C1321.74 1443.27 1318.36 1439.88 1314.2 1439.88H1252.67C1248.51 1439.88 1245.12 1443.27 1245.12 1447.43V1478.32H1242.74V1447.43C1242.74 1441.95 1247.19 1437.5 1252.67 1437.5H1314.2C1319.67 1437.5 1324.13 1441.95 1324.13 1447.43V1478.32Z" fill="#B7B7FF"/>
<path d="M1249.8 1470.63H1238.19V1483.13H1249.8V1470.63Z" fill="#B7B7FF"/>
<path d="M1328.71 1470.63H1317.09V1483.13H1328.71V1470.63Z" fill="#B7B7FF"/>
<path d="M779.174 1493.42H625.824V1621.25H779.174V1493.42Z" fill="#E0E0FF"/>
<path d="M790.468 1484.38H614.531V1511.22H790.468V1484.38Z" fill="#B7B7FF"/>
<path opacity="0.6" d="M779.174 1621.25H625.824V1510.83C625.824 1510.83 687.924 1604.18 779.174 1621.25Z" fill="#B7B7FF"/>
<path d="M1630.66 528.848C1578.15 528.848 1535.58 571.417 1535.58 623.929C1535.58 656.669 1552.13 685.54 1577.32 702.642L1573.67 746.445L1609.36 716.583C1616.21 718.152 1623.33 719.009 1630.66 719.009C1683.17 719.009 1725.74 676.44 1725.74 623.928C1725.74 571.416 1683.17 528.848 1630.66 528.848Z" fill="white"/>
<path d="M1572.17 749.325L1576.01 703.263C1549.9 685.243 1534.33 655.642 1534.33 623.928C1534.33 570.811 1577.54 527.597 1630.66 527.597C1683.78 527.597 1726.99 570.811 1726.99 623.928C1726.99 677.045 1683.78 720.259 1630.66 720.259C1623.66 720.259 1616.61 719.479 1609.68 717.938L1572.17 749.325ZM1630.66 530.097C1578.92 530.097 1536.83 572.189 1536.83 623.928C1536.83 655.056 1552.23 684.095 1578.02 701.607L1578.62 702.017L1575.16 743.564L1609.03 715.225L1609.63 715.364C1616.57 716.952 1623.64 717.758 1630.66 717.758C1682.39 717.758 1724.49 675.666 1724.49 623.927C1724.49 572.188 1682.4 530.097 1630.66 530.097Z" fill="#5254CF"/>
<path d="M1646.84 643.931H1618.57V673.27H1646.84V643.931Z" fill="white"/>
<path d="M1648.09 674.52H1617.32V642.682H1648.09V674.52ZM1619.82 672.02H1645.59V645.182H1619.82V672.02Z" fill="#5254CF"/>
<path d="M1655.64 623.66C1655.64 610.633 1644.78 600.143 1631.62 600.747C1619.64 601.297 1609.91 611.381 1609.77 623.372C1609.72 627.638 1610.83 631.634 1612.81 635.07C1616.38 641.248 1618.57 648.12 1618.57 655.252V660.468H1646.84V655.046C1646.84 648.008 1649.01 641.228 1652.55 635.146C1654.51 631.77 1655.64 627.849 1655.64 623.66Z" fill="white"/>
<path d="M1648.09 661.716H1617.32V655.251C1617.32 648.699 1615.44 642.12 1611.73 635.694C1609.58 631.959 1608.47 627.692 1608.52 623.356C1608.67 610.777 1619.01 600.074 1631.56 599.496C1638.3 599.194 1644.59 601.558 1649.41 606.165C1654.24 610.774 1656.89 616.988 1656.89 623.659C1656.89 627.92 1655.76 632.109 1653.63 635.772C1649.96 642.089 1648.09 648.574 1648.09 655.043V661.716ZM1619.82 659.216H1645.59V655.044C1645.59 648.126 1647.57 641.22 1651.47 634.515C1653.38 631.233 1654.39 627.479 1654.39 623.659C1654.39 617.676 1652.01 612.106 1647.68 607.973C1643.36 603.843 1637.72 601.713 1631.68 601.994C1620.43 602.512 1611.16 612.108 1611.02 623.387C1610.97 627.274 1611.97 631.098 1613.89 634.444C1617.82 641.254 1619.82 648.255 1619.82 655.251L1619.82 659.216Z" fill="#5254CF"/>
<path d="M1627.47 620.967C1625.7 623.499 1622.72 624.472 1620.82 623.14C1618.92 621.808 1618.82 618.674 1620.59 616.142C1622.37 613.61 1625.35 612.637 1627.25 613.969C1629.15 615.301 1629.25 618.435 1627.47 620.967Z" fill="white"/>
<path d="M1622.77 624.99C1621.8 624.99 1620.88 624.712 1620.1 624.162C1618.85 623.287 1618.13 621.855 1618.08 620.13C1618.03 618.539 1618.56 616.868 1619.57 615.423C1620.58 613.979 1621.97 612.911 1623.49 612.418C1625.11 611.888 1626.74 612.085 1627.97 612.947C1629.2 613.809 1629.94 615.278 1629.99 616.979C1630.04 618.57 1629.51 620.241 1628.49 621.685C1627.48 623.13 1626.09 624.198 1624.58 624.692C1623.97 624.891 1623.36 624.99 1622.77 624.99ZM1625.28 614.621C1624.96 614.621 1624.62 614.678 1624.26 614.794C1623.27 615.116 1622.31 615.868 1621.62 616.858C1620.92 617.849 1620.54 619.013 1620.58 620.05C1620.6 620.969 1620.95 621.702 1621.53 622.115C1622.13 622.525 1622.93 622.602 1623.8 622.313C1624.8 621.986 1625.74 621.252 1626.45 620.248C1627.14 619.258 1627.52 618.095 1627.49 617.057C1627.46 616.138 1627.12 615.405 1626.53 614.992C1626.18 614.747 1625.75 614.621 1625.28 614.621Z" fill="#5254CF"/>
<path d="M1588.67 583.406L1587.11 585.363L1601.35 596.668L1602.91 594.711L1588.67 583.406Z" fill="#5254CF"/>
<path d="M1631.84 559.618L1629.34 559.698L1630.12 584.097L1632.62 584.017L1631.84 559.618Z" fill="#5254CF"/>
<path d="M1673.84 578.484L1659.09 592.834L1660.83 594.626L1675.58 580.276L1673.84 578.484Z" fill="#5254CF"/>
<path d="M437.608 648.948C437.608 602.779 400.181 565.352 354.012 565.352C307.843 565.352 270.416 602.779 270.416 648.948C270.416 695.117 307.843 732.544 354.012 732.544C361.598 732.544 368.94 731.515 375.927 729.621L404.946 753.902L401.908 717.444C423.486 702.328 437.608 677.294 437.608 648.948Z" fill="white"/>
<path d="M406.44 756.783L375.623 730.996C368.557 732.853 361.291 733.794 354.012 733.794C307.227 733.794 269.166 695.732 269.166 648.948C269.166 602.163 307.228 564.102 354.012 564.102C400.797 564.102 438.858 602.164 438.858 648.948C438.858 676.346 425.546 702.124 403.212 718.053L406.44 756.783ZM376.23 728.244L403.452 751.021L400.603 716.833L401.19 716.42C423.212 700.993 436.358 675.769 436.358 648.947C436.358 603.542 399.417 566.601 354.012 566.601C308.607 566.601 271.666 603.542 271.666 648.947C271.666 694.352 308.607 731.293 354.012 731.293C361.287 731.293 368.55 730.325 375.6 728.415L376.23 728.244Z" fill="#5254CF"/>
<path d="M352.911 675.025L329.209 651.323L330.976 649.555L352.093 670.672L376.568 614.92L378.858 615.926L352.911 675.025Z" fill="#5254CF"/>
<path d="M808.688 758.518L786.269 771.644L547.906 911.318C540.572 915.617 531.986 914.604 528.583 909.031L528.573 909.014C525.17 903.441 528.192 895.342 535.366 890.781L768.035 742.837L790.423 728.604L808.688 758.518Z" fill="#5254CF"/>
<path opacity="0.6" d="M808.688 758.518L786.269 771.644C781.894 767.453 778.048 762.69 774.806 757.38C771.974 752.742 769.725 747.86 768.035 742.839L790.423 728.605L808.688 758.518Z" fill="#1B1B43"/>
<path d="M777.193 766.002C773.658 768.16 769.043 767.045 766.885 763.51C764.727 759.975 765.843 755.36 769.377 753.202C772.912 751.044 777.527 752.159 779.685 755.694C781.844 759.229 780.728 763.844 777.193 766.002Z" fill="white"/>
<path d="M890.162 806.897C955.696 806.897 1008.82 753.771 1008.82 688.237C1008.82 622.703 955.696 569.577 890.162 569.577C824.628 569.577 771.502 622.703 771.502 688.237C771.502 753.771 824.628 806.897 890.162 806.897Z" fill="#5254CF"/>
<path d="M890.16 784.487C943.318 784.487 986.41 741.395 986.41 688.237C986.41 635.08 943.318 591.987 890.16 591.987C837.003 591.987 793.91 635.08 793.91 688.237C793.91 741.395 837.003 784.487 890.16 784.487Z" fill="white"/>
<mask id="mask0_1612_2597" style="mask-type:luminance" maskUnits="userSpaceOnUse" x="793" y="591" width="194" height="194">
<path d="M890.16 784.487C943.318 784.487 986.41 741.395 986.41 688.237C986.41 635.08 943.318 591.987 890.16 591.987C837.003 591.987 793.91 635.08 793.91 688.237C793.91 741.395 837.003 784.487 890.16 784.487Z" fill="white"/>
</mask>
<g mask="url(#mask0_1612_2597)">
<path d="M851.029 720.77H820.859V905.937H851.029V720.77Z" fill="#B7B7FF"/>
<path d="M905.244 696.349H875.074V907.187H905.244V696.349Z" fill="#E0E0FF"/>
<path d="M959.459 670.127H929.289V903.854H959.459V670.127Z" fill="#B7B7FF"/>
</g>
<mask id="mask1_1612_2597" style="mask-type:luminance" maskUnits="userSpaceOnUse" x="793" y="591" width="194" height="194">
<path d="M890.16 784.487C943.318 784.487 986.41 741.395 986.41 688.237C986.41 635.08 943.318 591.987 890.16 591.987C837.003 591.987 793.91 635.08 793.91 688.237C793.91 741.395 837.003 784.487 890.16 784.487Z" fill="white"/>
</mask>
<g mask="url(#mask1_1612_2597)">
<path d="M925.814 634.758L787.568 678.982L788.711 682.554L926.957 638.33L925.814 634.758Z" fill="#B7B7FF"/>
<path d="M917.151 652.65L914.097 650.475L923.201 637.692L910.016 633.18L911.232 629.633L925.789 634.618C926.556 634.828 927.233 635.488 927.498 636.354C927.763 637.218 927.57 638.145 926.984 638.833L917.151 652.65ZM924.558 638.157C924.597 638.173 924.637 638.188 924.679 638.199L924.558 638.157ZM924.03 636.528C924.01 636.55 923.992 636.576 923.975 636.606L924.03 636.528Z" fill="#B7B7FF"/>
</g>
<path d="M652.727 1571.53C637.627 1571.75 615.977 1572.1 601.977 1572.3C602.127 1565.53 602.377 1558.77 602.677 1552.6C603.352 1537.2 604.227 1525.3 604.227 1525.3L647.502 1525C647.502 1525 647.302 1529.3 647.502 1535.75C647.777 1545.3 648.902 1559.55 652.727 1571.53Z" fill="#FFBC96"/>
<path d="M669.488 1592.69C661.186 1590.12 655.99 1581.64 652.737 1571.52C637.627 1571.75 615.978 1572.09 601.967 1572.3C601.591 1588.25 601.731 1604.29 603.261 1613.3C603.924 1617.21 607.274 1620.07 611.236 1620.07H685.606C691.667 1620.07 696.897 1615 696.269 1608.98C695.517 1601.76 687.008 1598.11 669.488 1592.69Z" fill="#1B1B43"/>
<path d="M647.501 1535.75L602.676 1552.6C603.351 1537.2 604.226 1525.3 604.226 1525.3L647.501 1525C647.501 1525 647.301 1529.3 647.501 1535.75Z" fill="#D28572"/>
<path d="M625.027 1619.42C623.44 1611.89 620.286 1606.65 615.651 1603.85C609.578 1600.19 602.912 1602.01 602.845 1602.03L602.154 1599.63C602.465 1599.54 609.887 1597.47 616.911 1601.69C622.182 1604.86 625.736 1610.65 627.474 1618.91L625.027 1619.42Z" fill="#656590"/>
<path d="M430.475 1516.9C430.475 1516.9 425.675 1528.05 422.225 1541.77C420.575 1548.32 419.25 1555.47 418.9 1562.25C404.675 1557.12 384.325 1549.77 371.125 1545C377.25 1529.95 383.8 1515.2 387.325 1507.45L387.425 1507.25C388.95 1503.85 389.875 1501.85 389.875 1501.85L430.475 1516.9Z" fill="#FFBC96"/>
<path d="M427.073 1587.98C420.218 1582.63 418.359 1572.87 418.898 1562.25C404.683 1557.12 384.317 1549.77 371.137 1545.01C365.142 1559.79 359.595 1574.85 357.836 1583.82C357.073 1587.7 359.193 1591.57 362.899 1592.97L432.455 1619.29C438.124 1621.44 444.809 1618.55 446.355 1612.69C448.205 1605.67 441.54 1599.25 427.073 1587.98Z" fill="#1B1B43"/>
<path d="M430.476 1516.9C430.476 1516.9 425.676 1528.05 422.226 1541.77L385.951 1511.25L387.326 1507.45L387.426 1507.25C388.951 1503.85 389.876 1501.85 389.876 1501.85L430.476 1516.9Z" fill="#D28572"/>
<path d="M374.026 1596.83L371.809 1595.67C381.124 1577.82 364.709 1568.97 364.006 1568.61L365.163 1566.39C365.359 1566.49 384.482 1576.78 374.026 1596.83Z" fill="#656590"/>
<path d="M668.75 1533.75L589.175 1540L572.5 1255.82L547.85 1162.4L515.6 1040.22L513.925 1033.85L506.15 1004.4L505 1000L520.225 998.625L602.5 991.25L607.475 1013.75V1013.78L656.75 1236.6C658.35 1243.85 659.3 1251.25 659.55 1258.68L668.75 1533.75Z" fill="#5254CF"/>
<path d="M554.175 1099.18L547.85 1162.4L537.6 1264.75C536.425 1276.52 533.8 1288.15 529.775 1299.28L445 1533.75L373.75 1506.25L440 1266.25C457.075 1167.45 454.25 1091.63 458.65 1043.53C458.925 1040.53 459.225 1037.65 459.55 1034.88C461.325 1020.15 464.075 1008.48 468.75 1000L506.15 1004.4L532.5 1007.5L538.225 1031.72L539.375 1036.62L554.175 1099.18Z" fill="#5254CF"/>
<path opacity="0.6" d="M607.475 1013.75L608.333 1023.33C608.333 1023.33 496.666 1053.33 458.65 1043.53C458.925 1040.53 459.225 1037.65 459.55 1034.88C461.325 1020.15 464.075 1008.48 468.75 1000L506.15 1004.4L505 1000L520.225 998.625L602.5 991.25L607.475 1013.75Z" fill="#1B1B43"/>
<path d="M571.288 1257.18L533.959 1109.73L503.369 1099.94L504.131 1097.56L536.041 1107.77L536.212 1108.44L573.712 1256.57L571.288 1257.18Z" fill="#1B1B43"/>
<path d="M628.565 1263.67L627.686 1261.33C647.304 1253.97 657.967 1247.14 658.072 1247.08L659.429 1249.18C658.99 1249.46 648.462 1256.21 628.565 1263.67Z" fill="#1B1B43"/>
<path d="M533.001 1288.74C532.813 1288.73 513.935 1286.8 495.303 1281.83L495.948 1279.42C514.387 1284.33 533.063 1286.24 533.25 1286.26L533.001 1288.74Z" fill="#1B1B43"/>
<path d="M380.391 1484.65L379.527 1487L452.026 1513.66L452.89 1511.31L380.391 1484.65Z" fill="#1B1B43"/>
<path d="M667.424 1512.46L588.049 1518.06L588.225 1520.55L667.6 1514.96L667.424 1512.46Z" fill="#1B1B43"/>
<path d="M499.375 819.167L465.559 832.779C455.733 836.734 447.891 844.445 443.771 854.203L415.387 922.135C409.699 935.749 413.486 951.479 424.746 961.013C434.045 968.886 446.857 971.152 458.293 966.948L482.291 958.125L499.375 819.167Z" fill="#FFB147"/>
<path d="M733.252 757.449C726.932 760.573 719.642 773.869 722.408 778.652C724.675 782.572 729.953 777.266 731.694 775.446C734.892 772.105 743.148 763.18 738.59 758.108C737.137 756.491 735.242 756.465 733.252 757.449Z" fill="#FFBC96"/>
<path d="M717.954 762.253C712.708 766.963 709.267 781.73 713.219 785.592C716.457 788.756 720.112 782.227 721.3 780.006C723.48 775.927 729.029 765.108 723.274 761.45C721.437 760.283 719.606 760.769 717.954 762.253Z" fill="#FFBC96"/>
<path d="M707.8 769.672C702.501 774.219 698.77 788.191 702.601 791.739C705.74 794.646 709.503 788.422 710.727 786.306C712.976 782.42 718.708 772.117 713.087 768.801C711.293 767.743 709.469 768.24 707.8 769.672Z" fill="#FFBC96"/>
<path d="M698.124 773.129C692.825 777.676 689.094 791.648 692.925 795.196C696.064 798.103 699.827 791.879 701.051 789.763C703.3 785.877 709.032 775.574 703.41 772.257C701.617 771.2 699.793 771.697 698.124 773.129Z" fill="#FFBC96"/>
<path d="M499.375 819.562L464.167 880.09C464.167 880.09 473.334 980.092 466.667 992.373C460 1004.65 445 1014.3 454.167 1021.32C463.334 1028.34 535.834 1040.62 614.167 1022.2C635.834 1016.06 620.834 1004.65 615.834 999.391C610.834 994.128 604.167 861.668 604.167 861.668L559.118 820.618L525.834 811.667L499.375 819.562Z" fill="#FFB147"/>
<path opacity="0.2" d="M558.439 820.625C552.189 831.563 478.626 842.807 499.376 819.167L520.626 814.688L558.439 820.625Z" fill="#1B1B43"/>
<path d="M653.751 891.875L624.724 848.82C617.992 837.88 607.015 830.23 594.42 827.702L559.168 820.625L580.001 898.75C580.001 898.75 612.501 944.375 641.876 955C668.239 964.536 703.205 948.875 722.486 845.831L678.774 839.87L653.751 891.875Z" fill="#FFB147"/>
<path d="M746.458 784.584C742.04 784.02 726.875 806.876 726.875 806.876L702.366 815.222C693.39 818.279 686.017 824.813 681.906 833.358L678.773 839.87L722.485 845.831C723.205 841.985 723.909 838.052 724.584 833.959C739.583 820.418 756.25 785.834 746.458 784.584Z" fill="#FFBC96"/>
<path d="M565.167 724.039L574.032 736.303C575.54 738.389 574.605 741.215 572.085 742.188L562.623 745.84L555.945 731.016L565.167 724.039Z" fill="#D28572"/>
<path d="M507.852 791.4C510.077 768.85 509.177 746.25 509.177 746.25L549.577 749.175C549.227 753.675 549.177 758.325 549.352 763C549.627 770.375 550.452 777.85 551.602 785.075C552.227 789.05 552.952 792.95 553.727 796.7L507.852 791.4Z" fill="#FFBC96"/>
<path d="M551.601 785.075C534.501 777.975 527.926 762.7 527.926 762.7L549.351 763C549.626 770.375 550.451 777.85 551.601 785.075Z" fill="#D28572"/>
<path d="M507.845 791.389L499.377 819.167C518.871 823.856 538.831 824.06 559.169 820.625L553.731 796.693L507.845 791.389Z" fill="#FFF5E8"/>
<path d="M564.168 703.333L568.353 759.23C568.727 761.616 567.266 763.813 565.202 765.74C561.661 769.046 556.8 770.556 551.96 770.355L523.335 769.166L502.918 746.249L518.751 697.499L547.501 697.082L564.168 703.333Z" fill="#FFBC96"/>
<path d="M517.189 736.563C517.189 736.563 524.689 760.001 508.751 771.876C491.563 766.251 459.688 714.063 499.376 697.501C499.376 697.501 510.314 669.688 540.001 680.001C566.206 689.104 573.126 705.001 573.126 705.001C573.126 705.001 554.688 718.751 533.126 705.939C533.126 705.939 535.314 733.75 517.189 736.563Z" fill="#1B1B43"/>
<path d="M527.765 726.989C532.432 732.768 531.97 740.881 526.734 745.109C521.498 749.337 513.47 748.079 508.803 742.3C504.136 736.521 504.598 728.408 509.834 724.18C515.071 719.952 523.099 721.209 527.765 726.989Z" fill="#FFBC96"/>
<path d="M522.008 740.438C521.906 740.032 519.412 730.501 512.699 731.959L512.303 730.126C519.09 728.656 522.815 735.932 523.826 739.983L522.008 740.438Z" fill="#1B1B43"/>
<path opacity="0.4" d="M557.683 740.312C558.741 735.833 555.967 731.345 551.488 730.287C547.01 729.23 542.521 732.003 541.464 736.482C540.406 740.961 543.18 745.449 547.659 746.507C552.137 747.564 556.626 744.791 557.683 740.312Z" fill="#FE5B52"/>
<path d="M463.252 1026.48C455.666 1024.68 451.377 1021.86 450.135 1017.88C448.115 1011.39 454.818 1003.95 460.731 997.39C461.654 996.367 462.546 995.377 463.363 994.434C464.999 992.547 466.125 990.307 466.621 987.956C472.104 961.967 463.016 881.046 462.925 880.23L465.408 879.949C465.788 883.29 474.634 962.09 469.068 988.471C468.486 991.237 467.166 993.865 465.253 996.072C464.425 997.027 463.522 998.029 462.589 999.064C457.392 1004.83 450.925 1012 452.523 1017.13C453.465 1020.16 457.27 1022.49 463.83 1024.05L463.252 1026.48Z" fill="#1B1B43"/>
<path d="M608.39 1024.58L608.278 1022.09C616.819 1021.7 622.043 1019.67 623.384 1016.19C624.737 1012.68 622.271 1007.46 616.62 1001.86C615.173 1000.42 614.165 998.569 613.706 996.503C609.213 976.299 604.426 909.511 604.379 908.839L606.872 908.661C606.92 909.332 611.693 975.935 616.148 995.961C616.502 997.559 617.275 998.984 618.381 1000.08C624.863 1006.51 627.469 1012.55 625.716 1017.09C623.965 1021.63 618.135 1024.15 608.39 1024.58Z" fill="#1B1B43"/>
<path d="M649.248 903.05L647.002 901.952L678.046 838.511L722.653 844.593L722.316 847.071L679.498 841.233L649.248 903.05Z" fill="#1B1B43"/>
<path d="M1401.25 747.083C1386.46 738.125 1383.12 712.5 1396.87 704.791C1410.62 697.083 1419.37 703.958 1419.37 703.958C1419.37 703.958 1465.49 687.136 1482.92 730C1496.04 762.292 1485.62 779.167 1497.08 795.417C1510.14 813.934 1531.04 830.625 1503.75 863.125L1440 847.5L1423.33 768.958L1401.25 747.083Z" fill="#1B1B43"/>
<path d="M1621.88 1466.99L1575 1487.61C1575 1487.61 1581.73 1505.02 1587.5 1525.26L1635.7 1509.86L1621.88 1466.99Z" fill="#FFBC96"/>
<path d="M1635.7 1509.86L1587.5 1525.26C1594.1 1548.45 1599.43 1575.37 1591.9 1584.15C1582.1 1595.57 1573.56 1605.01 1571.51 1612.95C1570.3 1617.62 1575.1 1621.56 1579.4 1619.39L1641.68 1587.98C1652 1582.77 1656.45 1570.41 1651.81 1559.82L1635.7 1509.86Z" fill="#1B1B43"/>
<path d="M1640.89 1525.98L1591.71 1541.37L1592.46 1543.76L1641.64 1528.37L1640.89 1525.98Z" fill="#656590"/>
<path d="M1582.76 1596.64L1582.24 1594.2C1594.18 1591.66 1601.12 1587.28 1602.89 1581.17C1605.79 1571.11 1593.83 1559.35 1593.71 1559.23L1595.45 1557.44C1595.99 1557.96 1608.6 1570.38 1605.29 1581.86C1603.25 1588.93 1595.67 1593.9 1582.76 1596.64Z" fill="#656590"/>
<path d="M1440.83 1512.5L1386.67 1517.5C1386.67 1517.5 1388.07 1536.73 1386.41 1556.03L1438.51 1555.26L1440.83 1512.5Z" fill="#FFBC96"/>
<path d="M1386.41 1556.03C1384.94 1573.11 1381.06 1590.25 1371.67 1594.17C1351.67 1602.5 1335.83 1608.33 1337.5 1620H1414.39C1425.95 1620 1435.49 1610.96 1436.12 1599.42L1438.51 1555.26L1386.41 1556.03Z" fill="#1B1B43"/>
<path d="M1386.68 1567.79L1386.64 1570.29L1436.64 1571.12L1436.68 1568.62L1386.68 1567.79Z" fill="#656590"/>
<path d="M1370.39 1603.63C1367.07 1603.63 1363.2 1603.14 1358.79 1602.16L1359.34 1599.72C1370.3 1602.17 1377.75 1601.41 1380.86 1597.54C1385.01 1592.39 1380.78 1583.12 1380.74 1583.03L1383.01 1581.97C1383.21 1582.41 1387.93 1592.76 1382.81 1599.11C1380.39 1602.12 1376.23 1603.63 1370.39 1603.63Z" fill="#656590"/>
<path d="M1440.13 1525.33C1439.48 1525.55 1438.88 1525.7 1438.33 1525.83C1427.5 1528.33 1391.68 1525.83 1391.68 1525.83C1390.05 1525.48 1388.5 1525.03 1387.03 1524.5C1353.53 1512.3 1355.8 1453.73 1360.83 1402.5C1365.45 1355.53 1345.83 1115.83 1359.38 1034.38L1444.18 1015.83L1444.68 1030.1L1445.7 1059.25L1447.5 1110.83C1447.5 1110.83 1450.7 1160.73 1455.08 1223.25C1461.63 1317 1470.83 1439.18 1475.83 1464.18C1483.8 1503.95 1453.68 1521.38 1440.13 1525.33Z" fill="#5254CF"/>
<path d="M1631.97 1473.4C1630.1 1475.58 1628.03 1477.5 1625.8 1479.18C1614.4 1487.95 1599.03 1491.17 1585.53 1494.82C1583.15 1495.47 1580.68 1495.95 1578.15 1496.25C1565.58 1497.8 1551.85 1494.93 1545.97 1484.25C1515.87 1429.4 1481.95 1320.53 1455.07 1223.25C1435.42 1152.22 1419.55 1087.35 1411.65 1054.28C1408.18 1039.65 1406.25 1031.25 1406.25 1031.25L1444.68 1030.1L1510 1028.12C1511.77 1036.93 1513.8 1046.2 1516.07 1055.82C1538.37 1151 1582.3 1281.85 1599.5 1331.9C1609.82 1361.88 1625.45 1388.63 1632.32 1420.03C1635.97 1436.65 1644.47 1458.98 1631.97 1473.4Z" fill="#5254CF"/>
<path opacity="0.6" d="M1516.07 1055.83C1489.4 1060.2 1465.87 1060.78 1445.7 1059.25C1433 1058.3 1421.63 1056.5 1411.65 1054.28C1377.43 1046.73 1359.38 1034.38 1359.38 1034.38L1444.18 1015.83L1444.68 1030.1L1510 1028.13C1511.77 1036.93 1513.8 1046.2 1516.07 1055.83Z" fill="#1B1B43"/>
<path d="M1453.87 1223.59L1427.72 1130.96L1400.82 1121.17L1401.68 1118.83L1429.78 1129.04L1429.95 1129.66L1456.28 1222.91L1453.87 1223.59Z" fill="#1B1B43"/>
<path d="M1614.42 1484.79L1612.25 1483.54C1624.86 1461.64 1599.57 1394.12 1567.55 1308.64C1536.46 1225.64 1497.76 1122.35 1483.76 1030.19L1486.23 1029.81C1500.19 1121.71 1538.84 1224.87 1569.89 1307.77C1602.14 1393.86 1627.62 1461.86 1614.42 1484.79Z" fill="#1B1B43"/>
<path d="M1377.55 955.65C1374.53 976.775 1370 1004.38 1370 1004.38H1320.62L1332.65 938.3L1335.62 921.875C1335.62 921.875 1378.12 931.875 1380 931.875C1380.73 931.875 1379.43 942.525 1377.55 955.65Z" fill="#FFBC96"/>
<path d="M1377.55 955.65L1375.3 960.625L1332.65 938.3L1335.62 921.875C1335.62 921.875 1378.12 931.875 1380 931.875C1380.72 931.875 1379.42 942.525 1377.55 955.65Z" fill="#D28572"/>
<path d="M1366.88 940.625C1366.88 940.625 1375 988.125 1359.38 1034.38C1359.38 1034.38 1436.88 1058.12 1510 1028.12L1493.12 921.25L1498.75 866.875L1386.88 868.125L1348.75 880.625L1366.88 940.625Z" fill="#1B1B43"/>
<path d="M1530.36 860.789C1525.42 846.678 1514.04 835.777 1499.72 831.455L1478.71 825.11C1470.25 837.426 1455.16 853.125 1433.12 853.125C1407.22 853.125 1390.97 838.25 1382.01 826.1L1367.5 829.638C1351.92 833.436 1339.81 845.696 1336.21 861.322L1320 931.667L1366.88 940.625L1368.12 886.875L1490 881.25L1493.12 921.25C1493.12 921.25 1528.33 905.833 1551.67 921.667L1530.36 860.789Z" fill="#1B1B43"/>
<path d="M1583.75 856.25C1577 869.45 1567.92 926.675 1563.75 971.25C1562.37 985.9 1558.2 997.45 1552.42 1005.88C1543.92 1018.33 1531.87 1023.98 1520.17 1022.73C1515.67 1022.28 1511.25 1020.8 1507.07 1018.33C1486.95 1006.4 1489.52 955.45 1491.77 932.525C1492.47 925.625 1493.12 921.25 1493.12 921.25C1505 914.7 1523.75 913.75 1523.75 913.75C1524 911.175 1524.3 908.575 1524.6 905.9C1527.15 882.875 1531.02 856.75 1534.37 839.375C1538.12 820 1545.62 827.2 1545.62 827.2C1549.37 820.3 1555 826.25 1555 826.25C1560 815.3 1566.25 825.625 1566.25 825.625C1574.05 814.375 1578.32 831.25 1578.32 831.25C1578.32 831.25 1602.55 811.3 1606.67 817.075C1608.75 820 1593.32 837.5 1583.75 856.25Z" fill="#FFBC96"/>
<path d="M1391.88 991.769H1286.88V1004.38H1391.88V991.769Z" fill="white"/>
<path d="M1331.84 1004.49H1223.54C1218.33 1004.49 1213.59 1001.46 1211.41 996.726L1169.24 905.155C1167.84 902.111 1170.06 898.639 1173.41 898.639H1274.99C1279.93 898.639 1284.41 901.51 1286.48 905.991L1331.84 1004.49Z" fill="#5254CF"/>
<path d="M1367.5 1004.38C1366.17 1009.3 1364.4 1013.83 1362 1017.85C1356.2 1027.65 1346.9 1034.38 1332.57 1036.18C1327.67 1036.83 1322.2 1036.85 1316.05 1036.25C1266.42 1031.33 1252.07 1004.18 1252.07 1004.18C1252.07 1004.18 1246.55 992.651 1258.27 995.301C1258.27 995.301 1260.47 987.976 1269.52 995.626C1269.52 995.626 1268.45 986.551 1277.35 994.851C1277.35 994.851 1276.1 985.626 1285.77 993.601C1295.47 1001.55 1302.97 1003.9 1314.7 1004.38C1326.4 1004.85 1367.5 1004.38 1367.5 1004.38Z" fill="#FFBC96"/>
<path d="M1364.94 886.847L1362.45 886.992L1365.57 940.742L1368.06 940.597L1364.94 886.847Z" fill="#5254CF"/>
<path d="M1427.73 872.502C1421.81 872.502 1416.6 871.79 1412.22 870.803C1397.31 867.442 1388.73 860.427 1388.37 860.129L1389.96 858.204C1390.3 858.482 1424.08 885.594 1472.69 856.429L1473.97 858.573C1456.15 869.267 1440.34 872.502 1427.73 872.502Z" fill="#5254CF"/>
<path d="M1492.45 896.642L1489.95 896.832L1491.82 921.416L1494.32 921.225L1492.45 896.642Z" fill="#5254CF"/>
<path d="M1454.17 933.547C1446.13 933.547 1439.44 927.582 1438.53 919.574L1436.53 901.757L1470.9 899.495L1469.88 918.65C1469.45 926.874 1462.65 933.417 1454.42 933.546C1454.34 933.547 1454.25 933.547 1454.17 933.547ZM1439.31 904.078L1441.02 919.293C1441.79 926.1 1447.56 931.13 1454.38 931.046C1461.31 930.937 1467.02 925.434 1467.39 918.517L1468.26 902.174L1439.31 904.078Z" fill="#5254CF"/>
<path d="M1522.36 913.768L1513.37 976.575L1515.85 976.929L1524.83 914.122L1522.36 913.768Z" fill="#D28572"/>
<path d="M1567.23 825.458L1565.38 825.794L1567.26 836.107L1569.11 835.772L1567.23 825.458Z" fill="#D28572"/>
<path d="M1555.98 825.772L1554.13 826.107L1556.01 836.421L1557.86 836.085L1555.98 825.772Z" fill="#D28572"/>
<path d="M1546.61 826.397L1544.76 826.732L1546.63 837.046L1548.48 836.71L1546.61 826.397Z" fill="#D28572"/>
<path d="M1576.67 824.307L1574.91 824.963L1580.74 840.588L1582.5 839.932L1576.67 824.307Z" fill="#D28572"/>
<path d="M1523.72 913.735L1491.62 932.435C1492.32 925.535 1492.97 921.16 1492.97 921.16C1504.84 914.61 1523.72 913.735 1523.72 913.735Z" fill="#D28572"/>
<path opacity="0.4" d="M1552.43 1005.88C1543.93 1018.33 1531.88 1023.98 1520.18 1022.73C1520.05 1021.9 1520 1021.05 1520 1020.2C1520 1009.5 1528.68 1000.83 1539.38 1000.83C1544.4 1000.83 1549 1002.75 1552.43 1005.88Z" fill="#FE5B52"/>
<path opacity="0.4" d="M1362 1017.85C1356.2 1027.65 1346.9 1034.38 1332.57 1036.18C1332.52 1035.58 1332.5 1034.98 1332.5 1034.38C1332.5 1023.68 1341.18 1015 1351.88 1015C1355.58 1015 1359.05 1016.05 1362 1017.85Z" fill="#FE5B52"/>
<path d="M1289.71 1007.9C1284.77 1006.93 1278.59 999.288 1276.52 995.28L1278.18 994.418C1280.32 998.544 1286.15 1005.29 1290.07 1006.06L1289.71 1007.9Z" fill="#D28572"/>
<path d="M1277.97 1009.2C1273.78 1004.89 1269.92 999.522 1268.36 995.84L1270.09 995.11C1271.57 998.597 1275.27 1003.73 1279.32 1007.89L1277.97 1009.2Z" fill="#D28572"/>
<path d="M1266.41 1008.88C1262.22 1004.58 1258.36 999.21 1256.8 995.528L1258.53 994.798C1260 998.285 1263.71 1003.42 1267.75 1007.58L1266.41 1008.88Z" fill="#D28572"/>
<path d="M1478.72 825.1C1470.25 837.425 1455.15 853.125 1433.12 853.125C1407.22 853.125 1390.97 838.25 1382.02 826.1L1408.75 819.575C1409.4 814.775 1409.95 810.1 1410.4 805.675C1410.75 802.2 1411.05 798.875 1411.32 795.725C1411.77 790.55 1412.07 785.875 1412.32 781.875C1412.65 776.4 1412.8 772.25 1412.87 769.95C1412.92 768.625 1412.92 767.925 1412.92 767.925L1450.42 752.925C1450.42 752.925 1449.17 801.675 1460.42 819.575L1478.72 825.1Z" fill="#FFBC96"/>
<path d="M1442.71 786.042C1442.71 786.042 1432.67 797.775 1410.4 805.675C1410.75 802.2 1411.05 798.875 1411.32 795.725C1411.77 790.55 1412.07 785.875 1412.32 781.875L1442.71 786.042Z" fill="#D28572"/>
<path d="M1402.92 722.5C1402.92 722.5 1383.75 774.583 1397.5 784.167C1409.73 792.691 1425.83 793.75 1441.67 789.584L1452.08 754.167L1445.83 719.584L1402.92 722.5Z" fill="#FFBC96"/>
<path d="M1446.67 754.583C1446.67 754.583 1433.13 759.774 1427.5 740.833C1422.92 725.416 1402.92 722.5 1402.92 722.5L1411.04 715L1449.58 713.958L1463.75 731.25L1458.96 753.75L1446.67 754.583Z" fill="#1B1B43"/>
<path d="M1464.16 765.417C1459.79 772.99 1451.39 776.331 1445.42 772.879C1439.44 769.427 1438.13 760.49 1442.51 752.917C1446.88 745.344 1455.27 742.003 1461.25 745.455C1467.23 748.906 1468.53 757.844 1464.16 765.417Z" fill="#FFBC96"/>
<path d="M1448.9 765.948L1447.03 765.929C1447.03 765.81 1447.28 754.148 1458.85 752.819L1459.06 754.682C1449.15 755.819 1448.91 765.535 1448.9 765.948Z" fill="#1B1B43"/>
<path d="M1400.36 749.895C1401.54 749.895 1402.5 748.939 1402.5 747.76C1402.5 746.581 1401.54 745.625 1400.36 745.625C1399.18 745.625 1398.23 746.581 1398.23 747.76C1398.23 748.939 1399.18 749.895 1400.36 749.895Z" fill="#1B1B43"/>
<path d="M1417.07 750.723C1417.07 752.15 1415.91 753.308 1414.48 753.308C1413.06 753.308 1411.9 752.151 1411.9 750.723C1411.9 749.295 1413.06 748.138 1414.48 748.138C1415.91 748.138 1417.07 749.295 1417.07 750.723Z" fill="#1B1B43"/>
<path d="M1405.04 742.894H1398.66C1397.76 742.894 1397.03 742.165 1397.03 741.266C1397.03 740.367 1397.76 739.638 1398.66 739.638H1405.04C1405.94 739.638 1406.67 740.367 1406.67 741.266C1406.67 742.165 1405.94 742.894 1405.04 742.894Z" fill="#1B1B43"/>
<path d="M1421.06 747.37L1414.01 744.388C1413.18 744.038 1412.79 743.083 1413.14 742.255C1413.49 741.427 1414.45 741.04 1415.27 741.39L1422.33 744.37C1423.16 744.72 1423.55 745.676 1423.2 746.504C1422.85 747.332 1421.89 747.72 1421.06 747.37Z" fill="#1B1B43"/>
<path d="M1399.37 763.984C1399 763.984 1398.66 763.766 1398.51 763.403C1397.26 760.363 1397.22 758.027 1398.41 756.46C1399.65 754.81 1401.85 754.585 1402.95 754.585L1405.34 749.961C1405.58 749.5 1406.15 749.321 1406.6 749.557C1407.06 749.795 1407.24 750.36 1407 750.82L1404.05 756.548L1403.41 756.478C1403.38 756.48 1400.92 756.229 1399.9 757.595C1399.16 758.583 1399.28 760.344 1400.24 762.69C1400.44 763.168 1400.21 763.717 1399.73 763.913C1399.61 763.962 1399.49 763.984 1399.37 763.984Z" fill="#1B1B43"/>
<path d="M1399.82 772.127C1403.45 777.245 1408.04 775.059 1411.17 772.438C1406.93 772.709 1402.92 772.473 1399.82 772.127Z" fill="#1B1B43"/>
<path d="M1411.17 772.438C1412.99 770.922 1414.31 769.265 1414.67 768.8C1414.71 768.744 1414.65 768.679 1414.58 768.683C1405.27 769.238 1398.97 768.565 1398.01 768.453C1397.95 768.446 1397.92 768.517 1397.94 768.576C1398.52 770.035 1399.16 771.195 1399.82 772.127C1402.92 772.473 1406.93 772.709 1411.17 772.438Z" fill="white"/>
<path opacity="0.4" d="M1433.2 762.214C1433.2 765.824 1430.28 768.75 1426.67 768.75C1423.06 768.75 1420.13 765.824 1420.13 762.214C1420.13 758.604 1423.06 755.678 1426.67 755.678C1430.28 755.678 1433.2 758.604 1433.2 762.214Z" fill="#FE5B52"/>
<path d="M1835 1618.75H165V1621.25H1835V1618.75Z" fill="#1B1B43"/>
</g>
<defs>
<clipPath id="clip0_1612_2597">
<rect width="2000" height="2000" fill="white"/>
</clipPath>
</defs>
</svg>
