<svg width="500" height="500" viewBox="0 0 500 500" fill="none" xmlns="http://www.w3.org/2000/svg">
<g clip-path="url(#clip0_1612_3056)">
<path d="M249.999 429.997C331.208 429.997 397.041 424.497 397.041 417.713C397.041 410.928 331.208 405.429 249.999 405.429C168.79 405.429 102.957 410.928 102.957 417.713C102.957 424.497 168.79 429.997 249.999 429.997Z" fill="#EBF4FA"/>
<path d="M312.996 396.824C312.996 396.824 335.383 403.174 345.997 403.605L358.708 409.404C360.398 410.175 360.875 412.352 359.663 413.759C358.982 414.55 357.915 414.894 356.9 414.65L345.577 411.93L317.081 412.148L312.996 396.824Z" fill="#F2C7C4"/>
<path d="M305.498 410.268C306.728 417.167 322.422 414.656 327.863 414.656C331.971 414.656 339.777 414.49 343.355 414.409C344.485 414.383 345.476 413.658 345.846 412.59C346.398 410.997 345.373 409.292 343.708 409.031L330.993 407.042L311.578 396.45L305.498 410.268Z" fill="#F2C7C4"/>
<path d="M319.75 398.883L345.997 401.943L353.979 409.581C354.978 410.537 355.081 412.097 354.218 413.176C353.349 414.263 351.79 414.5 350.637 413.72L343.707 409.031L319.748 409.604V398.883H319.75Z" fill="#F2C7C4"/>
<path d="M304.185 261.73C314.299 301.662 318.727 382.289 318.727 382.289L289.033 380.887L285.934 269.346L304.185 261.73Z" fill="#F2C7C4"/>
<path d="M211.081 258.174C196.237 299.25 200.459 338.762 180.908 401.92L198.297 410.268C221.883 368.737 234.614 270.286 234.614 270.286L211.081 258.174Z" fill="#F2C7C4"/>
<path d="M190.798 396.824C190.798 396.824 168.411 403.174 157.797 403.605L145.086 409.404C143.396 410.175 142.919 412.352 144.131 413.759C144.812 414.55 145.879 414.894 146.894 414.65L158.217 411.93L186.713 412.148L190.798 396.824Z" fill="#F2C7C4"/>
<path d="M198.297 410.268C197.067 417.167 181.373 414.656 175.932 414.656C171.824 414.656 164.017 414.49 160.44 414.409C159.31 414.383 158.318 413.658 157.949 412.59C157.397 410.997 158.422 409.292 160.087 409.031L172.802 407.042L192.217 396.45L198.297 410.268Z" fill="#F2C7C4"/>
<path d="M184.045 398.883L157.798 401.943L149.816 409.581C148.817 410.537 148.713 412.097 149.576 413.176C150.445 414.263 152.004 414.5 153.157 413.72L160.086 409.031L184.045 409.604V398.883Z" fill="#F2C7C4"/>
<path d="M221.894 330.862L207.993 377.491C207.993 377.491 205.655 414.674 251.197 413.837C296.739 413 304.185 385.231 304.185 385.231L284.495 330.862H221.894Z" fill="#345870"/>
<path d="M213.363 360.8C212.741 363.985 212.387 365.4 212.387 365.4C212.387 365.4 247.129 382.407 300.68 364.456L300.165 358.323L296.605 316.386L296.626 316.375L298.61 315.689L298.985 315.56L321.085 307.861C320.216 304.612 319.369 301.513 318.544 298.564C311.735 274.169 306.545 259.833 301.226 255.136C296.68 251.126 289.249 252.037 278.686 256.412C272.628 258.911 265.551 262.556 257.39 267.06C257.39 267.06 249.026 261.516 239.193 257.056C230.207 252.971 219.999 249.786 213.866 252.574C205.845 256.209 198.875 282.705 195.648 296.956C194.436 302.339 193.75 305.974 193.75 305.974L217.094 312.118L219.721 312.804L220.032 312.89L220.139 312.922C217.223 339.182 214.682 354.001 213.363 360.8Z" fill="#69A0E1"/>
<path d="M212.387 365.4C212.387 365.4 247.129 382.407 300.68 364.456L300.165 358.323C273.143 363.341 231.431 361.797 213.363 360.8C212.741 363.984 212.387 365.4 212.387 365.4Z" fill="#5186C7"/>
<path d="M297.441 308.021L298.61 315.688L298.985 315.559L321.085 307.859C320.216 304.61 319.369 301.511 318.544 298.562L297.441 308.021Z" fill="#5186C7"/>
<path d="M238.176 263.489C238.176 275.027 247.516 284.367 259.043 284.367C270.57 284.367 279.921 275.027 279.921 263.489C279.921 261.001 279.481 258.621 278.688 256.412C272.63 258.911 265.553 262.556 257.392 267.06C257.392 267.06 249.028 261.516 239.195 257.056C238.53 259.082 238.176 261.248 238.176 263.489Z" fill="#5186C7"/>
<path d="M240.979 336.185C242.469 335.269 244.809 335.555 246.524 335.405C248.363 335.245 250.196 335.033 252.024 334.777C255.72 334.26 259.372 333.521 262.995 332.631C270.271 330.844 277.335 328.414 284.051 325.079C285.689 324.266 287.103 326.689 285.466 327.571C278.65 331.246 271.452 334.329 263.994 336.44C260.26 337.497 256.437 338.295 252.604 338.894C250.747 339.184 248.878 339.412 247.007 339.598C245.105 339.787 242.74 340.354 240.978 339.492C239.618 338.827 239.816 336.899 240.979 336.185Z" fill="#5186C7"/>
<path d="M241.047 325.273C242.646 324.679 244.731 325.419 246.389 325.577C248.228 325.753 250.08 325.85 251.927 325.851C255.546 325.854 259.196 325.527 262.736 324.771C264.429 324.409 265.095 326.886 263.42 327.38C259.654 328.493 255.847 329.244 251.927 329.521C250.013 329.656 248.1 329.682 246.184 329.583C244.202 329.48 241.839 329.56 240.238 328.26C239.081 327.322 239.924 325.69 241.047 325.273Z" fill="#5186C7"/>
<path d="M242.496 369.79C235.305 360.368 189.533 315.883 175.659 337.506C161.785 359.13 179.44 390.828 211.154 406.108C242.869 421.389 270.089 405.941 242.496 369.79Z" fill="#345870"/>
<path d="M173.94 354.44C178.542 365.037 186.137 373.975 194.53 381.773C198.95 385.88 203.663 389.657 208.484 393.28C213.123 396.767 217.808 400.242 222.625 403.48C227.442 406.718 232.606 409.347 238.517 409.573C239.818 409.622 239.669 411.436 238.444 411.538C233.098 411.982 227.967 409.534 223.535 406.782C218.61 403.724 213.956 400.16 209.299 396.714C199.563 389.511 190.076 381.773 182.76 372.032C178.778 366.73 175.521 361.033 173.25 354.796C173.083 354.34 173.736 353.97 173.94 354.44Z" fill="#3A6885"/>
<path d="M228.327 355.023C236.632 361.367 243.925 369.251 248.98 378.451C250.409 381.052 251.682 383.736 252.803 386.484C253.356 387.839 251.27 388.781 250.722 387.416C246.901 377.893 241.314 369.094 234.267 361.637C232.264 359.517 230.147 357.483 227.896 355.627C227.53 355.326 227.944 354.731 228.327 355.023Z" fill="#3A6885"/>
<path d="M310.942 432.115L324.332 397.639C319.633 396.246 315.572 395.84 315.572 395.84L298.172 428.855C308.485 432.941 310.942 432.115 310.942 432.115Z" fill="white"/>
<path d="M302.246 426.339C300.985 427.332 299.63 428.184 298.177 428.87C296.295 428.121 293.849 427.062 290.84 425.783C288.046 424.591 284.763 423.17 281.025 421.578C276.975 419.848 272.376 417.91 267.246 415.81C267.127 409.502 267.928 402.526 269.934 396.49L269.947 396.489C280.312 398.545 296.853 396.049 308.769 395.621C311.839 395.502 314.254 395.545 315.568 395.846C316.962 397.55 313.7 417.365 302.246 426.339Z" fill="#3A6885"/>
<path d="M250.233 389.86C248.699 389.142 247.068 388.36 245.307 387.467C247.067 388.359 248.7 389.154 250.233 389.86Z" fill="#E0954A"/>
<path d="M234.693 381.924L234.695 381.937C235.27 382.244 235.832 382.541 236.381 382.839C235.829 382.529 235.268 382.232 234.693 381.924Z" fill="#E0954A"/>
<path d="M269.935 396.49C267.928 402.526 267.127 409.502 267.247 415.81C258.479 412.208 247.058 411.144 235.457 406.839L234.691 381.938C235.267 382.245 235.828 382.542 236.377 382.841C237.487 383.436 238.567 383.997 239.594 384.539C240.608 385.083 241.592 385.591 242.548 386.079C242.548 386.079 242.548 386.08 242.56 386.078C243.503 386.567 244.418 387.035 245.291 387.469C245.303 387.467 245.303 387.467 245.303 387.467C247.064 388.36 248.697 389.155 250.229 389.861C252.917 391.118 255.278 392.123 257.492 392.97C258.109 393.208 258.725 393.433 259.327 393.648C259.633 393.748 259.941 393.862 260.246 393.95C260.835 394.167 261.419 394.346 262.004 394.525C262.296 394.615 262.588 394.704 262.893 394.792C263.463 394.96 264.033 395.128 264.614 395.282C266.356 395.731 268.091 396.13 269.935 396.49Z" fill="#F2C7C4"/>
<path d="M235.46 406.837L234.694 381.937L234.693 381.924L234.68 381.926L235.46 406.837Z" fill="#F2C7C4"/>
<path d="M290.981 425.861C288.1 424.628 284.725 423.17 280.885 421.538C284.018 420.479 289.631 421.67 290.981 425.861Z" fill="white"/>
<path d="M315.576 395.845C318.577 400.26 315.184 419.533 302.256 426.339C297.598 412.715 302.773 395.082 315.576 395.845Z" fill="white"/>
<path d="M270.792 387.839C269.488 387.939 268.564 388.976 268.279 390.336C267.655 393.313 269.831 397.008 271.599 399.31C273.357 401.6 275.503 403.398 277.906 404.598C275.967 404.694 274.09 405.145 272.345 406.025C269.822 407.298 267.353 409.423 266.109 412.209C264.989 414.716 265.397 418.684 268.315 419.918C271.213 421.143 274.026 418.528 275.816 416.604C277.91 414.354 279.818 411.258 280.598 407.941C280.426 410.139 280.504 412.383 280.753 414.615C280.793 414.97 281.25 414.941 281.24 414.598C281.167 412.105 281.381 409.654 281.741 407.241C281.919 406.051 282.146 404.875 282.443 403.726C282.725 402.634 283.257 401.51 283.379 400.37C283.438 399.816 282.734 399.366 282.423 399.836C281.905 400.62 281.668 401.705 281.447 402.696C281.002 397.579 278.156 392.21 274.27 389.218C273.253 388.437 272.002 387.746 270.792 387.839ZM276.337 413.788C274.877 415.838 272.713 418.398 270.183 418.798C268.914 418.999 267.703 418.362 267.104 416.99C266.471 415.541 266.724 413.983 267.343 412.719C268.508 410.337 270.652 408.541 272.843 407.393C274.978 406.275 277.386 405.747 279.836 405.778C279.829 405.794 279.818 405.803 279.812 405.822C278.909 408.704 278.04 411.396 276.337 413.788ZM274.074 390.649C275.958 392.322 277.513 394.483 278.583 396.85C279.664 399.242 280.193 401.801 280.405 404.368C280.368 404.345 280.337 404.316 280.294 404.3C277.848 403.383 275.553 401.762 273.676 399.721C271.903 397.793 270.225 395.166 269.634 392.531C269.327 391.163 269.575 389.33 271.045 389.202C272.121 389.107 273.228 389.897 274.074 390.649Z" fill="white"/>
<path d="M286.326 401.868C284.862 406.386 284.96 411.671 286.223 416.507C286.323 416.89 286.91 416.784 286.828 416.393C286.335 414.036 286.118 411.623 286.184 409.262C286.251 406.87 286.676 404.63 287.26 402.39C287.315 402.178 287.302 401.872 287.097 401.717C287.018 401.657 286.952 401.607 286.86 401.585C286.649 401.533 286.399 401.643 286.326 401.868Z" fill="white"/>
<path d="M292.29 401.782C290.351 406.113 289.464 411.237 289.381 416.215C289.371 416.795 290.173 417.026 290.213 416.426C290.374 413.997 290.713 411.588 291.213 409.251C291.726 406.853 292.512 404.618 293.324 402.359C293.582 401.642 292.596 401.099 292.29 401.782Z" fill="white"/>
<path d="M297.543 401.929C297.489 401.94 297.435 401.951 297.381 401.962C297.193 402 297.102 402.208 297.059 402.39C296.773 403.615 296.353 404.784 296.083 406.019C295.814 407.251 295.6 408.503 295.437 409.767C295.115 412.261 295.019 414.776 295.152 417.338C295.178 417.837 295.95 417.931 295.952 417.426C295.962 414.939 296.114 412.448 296.454 410.025C296.618 408.853 296.827 407.693 297.079 406.55C297.357 405.293 297.609 403.969 298.077 402.798C298.151 402.613 298.118 402.385 298.004 402.207C297.976 402.164 297.948 402.121 297.921 402.078C297.826 401.931 297.681 401.901 297.543 401.929Z" fill="white"/>
<path d="M234.422 409.213L250.534 413.091L258.067 390.337L230.977 374.502L234.422 409.213Z" fill="#345870"/>
<path d="M314.208 351.989C302.775 355.115 244.356 380.83 259.186 401.809C274.016 422.788 310.024 418.331 336.097 394.676C362.17 371.021 358.075 339.992 314.208 351.989Z" fill="#345870"/>
<path d="M206.624 436.079L192.014 402.101C196.661 400.541 200.704 399.991 200.704 399.991L219.268 432.366C209.108 436.817 206.624 436.079 206.624 436.079Z" fill="white"/>
<path d="M246.332 399.015C248.553 404.976 249.601 411.919 249.707 418.227C244.655 420.507 240.127 422.609 236.142 424.482C232.463 426.206 229.232 427.743 226.483 429.034C223.521 430.419 221.115 431.564 219.261 432.38C217.784 431.746 216.399 430.943 215.104 429.996C203.338 421.436 199.373 401.75 200.706 399.996C202.008 399.649 204.42 399.52 207.492 399.529C219.415 399.533 236.035 401.438 246.32 399.014L246.332 399.015Z" fill="#3A6885"/>
<path d="M265.787 391.689C267.295 390.916 268.897 390.077 270.625 389.122C268.897 390.076 267.294 390.929 265.787 391.689Z" fill="#E0954A"/>
<path d="M281.036 383.205L281.035 383.217C280.471 383.545 279.92 383.862 279.383 384.179C279.921 383.849 280.472 383.533 281.036 383.205Z" fill="#E0954A"/>
<path d="M281.155 408.13C269.715 412.845 258.339 414.315 249.705 418.227C249.6 411.919 248.551 404.976 246.33 399.015C248.16 398.59 249.88 398.13 251.604 397.619C252.179 397.445 252.743 397.256 253.306 397.068C253.607 396.969 253.896 396.87 254.185 396.77C254.762 396.57 255.34 396.371 255.921 396.133C256.222 396.034 256.526 395.911 256.829 395.799C257.423 395.563 258.03 395.315 258.639 395.055C260.821 394.13 263.146 393.041 265.787 391.689C267.293 390.929 268.897 390.077 270.625 389.122C270.625 389.122 270.636 389.136 270.638 389.123C271.494 388.658 272.392 388.158 273.318 387.635C273.33 387.636 273.33 387.636 273.33 387.636C274.268 387.115 275.233 386.571 276.227 385.991C277.234 385.413 278.293 384.814 279.381 384.18C279.919 383.862 280.469 383.546 281.033 383.218L281.155 408.13Z" fill="#F2C7C4"/>
<path d="M281.156 408.13L281.035 383.217L281.036 383.205L281.049 383.206L281.156 408.13Z" fill="#F2C7C4"/>
<path d="M226.348 429.119C229.183 427.784 232.504 426.207 236.284 424.439C233.115 423.493 227.548 424.882 226.348 429.119Z" fill="white"/>
<path d="M200.699 399.998C197.857 404.517 201.934 423.657 215.096 429.998C219.267 416.217 213.467 398.78 200.699 399.998Z" fill="white"/>
<path d="M241.744 391.905C237.967 395.033 235.314 400.5 235.051 405.629C234.795 404.647 234.519 403.57 233.974 402.806C233.647 402.347 232.959 402.822 233.037 403.374C233.199 404.509 233.771 405.614 234.092 406.695C234.429 407.833 234.698 409 234.918 410.183C235.364 412.582 235.665 415.024 235.681 417.518C235.683 417.86 236.141 417.874 236.168 417.517C236.338 415.277 236.336 413.033 236.086 410.842C236.983 414.129 239.001 417.154 241.173 419.328C243.031 421.187 245.935 423.7 248.788 422.373C251.661 421.036 251.927 417.056 250.718 414.59C249.376 411.851 246.833 409.815 244.265 408.633C242.49 407.815 240.598 407.431 238.657 407.404C241.015 406.12 243.096 404.246 244.772 401.895C246.457 399.532 248.5 395.761 247.77 392.809C247.437 391.461 246.476 390.457 245.17 390.403C243.957 390.352 242.731 391.086 241.744 391.905ZM236.795 408.694C236.789 408.676 236.777 408.667 236.769 408.651C239.216 408.532 241.642 408.974 243.815 410.016C246.045 411.084 248.252 412.803 249.502 415.142C250.165 416.384 250.474 417.931 249.893 419.402C249.343 420.794 248.156 421.473 246.88 421.318C244.338 421.009 242.084 418.527 240.552 416.53C238.765 414.201 237.801 411.542 236.795 408.694ZM244.966 391.771C246.44 391.847 246.753 393.67 246.495 395.048C245.998 397.703 244.414 400.388 242.711 402.377C240.908 404.484 238.671 406.185 236.26 407.189C236.217 407.207 236.187 407.237 236.151 407.261C236.272 404.688 236.71 402.112 237.704 399.683C238.689 397.279 240.165 395.065 241.989 393.326C242.809 392.545 243.887 391.716 244.966 391.771Z" fill="white"/>
<path d="M230.145 404.974C231.769 409.437 231.86 414.722 230.769 419.6C230.682 419.987 230.092 419.901 230.16 419.508C230.569 417.135 230.7 414.715 230.55 412.359C230.398 409.971 229.893 407.748 229.23 405.529C229.167 405.319 229.169 405.012 229.369 404.851C229.446 404.789 229.509 404.736 229.601 404.71C229.811 404.65 230.065 404.751 230.145 404.974Z" fill="white"/>
<path d="M224.181 405.102C226.273 409.362 227.342 414.451 227.602 419.422C227.632 420.002 226.839 420.26 226.778 419.663C226.531 417.241 226.106 414.846 225.523 412.528C224.925 410.15 224.06 407.944 223.168 405.716C222.885 405.008 223.851 404.43 224.181 405.102Z" fill="white"/>
<path d="M218.938 405.436C218.992 405.445 219.047 405.454 219.101 405.463C219.29 405.494 219.389 405.699 219.438 405.879C219.767 407.093 220.229 408.247 220.542 409.471C220.855 410.692 221.113 411.936 221.321 413.194C221.732 415.675 221.917 418.185 221.876 420.75C221.868 421.249 221.098 421.371 221.079 420.866C220.981 418.381 220.74 415.897 220.314 413.487C220.108 412.321 219.86 411.17 219.566 410.036C219.243 408.79 218.944 407.476 218.435 406.322C218.354 406.139 218.379 405.91 218.487 405.729C218.513 405.685 218.54 405.641 218.566 405.597C218.656 405.448 218.8 405.413 218.938 405.436Z" fill="white"/>
<path d="M281.372 379.634C280.739 379.826 251.398 395.161 251.398 395.161L259.872 416.602L288.333 410.546L281.372 379.634Z" fill="#345870"/>
<path d="M251.981 394.957C255.502 392.89 259.211 391.196 262.976 389.628C262.957 389.138 262.953 388.647 262.978 388.156C263.219 383.476 265.348 378.997 268.652 375.704C268.957 375.399 269.436 375.854 269.137 376.167C266.049 379.401 264.414 383.785 264.578 388.25C264.65 390.209 265.045 392.167 265.775 393.988C266.127 394.865 266.543 395.718 267.022 396.532C267.545 397.419 268.366 398.233 268.71 399.2C269.001 400.02 267.955 400.835 267.225 400.376C266.287 399.787 265.683 398.601 265.165 397.644C264.627 396.652 264.167 395.605 263.833 394.527C263.508 393.478 263.266 392.401 263.119 391.312C259.71 392.922 256.423 394.786 253.186 396.715C255.126 402.602 257.404 408.384 259.938 414.04C264.017 412.106 268.706 410.99 273.221 411.224C272.632 410.57 272.101 409.865 271.667 409.098C270.686 407.365 270.217 405.5 270.048 403.528C270.017 403.165 270.623 403.071 270.689 403.437C271.002 405.188 271.872 406.858 272.96 408.254C273.356 408.762 273.813 409.227 274.287 409.67C274.411 409.623 274.546 409.588 274.706 409.59C286.074 409.725 297.382 407.498 307.929 403.279C318.41 399.086 328.138 393.104 336.449 385.454C341.152 381.125 345.519 376.305 349.123 371.017C349.408 370.599 350.101 370.967 349.821 371.4C346.682 376.248 343.18 380.832 339.141 384.969C335.092 389.116 330.606 392.85 325.84 396.145C316.326 402.723 305.555 407.383 294.254 409.843C288.644 411.064 282.914 411.746 277.174 411.845C277.425 412.166 277.496 412.603 277.283 412.991C277.007 413.495 276.364 413.669 275.863 413.405C275.453 413.189 275.055 412.915 274.674 412.615C274.55 412.869 274.308 413.062 273.916 413.059C271.475 413.041 269.111 413.154 266.72 413.694C264.361 414.227 262.1 415.065 259.957 416.184C259.53 416.407 258.849 416.352 258.62 415.849C255.753 409.566 253.458 403.071 251.656 396.407C251.371 395.949 251.383 395.308 251.981 394.957Z" fill="#3A6885"/>
<path d="M222.103 296.215C226.782 295.688 231.5 296.539 236.191 296.821C240.817 297.099 245.452 297.229 250.086 297.211C259.4 297.174 268.716 296.521 277.96 295.396C283.214 294.756 288.482 294.092 293.756 293.656C295.559 293.507 295.453 296.08 294.011 296.57C285.058 299.609 275.477 300.838 266.084 301.56C256.672 302.284 247.213 302.398 237.786 301.895C235.215 301.758 232.646 301.575 230.082 301.346C227.266 301.095 224.612 300.839 221.954 299.842C220.368 299.248 220.082 296.443 222.103 296.215Z" fill="#EBF4FA"/>
<path d="M220.766 307.627C230.587 308.846 240.334 310.358 250.233 310.931C260.018 311.497 269.839 311.372 279.616 310.799C285.241 310.47 290.88 310.332 296.465 309.597C298.115 309.38 298.665 311.728 296.999 312.06C292.13 313.03 287.283 314.218 282.348 314.844C277.288 315.487 272.194 315.88 267.091 316.051C257.029 316.389 246.907 316.066 236.901 314.906C231.184 314.243 225.508 313.422 219.946 311.972C217.434 311.32 218.133 307.301 220.766 307.627Z" fill="#EBF4FA"/>
<path d="M294.396 292.913C294.224 293.342 294.353 293.739 294.6 294.039C294.611 294.125 294.611 294.211 294.621 294.296C294.889 298.081 295.146 301.877 295.457 305.662C295.618 307.506 295.768 309.361 295.929 311.217C296.068 312.933 296.111 314.713 296.626 316.375L298.985 315.56C299.071 314.112 298.889 312.676 298.76 311.217C298.588 309.276 298.417 307.335 298.245 305.394C297.923 301.695 297.537 297.995 297.162 294.296C297.14 294.092 297.119 293.889 297.098 293.685C297.731 292.752 298.192 291.669 298.621 290.651C299.104 289.493 299.543 288.313 299.929 287.112C300.712 284.689 301.248 282.18 301.591 279.649C301.655 279.156 301.462 278.641 300.915 278.512C300.454 278.394 299.853 278.673 299.768 279.177C299.371 281.622 298.717 284.002 297.784 286.297C297.43 287.166 297.012 288.013 296.583 288.849C295.95 283.08 295.243 277.322 294.588 271.553C294.502 270.738 293.237 270.695 293.28 271.553C293.698 278.587 294.031 285.632 294.513 292.666C294.471 292.752 294.428 292.827 294.396 292.913Z" fill="#5186C7"/>
<path d="M215.273 284.828C215.841 287.241 216.345 289.664 216.924 292.077C217.214 293.267 217.492 294.447 217.792 295.626C218.028 296.612 218.124 297.964 218.821 298.757C218.585 301.073 218.339 303.389 218.06 305.695C217.813 307.829 217.385 309.974 217.095 312.118L220.033 312.89C220.441 310.509 220.601 308.033 220.859 305.695C221.202 302.5 221.406 299.304 221.47 296.087C221.609 289.46 221.545 282.909 221.052 276.303C220.988 275.413 219.637 275.392 219.658 276.303C219.797 281.75 219.733 287.283 219.347 292.741C219.229 292.344 219.111 291.937 218.982 291.54C218.264 289.16 217.459 286.811 216.73 284.441C216.441 283.519 215.047 283.884 215.273 284.828Z" fill="#5186C7"/>
<path d="M193.752 305.973L217.096 312.117L219.723 312.803L220.86 305.694L195.65 296.955C194.438 302.338 193.752 305.973 193.752 305.973Z" fill="#5186C7"/>
<path d="M286.227 237.496L279.069 239.223C275.326 240.126 271.56 237.824 270.657 234.081L268.512 225.188C267.609 221.445 269.912 217.679 273.654 216.777L280.812 215.05C284.555 214.147 288.321 216.449 289.223 220.192L291.368 229.085C292.272 232.827 289.97 236.593 286.227 237.496Z" fill="white"/>
<path d="M277.272 238.962C274.375 238.962 271.875 236.991 271.194 234.17L268.949 224.862C268.139 221.507 270.211 218.12 273.565 217.311L276.193 216.677C276.677 216.56 277.173 216.501 277.667 216.501C280.564 216.501 283.064 218.472 283.745 221.293L285.989 230.6C286.382 232.225 286.118 233.905 285.246 235.332C284.374 236.758 282.999 237.759 281.374 238.151L278.746 238.785C278.261 238.903 277.765 238.962 277.272 238.962Z" fill="#D9DADE"/>
<path d="M277.667 217.002C280.333 217.002 282.633 218.815 283.259 221.412L285.504 230.719C286.249 233.806 284.343 236.922 281.257 237.667L278.629 238.301C278.183 238.409 277.727 238.463 277.273 238.463C274.607 238.463 272.307 236.65 271.681 234.054L269.436 224.746C269.075 223.251 269.319 221.705 270.121 220.393C270.923 219.081 272.188 218.159 273.684 217.799L276.312 217.165C276.756 217.056 277.213 217.002 277.667 217.002ZM277.666 216.002C277.141 216.002 276.608 216.064 276.076 216.192L273.448 216.826C269.82 217.701 267.588 221.352 268.463 224.98L270.708 234.288C271.455 237.384 274.222 239.463 277.272 239.463C277.797 239.463 278.33 239.401 278.863 239.273L281.491 238.639C285.119 237.764 287.351 234.113 286.476 230.484L284.231 221.177C283.484 218.081 280.716 216.001 277.666 216.002Z" fill="#5186C7"/>
<path d="M232.065 236.842C226.99 231.19 223.89 222.286 223.89 222.286C221.08 223.102 218.165 220.352 220.387 217.234C215.463 217.134 223.229 201.194 233.451 204.555L241.705 233.882L232.065 236.842Z" fill="#345870"/>
<path d="M273.389 198.318C282.042 209.119 280.876 223.902 280.876 223.902L266.754 202.167L273.389 198.318Z" fill="#345870"/>
<path d="M270.93 234.784L271.174 244.802L271.458 256.324L271.749 262.35C272.071 269.003 267.159 274.757 260.538 275.484C253.867 276.216 247.792 271.59 246.724 264.964L241.041 229.708L270.93 234.784Z" fill="#F2C7C4"/>
<path d="M271.239 242.679L271.529 257.785C258.764 259.063 250.003 249.819 247.674 242.865C253.161 241.014 271.239 242.679 271.239 242.679Z" fill="#345870"/>
<path d="M234.567 233.971C231.926 233.701 228.983 234.772 227.777 237.137C226.772 239.107 227.152 241.513 227.98 243.563C229.048 246.208 230.869 248.598 233.321 250.053C235.774 251.509 238.881 251.948 241.544 250.928C244.208 249.908 246.292 247.338 246.445 244.49C246.738 239.026 239.313 234.456 234.567 233.971Z" fill="#F2C7C4"/>
<path d="M240.294 242.626C237.724 240.842 235.018 240.946 232.116 241.699C231.686 241.811 231.782 242.546 232.241 242.486C234.619 242.177 237.384 243.543 239.081 244.789C239.322 244.966 239.766 244.977 240.038 244.896C240.324 244.811 240.632 244.584 240.769 244.313C241.095 243.665 240.865 243.023 240.294 242.626Z" fill="#345870"/>
<path d="M270.908 203.976C268.292 201.888 265.022 200.959 261.543 200.892C252.671 200.703 242.418 206.136 238.109 212.554C231.809 221.932 233.819 233.146 240.106 241.512C242.978 245.371 246.767 248.632 251.066 250.818C258.596 254.661 268.301 255.492 275.107 250.477C280.023 246.868 282.677 240.707 283.052 234.609C283.69 224.303 279.213 210.611 270.908 203.976Z" fill="#F2C7C4"/>
<path d="M274.847 222.152C275.395 223.322 275.16 224.628 274.323 225.069C273.486 225.509 272.363 224.918 271.815 223.748C271.267 222.578 271.502 221.272 272.339 220.831C273.177 220.39 274.299 220.982 274.847 222.152Z" fill="#345870"/>
<path d="M261.808 227.732C262.356 228.902 262.122 230.208 261.284 230.649C260.447 231.09 259.324 230.498 258.776 229.328C258.228 228.158 258.463 226.852 259.3 226.411C260.137 225.971 261.26 226.562 261.808 227.732Z" fill="#345870"/>
<path d="M272.39 227.707C270.259 225.22 268.013 222.864 265.736 220.516C265.515 220.288 265.133 220.574 265.342 220.828C267.036 222.885 268.736 224.905 270.523 226.886C271.387 227.844 272.475 228.823 272.934 230.058C273.318 231.091 272.897 232.106 272.331 232.964C272.184 233.187 272.35 233.527 272.639 233.472C273.637 233.284 274.185 232.177 274.145 231.231C274.089 229.873 273.24 228.699 272.39 227.707Z" fill="#345870"/>
<path d="M275.513 209.73C274.243 207.975 268.638 210.227 268.365 212.388C268.01 215.199 277.698 212.749 275.513 209.73Z" fill="#345870"/>
<path d="M255.725 218.524C254.052 216.619 247.847 219.79 247.761 222.337C247.611 226.763 257.777 220.861 255.725 218.524Z" fill="#345870"/>
<path d="M264.767 237.822C264.855 237.233 269.892 236.793 270.466 237.376C270.831 237.747 269.933 239.913 267.776 240.046C265.996 240.156 264.665 238.506 264.767 237.822Z" fill="white"/>
<path d="M240.591 212.559C245.581 220.387 246.712 238.217 240.64 236.094C234.568 233.971 232.387 234.051 232.387 234.051C211.352 213.493 226.619 196.666 240.591 212.559Z" fill="#345870"/>
<path d="M241.587 214.59C246.034 202.998 252.052 201.011 265.106 207.076C268.962 208.868 279.518 208.488 280.075 204.076C280.441 201.174 276.994 200.276 276.994 200.276C283.762 198.289 280.829 192.052 275.554 194.965C284.301 187.55 277.466 181.526 271.882 186.304C267.579 189.986 264.167 191.545 258.072 189.942C249.002 187.557 233.461 191.611 232.217 206.609L241.587 214.59Z" fill="#345870"/>
<path d="M251.603 233.958L280.609 226.686C286.306 225.251 289.692 219.199 288.173 213.169C286.654 207.139 280.804 203.414 275.107 204.849L246.101 212.121C240.404 213.556 237.018 219.608 238.537 225.638C240.057 231.668 245.907 235.393 251.603 233.958Z" fill="white"/>
<path d="M277.819 205.456C282.096 205.456 286.043 208.802 287.204 213.413C288.586 218.899 285.715 224.368 280.805 225.605L258.544 231.178C257.88 231.345 257.198 231.43 256.516 231.43C252.239 231.43 248.292 228.084 247.131 223.473C245.749 217.987 248.62 212.517 253.53 211.28L275.79 205.707C276.455 205.54 277.137 205.456 277.819 205.456ZM277.819 204.456C277.065 204.456 276.304 204.547 275.547 204.738L253.288 210.31C247.833 211.684 244.643 217.687 246.162 223.717C247.47 228.909 251.844 232.43 256.517 232.43C257.271 232.43 258.032 232.338 258.789 232.148L281.048 226.575C286.503 225.201 289.693 219.198 288.174 213.168C286.866 207.976 282.491 204.456 277.819 204.456Z" fill="#5186C7"/>
<path d="M279.601 222.704L270.339 225.024L267.247 225.798L265.934 226.133L260.524 227.485L260.229 227.561C259.83 227.66 259.422 227.729 259.026 227.76C255.608 228.025 252.396 225.799 251.528 222.36C250.561 218.515 252.884 214.619 256.729 213.651L266.537 211.198L271.939 209.846L273.26 209.51L276.101 208.801C276.182 208.78 276.264 208.766 276.345 208.752C276.67 208.674 276.99 208.627 277.304 208.602C280.722 208.337 283.934 210.563 284.802 214.002C285.77 217.84 283.446 221.736 279.601 222.704Z" fill="#D9DADE"/>
<path d="M272.512 208.577L265.592 227.344L259.359 228.903L266.287 210.135L272.512 208.577Z" fill="white"/>
<path d="M277.589 207.316L270.668 226.066L267.105 226.958L274.033 208.19L277.307 207.373C277.401 207.348 277.495 207.333 277.589 207.316Z" fill="white"/>
<path d="M277.824 217.5L261.727 221.519C260.743 221.765 259.747 221.166 259.501 220.182C259.255 219.198 259.854 218.202 260.837 217.956L276.934 213.937C277.918 213.691 278.914 214.29 279.16 215.274C279.406 216.258 278.808 217.255 277.824 217.5Z" fill="#E47272"/>
<path d="M243.956 249.832L236.964 252.141C233.308 253.348 229.366 251.364 228.158 247.708L225.289 239.021C224.082 235.365 226.066 231.423 229.722 230.215L236.713 227.906C240.369 226.699 244.311 228.683 245.519 232.339L248.388 241.026C249.597 244.682 247.612 248.625 243.956 249.832Z" fill="white"/>
<path d="M231.805 234.219L232.597 233.958C234.991 233.167 237.572 234.467 238.363 236.861L239.948 241.66C240.738 244.054 239.439 246.635 237.046 247.426L236.254 247.688C233.86 248.479 231.279 247.179 230.489 244.786L228.904 239.987C228.112 237.591 229.411 235.009 231.805 234.219Z" fill="#D9DADE"/>
<path d="M234.208 230.092C236.697 230.092 238.894 231.681 239.675 234.046L242.677 243.137C243.673 246.152 242.03 249.415 239.015 250.411L236.448 251.259C235.861 251.453 235.253 251.551 234.641 251.551C232.153 251.551 229.956 249.962 229.175 247.597L226.172 238.505C225.69 237.045 225.805 235.484 226.497 234.11C227.189 232.736 228.374 231.714 229.834 231.232L232.401 230.384C232.989 230.19 233.597 230.092 234.208 230.092ZM234.208 229.092C233.506 229.092 232.791 229.202 232.088 229.435L229.521 230.283C225.977 231.453 224.053 235.275 225.223 238.819L228.226 247.911C229.164 250.752 231.805 252.551 234.642 252.551C235.344 252.551 236.059 252.44 236.763 252.208L239.33 251.36C242.874 250.189 244.798 246.367 243.628 242.823L240.626 233.732C239.686 230.892 237.045 229.092 234.208 229.092Z" fill="#5186C7"/>
<path d="M155.525 325.936C152.328 325.936 152.327 330.897 155.525 330.897C158.722 330.897 158.723 325.936 155.525 325.936Z" fill="#E8F0F8"/>
<path d="M257.769 435.436C254.572 435.436 254.571 440.397 257.769 440.397C260.966 440.397 260.967 435.436 257.769 435.436Z" fill="#E8F0F8"/>
<path d="M377.166 314.722C373.969 314.722 373.968 319.683 377.166 319.683C380.362 319.683 380.364 314.722 377.166 314.722Z" fill="#E8F0F8"/>
<path d="M452.365 207.859C449.168 207.859 449.167 212.82 452.365 212.82C455.561 212.82 455.563 207.859 452.365 207.859Z" fill="#E8F0F8"/>
<path d="M71.0934 253.374C67.8964 253.374 67.8954 258.335 71.0934 258.335C74.2894 258.335 74.2914 253.374 71.0934 253.374Z" fill="#E8F0F8"/>
<path d="M30.855 235.892C26.38 235.892 26.378 242.837 30.855 242.837C35.33 242.838 35.332 235.892 30.855 235.892Z" fill="#E8F0F8"/>
<path d="M432.574 288.662C428.099 288.662 428.097 295.607 432.574 295.607C437.05 295.608 437.052 288.662 432.574 288.662Z" fill="#E8F0F8"/>
<path d="M380.546 368.863L381.424 363.589L382.366 368.851C382.658 370.484 383.947 371.757 385.583 372.029L390.857 372.907L385.595 373.85C383.962 374.143 382.689 375.431 382.417 377.067L381.539 382.341L380.596 377.079C380.303 375.446 379.015 374.173 377.378 373.901L372.105 373.023L377.367 372.08C379.001 371.788 380.274 370.5 380.546 368.863Z" fill="#E6BC7A"/>
<path d="M100.879 310.901L101.691 306.025L102.562 310.891C102.832 312.401 104.024 313.578 105.537 313.83L110.413 314.641L105.547 315.513C104.037 315.784 102.86 316.974 102.608 318.488L101.796 323.364L100.925 318.498C100.654 316.988 99.4632 315.811 97.9502 315.559L93.0742 314.748L97.9402 313.876C99.4502 313.605 100.627 312.414 100.879 310.901Z" fill="#E6BC7A"/>
<path opacity="0.4" d="M95.1071 136.187L86.8041 131.224L83.2251 137.212C81.5371 136.723 79.8161 136.474 78.0991 136.461L76.3951 129.694L67.0151 132.056L68.7191 138.824C67.2131 139.649 65.8151 140.684 64.5601 141.914L58.5721 138.335L53.6091 146.638L59.5971 150.217C59.1081 151.905 58.8591 153.626 58.8451 155.343L52.0781 157.047L54.4401 166.427L61.2071 164.723C62.0321 166.229 63.0671 167.627 64.2971 168.882L60.7181 174.87L69.0211 179.832L72.6001 173.844C74.2881 174.333 76.0101 174.582 77.7271 174.595L79.4311 181.362L88.8111 179L87.1071 172.233C88.6131 171.408 90.0111 170.373 91.2661 169.143L97.2541 172.722L102.217 164.419L96.2291 160.84C96.7181 159.152 96.9671 157.43 96.9811 155.714L103.748 154.01L101.386 144.63L94.6191 146.334C93.7941 144.828 92.7591 143.43 91.5291 142.175L95.1071 136.187ZM81.7741 149.069C85.3361 151.198 86.5011 155.827 84.3721 159.389C82.2431 162.951 77.6131 164.117 74.0521 161.988C70.4901 159.859 69.3241 155.23 71.4531 151.667C73.5821 148.105 78.2121 146.94 81.7741 149.069Z" fill="url(#paint0_linear_1612_3056)"/>
<path opacity="0.4" d="M369.978 54.1319L361.293 52.9619L360.449 59.2249C358.869 59.4199 357.347 59.8279 355.912 60.4289L352.078 55.4009L345.109 60.7149L348.943 65.7429C347.984 66.9669 347.188 68.3279 346.582 69.7999L340.318 68.9559L339.148 77.6409L345.412 78.4849C345.607 80.0649 346.014 81.5869 346.615 83.0219L341.587 86.8559L346.901 93.8249L351.929 89.9909C353.153 90.9499 354.514 91.7459 355.986 92.3519L355.142 98.6159L363.827 99.7859L364.671 93.5229C366.251 93.3279 367.773 92.9209 369.208 92.3199L373.042 97.3479L380.011 92.0339L376.178 87.0059C377.137 85.7819 377.933 84.4209 378.539 82.9489L384.803 83.7929L385.973 75.1079L379.709 74.2639C379.514 72.6839 379.107 71.1609 378.506 69.7269L383.534 65.8929L378.22 58.9249L373.193 62.7579C371.968 61.7979 370.608 61.0029 369.136 60.3969L369.978 54.1319ZM363.742 67.6049C368.577 68.2559 371.98 72.7199 371.329 77.5549C370.678 82.3899 366.214 85.7939 361.38 85.1419C356.545 84.4909 353.141 80.0269 353.793 75.1919C354.443 70.3569 358.907 66.9539 363.742 67.6049Z" fill="url(#paint1_linear_1612_3056)"/>
<g opacity="0.4">
<path d="M188.18 65.041V136.647C204.255 134.546 221.698 133.397 239.915 133.397C267.152 133.397 292.643 135.958 314.477 140.431V68.814C292.644 64.351 267.152 61.79 239.915 61.79C221.698 61.791 204.254 62.94 188.18 65.041Z" fill="url(#paint2_linear_1612_3056)"/>
</g>
<g opacity="0.4">
<path d="M242.392 69.5713C227.072 69.6593 212.095 70.5953 197.79 72.3543C197.023 72.4483 196.458 73.1053 196.463 73.8783C196.463 73.8893 196.463 73.8993 196.463 73.9103C196.469 74.8193 197.252 75.5153 198.154 75.4043C212.346 73.6593 227.21 72.7323 242.417 72.6453C243.246 72.6403 243.919 71.9753 243.927 71.1463C243.927 71.1353 243.927 71.1243 243.927 71.1133C243.934 70.2623 243.242 69.5663 242.392 69.5713Z" fill="url(#paint3_linear_1612_3056)"/>
<path d="M242.324 76.3741C227.029 76.4651 212.075 77.4 197.791 79.156C197.027 79.25 196.457 79.903 196.457 80.673C196.457 80.683 196.457 80.6941 196.457 80.7051C196.457 81.6171 197.25 82.3171 198.155 82.2061C212.326 80.4641 227.166 79.538 242.348 79.448C243.177 79.443 243.849 78.778 243.858 77.949C243.858 77.938 243.858 77.9271 243.858 77.9161C243.868 77.0651 243.174 76.3691 242.324 76.3741Z" fill="url(#paint4_linear_1612_3056)"/>
<path d="M242.277 83.1778C227 83.2698 212.064 84.2048 197.797 85.9578C197.033 86.0518 196.462 86.7048 196.463 87.4748C196.463 87.4858 196.463 87.4958 196.463 87.5068C196.464 88.4188 197.256 89.1198 198.161 89.0078C212.315 87.2678 227.138 86.3428 242.302 86.2508C243.135 86.2458 243.81 85.5748 243.812 84.7418C243.812 84.7308 243.812 84.7198 243.812 84.7088C243.815 83.8628 243.124 83.1728 242.277 83.1778Z" fill="url(#paint5_linear_1612_3056)"/>
<path d="M212.987 91.2296C207.855 91.6406 202.788 92.1486 197.805 92.7606C197.041 92.8546 196.47 93.5076 196.471 94.2776C196.471 94.2886 196.471 94.2986 196.471 94.3096C196.472 95.2216 197.264 95.9216 198.169 95.8106C203.114 95.2036 208.142 94.6996 213.236 94.2916C214.019 94.2286 214.629 93.5816 214.637 92.7956C214.637 92.7856 214.637 92.7746 214.637 92.7646C214.645 91.8706 213.878 91.1576 212.987 91.2296Z" fill="url(#paint6_linear_1612_3056)"/>
</g>
<g opacity="0.4">
<path d="M259.691 101.59C275.011 101.679 289.988 102.614 304.293 104.373C305.06 104.467 305.625 105.124 305.62 105.897C305.62 105.908 305.62 105.918 305.62 105.929C305.614 106.838 304.831 107.534 303.929 107.423C289.737 105.678 274.873 104.751 259.666 104.664C258.837 104.659 258.164 103.994 258.156 103.165C258.156 103.154 258.156 103.143 258.156 103.132C258.149 102.281 258.841 101.585 259.691 101.59Z" fill="url(#paint7_linear_1612_3056)"/>
<path d="M259.759 108.394C275.054 108.485 290.008 109.42 304.292 111.176C305.056 111.27 305.626 111.923 305.626 112.693C305.626 112.703 305.626 112.714 305.626 112.725C305.626 113.637 304.833 114.337 303.928 114.226C289.758 112.484 274.917 111.558 259.735 111.468C258.906 111.463 258.234 110.797 258.225 109.969C258.225 109.958 258.225 109.947 258.225 109.936C258.215 109.085 258.909 108.389 259.759 108.394Z" fill="url(#paint8_linear_1612_3056)"/>
<path d="M259.805 115.197C275.082 115.289 290.017 116.224 304.285 117.977C305.049 118.071 305.62 118.724 305.619 119.494C305.619 119.505 305.619 119.515 305.619 119.526C305.618 120.438 304.826 121.139 303.921 121.027C289.767 119.287 274.944 118.362 259.78 118.27C258.947 118.265 258.272 117.594 258.27 116.761C258.27 116.75 258.27 116.739 258.27 116.728C258.268 115.882 258.958 115.191 259.805 115.197Z" fill="url(#paint9_linear_1612_3056)"/>
<path d="M289.096 123.248C294.228 123.659 299.295 124.167 304.277 124.779C305.041 124.873 305.612 125.526 305.611 126.296C305.611 126.306 305.611 126.317 305.611 126.328C305.61 127.24 304.818 127.94 303.913 127.829C298.968 127.222 293.94 126.718 288.846 126.31C288.063 126.247 287.453 125.6 287.445 124.814C287.445 124.804 287.445 124.794 287.445 124.783C287.437 123.889 288.204 123.177 289.096 123.248Z" fill="url(#paint10_linear_1612_3056)"/>
</g>
<path opacity="0.4" d="M332.691 113.085V183.592C334.19 183.735 335.66 183.888 337.111 184.05C343.059 184.67 348.625 185.339 353.838 186.064C357.113 186.503 360.235 186.971 363.233 187.458C371.768 188.833 379.187 190.341 385.603 191.964C411.409 198.485 420.9 206.877 420.9 216.023V145.506C420.899 131.712 399.313 119.635 332.691 113.085Z" fill="url(#paint11_linear_1612_3056)"/>
<path d="M342.654 128.003C342.654 129.117 343.504 130.048 344.612 130.161C402.175 136.022 420.9 146.633 420.9 158.735V154.365C420.9 142.294 402.269 131.705 345.045 125.844C343.767 125.713 342.654 126.719 342.654 128.003Z" fill="url(#paint12_linear_1612_3056)"/>
<path d="M342.654 136.802C342.654 137.916 343.504 138.848 344.612 138.96C402.175 144.821 420.9 155.432 420.9 167.533V163.163C420.9 151.092 402.269 140.504 345.045 134.642C343.767 134.511 342.654 135.517 342.654 136.802Z" fill="url(#paint13_linear_1612_3056)"/>
<path d="M342.654 145.602C342.654 146.716 343.504 147.647 344.612 147.76C402.175 153.621 420.9 164.232 420.9 176.333V171.963C420.9 159.892 402.269 149.304 345.045 143.442C343.767 143.312 342.654 144.318 342.654 145.602Z" fill="url(#paint14_linear_1612_3056)"/>
<path d="M342.654 154.401C342.654 155.515 343.504 156.447 344.612 156.559C402.175 162.42 420.9 173.031 420.9 185.133V180.763C420.9 168.692 402.269 158.104 345.045 152.242C343.767 152.11 342.654 153.116 342.654 154.401Z" fill="url(#paint15_linear_1612_3056)"/>
<path d="M342.654 163.201C342.654 164.315 343.504 165.247 344.612 165.359C402.175 171.22 420.9 181.831 420.9 193.933V189.563C420.9 177.492 402.269 166.903 345.045 161.042C343.767 160.911 342.654 161.917 342.654 163.201Z" fill="url(#paint16_linear_1612_3056)"/>
<path d="M386.024 178.844C386.008 177.468 387.302 176.45 388.639 176.78C412.249 182.602 420.901 190.137 420.901 198.361V202.731C420.901 194.392 412.009 186.761 387.646 180.904C386.709 180.679 386.037 179.851 386.025 178.887C386.024 178.873 386.024 178.859 386.024 178.844Z" fill="url(#paint17_linear_1612_3056)"/>
<path d="M401.713 166.982V237.499C413.812 231.446 420.899 224.108 420.899 216.199V145.682C420.899 153.583 413.812 160.92 401.713 166.982Z" fill="#9BC3EA"/>
<path d="M325.745 72.0881C325.474 73.1141 325.141 74.1541 324.735 75.2171C321.06 84.8861 313.401 89.9321 305.139 91.1671C289.813 93.4901 272.4 82.7561 274.404 64.2061C274.596 62.4241 274.988 60.6711 275.576 58.9881C277.906 52.1431 283.204 46.3021 289.905 43.5301C293.37 42.1051 296.997 41.4231 300.558 41.4131C316.137 41.3821 330.571 54.0541 325.745 72.0881Z" fill="#5186C7"/>
<path d="M300.557 41.4151C300.487 41.6211 300.426 41.8271 300.376 42.0351C299.822 44.2071 299.924 46.4021 300.776 48.4761C301.529 50.3191 302.882 51.8051 303.935 53.4741C304.559 54.4451 305.385 55.9511 304.583 57.0261C303.84 58.0161 302.052 58.8251 301.062 59.8621C298.193 62.8621 298.342 67.3981 300.741 70.6241C303.373 74.1661 308.088 74.9851 312.228 74.5351C316.245 74.1041 320.005 72.1401 324.066 71.9861C324.604 71.9671 325.178 71.9921 325.745 72.0871C330.571 54.0541 316.137 41.3821 300.557 41.4151ZM299.511 80.6301C298.212 79.9381 296.863 79.3531 295.54 78.6991C295.047 78.4591 294.739 78.2981 294.158 77.9281C293.929 77.7841 293.701 77.6311 293.484 77.4681C293.371 77.3861 292.999 77.0471 292.94 77.0211C292.931 77.0101 292.931 77.0101 292.931 77.0101C292.222 76.2841 291.859 75.6521 291.895 74.4321C291.945 72.9701 292.607 71.5571 293.14 70.2331C294.334 67.2941 295.554 63.9831 294.072 60.8961C292.59 57.8091 289.085 56.3991 285.806 56.4161C282.173 56.4391 279.02 58.1881 275.574 58.9881C274.987 60.6711 274.595 62.4241 274.402 64.2061C272.398 82.7551 289.811 93.4901 305.137 91.1671C305.312 89.8791 305.388 88.5711 305.127 87.2921C304.509 84.1781 302.225 82.0661 299.511 80.6301Z" fill="#69A0E1"/>
<path d="M326.025 70.952C325.938 71.328 325.841 71.7029 325.743 72.0879C325.472 73.1139 325.139 74.1539 324.733 75.2169C321.058 84.8859 313.399 89.9319 305.137 91.1669C289.811 93.4899 272.398 82.7559 274.402 64.2059C274.594 62.4239 274.986 60.6709 275.574 58.9879C276.194 57.1769 277.021 55.4259 278.038 53.7939C277.919 54.3989 277.829 55.0179 277.759 55.6379C275.755 74.1869 293.168 84.9219 308.494 82.5989C315.432 81.5609 321.941 77.84 326.025 70.952Z" fill="#3A6885"/>
<path d="M339.793 48.4316C339.467 49.9776 338.449 51.3056 337.5 52.5406C334.415 56.5936 330.684 60.0596 326.608 63.1046C322.623 66.0836 318.332 68.6476 313.983 70.9766C304.018 76.3116 293.598 80.8316 282.925 84.5466C282.729 84.6116 282.534 84.6866 282.338 84.7516C279.942 85.5846 277.533 86.3706 275.11 87.1106C272.351 87.9566 269.391 89.1556 266.472 88.9396C263.949 88.7466 261.477 87.0606 261.011 84.4696C260.53 81.8226 262.275 79.5856 264.034 77.8386C267.234 74.6686 270.656 71.7196 274.325 69.0846C274.42 70.2866 274.608 71.4516 274.86 72.5726C271.763 75.1666 268.76 77.9546 266.165 81.0136C265.19 82.1646 264.008 84.0346 266.05 84.7596C268.034 85.4796 270.661 84.2236 272.561 83.6536C274.787 82.9696 277.011 82.2576 279.212 81.5086C281.815 80.6286 284.403 79.6926 286.969 78.7196C296.115 75.2236 305.128 71.2006 313.658 66.3756C317.85 64.0026 321.931 61.3516 325.638 58.2716C328.683 55.7486 331.482 52.9316 333.894 49.7526C334.436 49.0326 334.941 48.3266 335.284 47.5186C335.275 47.5196 335.275 47.5196 335.265 47.5206C335.032 47.4926 334.861 47.4026 334.521 47.3646C332.41 47.1646 329.81 47.7466 327.643 48.1176C325.239 48.5196 322.843 49.0256 320.477 49.6456C319.291 48.3756 317.943 47.2446 316.493 46.2566C321.029 44.6416 325.716 43.5406 330.539 43.0056C333.088 42.7156 336.225 42.2406 338.361 44.0426C339.628 45.1136 340.133 46.8276 339.793 48.4316Z" fill="#5186C7"/>
<path d="M305.857 33.0002C306.583 34.8042 308.689 36.0822 310.767 35.9482C312.845 35.8142 314.695 34.2542 314.976 32.3642C315.311 30.1072 312.908 26.8662 310.236 26.9692C306.991 27.0932 304.716 30.1662 305.857 33.0002Z" fill="#E47272"/>
<path d="M275.172 109.661C277.67 111.546 281.329 111.731 284.004 110.106C290.484 106.171 287.445 96.1064 280.205 95.5544C272.681 94.9814 269.256 105.197 275.172 109.661Z" fill="white"/>
<path d="M376.78 102.629L395.603 108.712L391.493 89.2627L372.596 83.0967L376.78 102.629Z" fill="#3A6885"/>
<path d="M395.602 108.711L410.355 95.534L406.171 76.002L391.492 89.263L395.602 108.711Z" fill="#5186C7"/>
<path d="M372.596 83.0969L391.493 89.2619L406.172 76.0019L387.274 69.8369L372.596 83.0969Z" fill="white"/>
<path opacity="0.4" d="M353.139 218.701V192.909C365.238 198.962 372.325 206.3 372.325 214.209V240.001C372.325 232.1 365.238 224.762 353.139 218.701Z" fill="url(#paint18_linear_1612_3056)"/>
<path d="M337.028 238.442C332.279 239.643 326.978 240.781 321.084 241.85C321.11 250.443 321.136 259.035 321.161 267.628C359.038 260.76 372.324 250.997 372.324 240.175V214.383C372.325 223.529 362.835 231.921 337.028 238.442Z" fill="#9BC3EA"/>
<path opacity="0.4" d="M358.694 205.696C358.694 205.715 358.695 205.734 358.695 205.752C358.705 206.435 359.064 207.064 359.637 207.436C367.726 212.69 372.324 218.677 372.324 225.032V220.024C372.324 214.297 368.597 208.872 361.95 204.016C360.587 203.02 358.668 204.009 358.694 205.696Z" fill="url(#paint19_linear_1612_3056)"/>
<path opacity="0.4" d="M358.766 214.242C358.766 214.259 358.766 214.275 358.766 214.292C358.771 214.981 359.131 215.617 359.709 215.993C367.755 221.236 372.325 227.207 372.325 233.543V228.535C372.325 222.83 368.627 217.425 362.029 212.583C360.672 211.589 358.755 212.561 358.766 214.242Z" fill="url(#paint20_linear_1612_3056)"/>
<path d="M361.457 209.448C361.457 209.448 375.92 198.953 395.291 190.454L365.436 146.035L338.578 170.017C338.578 170.017 315.765 181.827 296.862 174.985L294.74 181.749L323.335 223.198C323.335 223.198 346.288 222.877 361.457 209.448Z" fill="#5186C7"/>
<path d="M337.272 167.703L359.244 206.641C359.244 206.641 342.204 220.729 324.323 217.029L297.502 172.943C321.878 178.275 322.166 159.687 337.272 167.703Z" fill="#F5F9FD"/>
<path d="M337.273 167.703C336.225 155.194 359.245 142.499 359.245 142.499L389.037 187.694C389.037 187.694 371.094 188.519 359.245 206.642L337.273 167.703Z" fill="#F5F9FD"/>
<path d="M321.151 181.481C320.083 179.486 319.049 177.447 317.79 175.567C317.65 175.358 317.346 175.159 317.079 175.267C314.55 176.291 311.89 176.936 309.284 177.743C309.013 177.685 308.717 177.813 308.537 178.035C308.142 178.371 308.265 179.043 308.68 179.245C309.298 180.441 309.916 181.637 310.534 182.833C310.869 183.481 311.193 184.14 311.556 184.773C311.849 185.284 312.241 185.765 312.841 185.899C313.475 186.041 314.154 185.748 314.721 185.498C315.4 185.199 316.063 184.863 316.73 184.539C318.099 183.873 319.471 183.218 320.851 182.575C321.249 182.387 321.342 181.838 321.151 181.481ZM316.602 182.964C316.04 183.248 315.477 183.532 314.915 183.816C314.617 183.966 314.323 184.121 314.03 184.281C313.827 184.391 313.524 184.618 313.289 184.576C312.876 184.502 312.648 183.718 312.492 183.408C312.204 182.836 311.903 182.27 311.607 181.703C311.123 180.776 310.638 179.848 310.153 178.921C312.39 178.131 314.602 177.261 316.89 176.639C317.62 178.313 318.491 179.931 319.361 181.54C318.443 182.019 317.526 182.498 316.602 182.964Z" fill="#CFE1EF"/>
<path d="M333.674 169.314C329.386 167.946 326.175 172.261 322.37 173.217C321.688 173.388 321.965 174.414 322.646 174.268C324.533 173.864 326.139 172.793 327.802 171.871C329.494 170.934 331.343 170.218 333.263 170.882C334.243 171.221 334.672 169.632 333.674 169.314Z" fill="#CFE1EF"/>
<path d="M334.924 173.394C334.047 173.306 333.094 173.443 332.225 173.569C331.321 173.7 330.432 173.926 329.574 174.238C327.851 174.866 326.286 175.802 324.929 177.036C324.297 177.611 325.219 178.501 325.858 177.965C327.1 176.924 328.556 176.122 330.101 175.632C330.857 175.392 331.637 175.212 332.425 175.118C333.271 175.017 334.079 175.091 334.924 175.11C335.388 175.12 335.782 174.708 335.782 174.252C335.782 173.751 335.387 173.441 334.924 173.394Z" fill="#CFE1EF"/>
<path d="M337.94 179.11C329.533 179.929 323.328 186.452 315.309 188.421C314.476 188.626 314.816 189.87 315.644 189.701C319.632 188.884 323.209 186.923 326.769 185.033C330.274 183.172 333.917 181.302 337.94 180.976C339.136 180.879 339.131 178.994 337.94 179.11Z" fill="#CFE1EF"/>
<path d="M325.636 189.113C324.968 189.271 324.364 189.619 323.739 189.892C323.19 190.132 322.629 190.345 322.059 190.53C320.854 190.92 319.59 191.206 318.331 191.359C317.967 191.403 317.652 191.64 317.652 192.038C317.652 192.393 317.963 192.732 318.331 192.717C319.733 192.658 321.108 192.438 322.454 192.039C323.118 191.842 323.767 191.605 324.403 191.333C325.074 191.046 325.749 190.742 326.267 190.214C326.729 189.742 326.267 188.964 325.636 189.113Z" fill="#CFE1EF"/>
<path d="M348.77 195.338C347.763 191.898 345.401 187.717 341.284 187.893C338.904 187.995 336.833 189.371 334.909 190.639C332.904 191.96 330.828 193.171 328.684 194.254C326.223 195.498 323.706 196.647 321.129 197.632C320.74 197.781 320.646 198.179 320.758 198.478C320.18 198.46 319.625 199 319.993 199.673C320.984 201.488 322.179 203.208 323.287 204.954C323.532 205.34 324.044 205.524 324.459 205.277C328.072 203.133 331.863 201.293 335.795 199.811C337.755 199.072 339.747 198.416 341.763 197.847C343.771 197.28 345.84 196.707 347.915 196.445C348.454 196.378 348.946 195.94 348.77 195.338ZM341.342 196.247C339.285 196.823 337.252 197.488 335.253 198.24C331.482 199.659 327.835 201.385 324.336 203.38C323.403 201.853 322.489 200.299 321.449 198.848C321.438 198.833 321.424 198.827 321.413 198.813C321.422 198.811 321.43 198.813 321.439 198.81C325.72 197.55 329.787 195.765 333.639 193.513C336.616 191.772 341.109 187.679 344.405 190.953C345.526 192.066 346.122 193.503 346.706 194.937C344.915 195.366 343.116 195.75 341.342 196.247Z" fill="#CFE1EF"/>
<path d="M347.577 198.038C345.762 198.549 343.983 199.349 342.21 199.997C340.421 200.651 338.633 201.304 336.844 201.958C333.263 203.269 329.698 204.618 326.143 205.997C325.303 206.323 325.625 207.683 326.505 207.379C330.147 206.124 333.778 204.838 337.395 203.512C339.183 202.856 340.971 202.201 342.76 201.545C344.557 200.886 346.449 200.335 348.19 199.543C349.042 199.155 348.456 197.791 347.577 198.038Z" fill="#CFE1EF"/>
<path d="M337.113 206.295C336.666 206.258 336.238 206.508 335.848 206.703C335.526 206.864 335.202 207.019 334.874 207.168C334.215 207.466 333.546 207.739 332.865 207.982C331.435 208.492 329.965 208.878 328.471 209.145C328.073 209.216 327.84 209.69 327.936 210.06C328.049 210.49 328.449 210.65 328.851 210.595C330.406 210.379 331.94 210.035 333.436 209.555C334.193 209.312 334.936 209.032 335.669 208.724C336.371 208.429 337.379 208.132 337.775 207.435C338.077 206.904 337.671 206.34 337.113 206.295Z" fill="#CFE1EF"/>
<path d="M356.161 150.616C355.288 150.639 354.363 151.253 353.603 151.651C352.837 152.053 352.09 152.489 351.363 152.957C349.82 153.951 348.361 155.085 347.018 156.335C344.359 158.811 342.169 161.79 340.571 165.051C340.185 165.839 341.359 166.523 341.767 165.73C343.361 162.637 345.49 159.875 348.047 157.517C349.321 156.343 350.696 155.287 352.16 154.361C352.861 153.918 353.58 153.506 354.315 153.124C355.064 152.736 356.079 152.467 356.683 151.877C357.137 151.439 356.804 150.599 356.161 150.616Z" fill="#CFE1EF"/>
<path d="M348.324 161.926C348.152 161.754 347.83 161.687 347.619 161.83C347.08 162.198 346.68 162.659 346.261 163.153C345.847 163.641 345.451 164.142 345.05 164.64C344.259 165.622 343.468 166.604 342.678 167.585C342.452 167.865 342.404 168.253 342.678 168.527C342.918 168.767 343.384 168.801 343.619 168.527C344.439 167.575 345.26 166.622 346.08 165.67C346.484 165.201 346.894 164.736 347.286 164.257C347.708 163.742 348.148 163.244 348.42 162.631C348.526 162.391 348.52 162.122 348.324 161.926Z" fill="#CFE1EF"/>
<path d="M368.445 164.505C367.398 162.634 366.165 160.588 364.106 159.709C361.761 158.708 359.307 159.684 357.218 160.841C355.092 162.019 353.088 163.428 351.231 164.995C349.349 166.584 347.507 168.408 346.144 170.472C346.112 170.521 346.1 170.57 346.085 170.619C345.489 170.603 344.88 171.275 345.278 171.887C346.57 173.875 348.178 175.697 349.627 177.574C349.931 177.968 350.537 177.845 350.858 177.574C356.209 173.043 361.998 169.054 368.129 165.652C368.528 165.43 368.665 164.899 368.445 164.505ZM346.965 171.277C347.007 171.252 347.051 171.231 347.089 171.192C348.635 169.611 350.11 168.001 351.79 166.554C353.437 165.134 355.214 163.871 357.092 162.774C358.866 161.736 361.191 160.307 363.311 161.128C364.829 161.715 365.795 163.202 366.58 164.608C360.862 167.822 355.45 171.547 350.395 175.726C349.277 174.23 348.184 172.686 346.965 171.277Z" fill="#CFE1EF"/>
<path d="M369.968 167.827C369.385 167.569 368.919 167.845 368.371 168.078C367.893 168.281 367.422 168.5 366.96 168.736C366.011 169.219 365.096 169.769 364.223 170.381C362.478 171.603 360.93 173.044 359.596 174.705C359.085 175.342 359.954 176.258 360.513 175.622C361.821 174.133 363.32 172.794 364.962 171.682C365.779 171.129 366.632 170.629 367.514 170.186C367.955 169.965 368.404 169.757 368.859 169.566C369.336 169.366 369.986 169.264 370.224 168.76C370.371 168.451 370.326 167.986 369.968 167.827Z" fill="#CFE1EF"/>
<path d="M372.231 171.34C372.052 171.105 371.794 171.044 371.512 171.087C371.285 171.122 371.086 171.281 370.894 171.4C370.748 171.49 370.602 171.58 370.456 171.671C370.154 171.86 369.856 172.055 369.557 172.247C368.946 172.639 368.337 173.029 367.746 173.452C367.494 173.633 367.338 173.972 367.522 174.264C367.701 174.548 368.037 174.639 368.334 174.488C368.991 174.154 369.626 173.787 370.264 173.42C370.583 173.237 370.903 173.057 371.219 172.868C371.366 172.78 371.514 172.692 371.661 172.604C371.745 172.554 371.831 172.506 371.914 172.453C372.075 172.351 372.174 172.246 372.285 172.093C372.444 171.879 372.378 171.534 372.231 171.34Z" fill="#CFE1EF"/>
<path d="M373.539 175.736C372.684 175.762 371.785 176.271 371.004 176.602C370.231 176.93 369.468 177.283 368.717 177.66C367.112 178.466 365.563 179.383 364.083 180.399C361.157 182.408 358.53 184.82 356.252 187.54C355.723 188.171 356.611 189.088 357.169 188.457C359.43 185.898 362.01 183.643 364.841 181.734C366.235 180.794 367.688 179.943 369.19 179.188C369.941 178.81 370.704 178.457 371.478 178.128C372.238 177.805 373.249 177.615 373.904 177.119C374.44 176.714 374.359 175.71 373.539 175.736Z" fill="#CFE1EF"/>
<path d="M358.455 177.786C357.564 176.662 356.05 176.237 354.701 176.723C353.062 177.312 352.099 178.842 351.757 180.49C351.702 180.758 351.811 180.965 351.98 181.09C352.447 182.496 353.703 183.451 355.172 183.625C356.603 183.795 357.985 183.036 358.742 181.835C359.549 180.555 359.377 178.949 358.455 177.786ZM357.524 179.997C357.524 180.008 357.519 180.063 357.517 180.097C357.511 180.13 357.502 180.184 357.499 180.195C357.487 180.25 357.473 180.305 357.458 180.359C357.442 180.413 357.425 180.466 357.406 180.52C357.401 180.535 357.402 180.536 357.402 180.538C357.397 180.546 357.392 180.552 357.379 180.576C357.316 180.687 357.26 180.798 357.189 180.904C357.181 180.915 357.149 180.957 357.129 180.983C357.108 181.007 357.083 181.035 357.076 181.043C357 181.127 356.919 181.206 356.834 181.282C356.825 181.29 356.794 181.316 356.769 181.337C356.731 181.362 356.641 181.426 356.624 181.437C356.529 181.498 356.431 181.555 356.329 181.605C356.319 181.61 356.278 181.628 356.248 181.643C356.217 181.654 356.173 181.67 356.162 181.674C356.054 181.709 355.945 181.733 355.834 181.758C355.82 181.761 355.824 181.761 355.817 181.763C355.731 181.77 355.646 181.774 355.56 181.773C355.502 181.773 355.445 181.769 355.387 181.766C355.366 181.765 355.363 181.766 355.363 181.768C355.353 181.766 355.35 181.765 355.326 181.76C355.184 181.731 355.047 181.694 354.908 181.653C354.897 181.65 354.873 181.641 354.852 181.633C354.786 181.604 354.721 181.573 354.658 181.54C354.543 181.479 354.43 181.413 354.321 181.342C354.312 181.336 354.28 181.315 354.253 181.296C354.222 181.27 354.15 181.214 354.139 181.204C354.03 181.108 353.931 181.003 353.834 180.895C353.796 180.852 353.758 180.808 353.721 180.765C353.714 180.757 353.647 180.667 353.629 180.645C353.557 180.536 353.49 180.426 353.43 180.31C353.365 180.184 353.276 180.099 353.178 180.033C353.484 179.334 353.945 178.708 354.632 178.337C355.048 178.112 355.53 177.987 356.002 178.058C356.053 178.066 356.174 178.098 356.251 178.121C356.413 178.17 356.364 178.154 356.489 178.221C356.732 178.35 356.752 178.361 356.955 178.568C356.995 178.608 357.031 178.651 357.07 178.692C357.093 178.717 357.096 178.718 357.107 178.729C357.109 178.733 357.105 178.731 357.118 178.749C357.183 178.841 357.243 178.938 357.296 179.038C357.323 179.088 357.348 179.139 357.372 179.19C357.38 179.206 357.379 179.204 357.383 179.21C357.385 179.216 357.383 179.213 357.387 179.222C357.43 179.341 357.466 179.463 357.493 179.588C357.49 179.576 357.508 179.697 357.516 179.738C357.518 179.772 357.52 179.821 357.521 179.83C357.527 179.884 357.527 179.941 357.524 179.997Z" fill="#CFE1EF"/>
<path d="M363.506 186.812C363.304 186.547 362.844 186.387 362.546 186.61C361.156 187.65 359.901 188.874 358.611 190.033C358.336 190.28 358.34 190.783 358.611 191.03C358.916 191.309 359.302 191.282 359.608 191.03C360.255 190.498 360.903 189.966 361.55 189.434C362.197 188.903 362.848 188.379 363.445 187.791C363.711 187.53 363.728 187.103 363.506 186.812Z" fill="#CFE1EF"/>
<path d="M377.835 181.971C376.216 182.504 374.64 183.309 373.135 184.102C371.575 184.924 370.06 185.834 368.607 186.832C365.734 188.806 363.119 191.128 360.79 193.718C360.221 194.351 361.127 195.276 361.732 194.659C364.099 192.243 366.717 190.095 369.533 188.223C370.904 187.312 372.321 186.473 373.782 185.713C375.319 184.914 376.92 184.296 378.492 183.579C379.39 183.169 378.774 181.661 377.835 181.971Z" fill="#CFE1EF"/>
<path opacity="0.4" d="M177.118 83.3115V153.819C175.619 153.962 174.149 154.115 172.698 154.277C166.75 154.898 161.184 155.566 155.971 156.292C152.696 156.731 149.574 157.199 146.576 157.686C138.041 159.061 130.622 160.569 124.207 162.192C98.4012 168.713 88.9102 177.105 88.9102 186.251V115.734C88.9102 101.939 110.496 89.8605 177.118 83.3115Z" fill="url(#paint21_linear_1612_3056)"/>
<path d="M167.156 98.2291C167.156 99.3431 166.306 100.274 165.198 100.387C107.635 106.248 88.9102 116.859 88.9102 128.96V124.59C88.9102 112.519 107.541 101.93 164.766 96.0691C166.043 95.9381 167.156 96.9441 167.156 98.2291Z" fill="url(#paint22_linear_1612_3056)"/>
<path d="M167.156 107.028C167.156 108.142 166.306 109.074 165.198 109.186C107.635 115.047 88.9102 125.658 88.9102 137.759V133.389C88.9102 121.318 107.541 110.73 164.766 104.868C166.043 104.738 167.156 105.744 167.156 107.028Z" fill="url(#paint23_linear_1612_3056)"/>
<path d="M167.156 115.828C167.156 116.942 166.306 117.873 165.198 117.986C107.635 123.847 88.9102 134.458 88.9102 146.559V142.189C88.9102 130.118 107.541 119.53 164.766 113.668C166.043 113.537 167.156 114.543 167.156 115.828Z" fill="url(#paint24_linear_1612_3056)"/>
<path d="M167.156 124.628C167.156 125.742 166.306 126.673 165.198 126.786C107.635 132.647 88.9102 143.258 88.9102 155.36V150.99C88.9102 138.919 107.541 128.331 164.766 122.469C166.043 122.338 167.156 123.344 167.156 124.628Z" fill="url(#paint25_linear_1612_3056)"/>
<path d="M167.156 133.427C167.156 134.541 166.306 135.472 165.198 135.585C107.635 141.446 88.9102 152.057 88.9102 164.159V159.789C88.9102 147.718 107.541 137.129 164.766 131.268C166.043 131.136 167.156 132.142 167.156 133.427Z" fill="url(#paint26_linear_1612_3056)"/>
<path d="M123.786 149.07C123.802 147.694 122.508 146.676 121.172 147.006C97.5622 152.828 88.9102 160.363 88.9102 168.588V172.958C88.9102 164.619 97.8022 156.988 122.165 151.131C123.102 150.906 123.775 150.078 123.786 149.114C123.786 149.1 123.786 149.085 123.786 149.07Z" fill="url(#paint27_linear_1612_3056)"/>
<path d="M108.096 137.207V207.724C95.9972 201.671 88.9102 194.333 88.9102 186.424V115.907C88.9112 123.808 95.9982 131.146 108.096 137.207Z" fill="#9BC3EA"/>
<path d="M235.034 139.129C237.726 133.598 235.423 126.932 229.892 124.241C224.361 121.55 217.695 123.852 215.004 129.383C212.313 134.914 214.615 141.58 220.146 144.271C225.677 146.963 232.343 144.66 235.034 139.129Z" fill="#345870"/>
<path d="M211.611 138.291C213.381 144.182 210.039 150.393 204.148 152.162C198.257 153.932 192.046 150.59 190.276 144.698C188.507 138.807 191.848 132.596 197.74 130.826C203.632 129.058 209.842 132.399 211.611 138.291Z" fill="#345870"/>
<path d="M235.502 103.902L176.618 121.588C170.111 123.542 166.421 130.401 168.375 136.908L170.196 142.971C172.229 149.738 179.362 153.576 186.129 151.544L244.07 134.141C250.837 132.108 254.675 124.975 252.643 118.208L250.822 112.145C248.868 105.638 242.009 101.948 235.502 103.902Z" fill="#345870"/>
<path d="M234.636 99.2977L174.801 117.269C168.557 119.144 165.015 125.727 166.891 131.971L168.604 137.675C170.48 143.919 177.062 147.461 183.306 145.585L243.141 127.614C249.385 125.739 252.927 119.156 251.051 112.912L249.338 107.208C247.463 100.965 240.881 97.4227 234.636 99.2977Z" fill="#69A0E1"/>
<path d="M208.544 135.981C209.845 140.311 207.389 144.876 203.059 146.176C198.729 147.477 194.164 145.021 192.864 140.691C191.563 136.361 194.019 131.796 198.349 130.496C202.679 129.194 207.243 131.65 208.544 135.981Z" fill="#5186C7"/>
<path d="M230.994 129.239C232.294 133.569 229.839 138.134 225.508 139.434C221.178 140.735 216.613 138.279 215.313 133.949C214.013 129.619 216.468 125.054 220.799 123.754C225.129 122.453 229.694 124.909 230.994 129.239Z" fill="#5186C7"/>
<path d="M228.197 129.679C229.024 132.433 227.462 135.337 224.708 136.164C221.954 136.991 219.05 135.429 218.223 132.675C217.396 129.921 218.958 127.017 221.712 126.19C224.466 125.362 227.37 126.924 228.197 129.679Z" fill="white"/>
<path d="M205.807 136.403C206.634 139.157 205.072 142.061 202.318 142.888C199.564 143.715 196.66 142.153 195.833 139.399C195.006 136.645 196.568 133.741 199.322 132.914C202.076 132.086 204.98 133.648 205.807 136.403Z" fill="white"/>
<path d="M193.173 132.214C192.266 138.436 186.486 142.745 180.264 141.838C174.042 140.931 169.733 135.151 170.64 128.929C171.547 122.707 177.326 118.398 183.549 119.305C189.771 120.212 194.08 125.991 193.173 132.214Z" fill="#5186C7"/>
<path d="M247.472 115.905C246.565 122.127 240.785 126.436 234.563 125.529C228.341 124.622 224.032 118.842 224.939 112.62C225.846 106.398 231.625 102.089 237.848 102.996C244.07 103.903 248.379 109.683 247.472 115.905Z" fill="#5186C7"/>
<path d="M220.178 122.139L198.936 128.519C197.453 128.964 195.889 128.123 195.443 126.64L191.787 114.467C191.342 112.984 192.183 111.42 193.666 110.974L214.908 104.594C216.391 104.149 217.955 104.99 218.401 106.473L222.057 118.646C222.503 120.13 221.662 121.693 220.178 122.139Z" fill="#345870"/>
<path d="M219.291 120.048L198.523 126.286C196.909 126.771 195.207 125.855 194.722 124.241L191.323 112.924C190.838 111.31 191.754 109.608 193.368 109.123L214.136 102.885C215.75 102.4 217.452 103.316 217.937 104.93L221.336 116.247C221.821 117.861 220.905 119.563 219.291 120.048Z" fill="#5186C7"/>
<path d="M214.98 106.91L217.559 115.495C217.904 116.643 217.254 117.857 216.102 118.203L200.393 122.921C200.024 123.032 199.647 123.038 199.292 122.956C198.555 122.794 197.918 122.243 197.685 121.464L195.106 112.879C194.913 112.238 195.277 111.563 195.918 111.37L213.471 106.098C214.112 105.905 214.788 106.269 214.98 106.91Z" fill="#D9DADE"/>
<path d="M211.925 106.562L208.304 120.545L200.779 122.805L204.4 108.822L211.925 106.562Z" fill="white"/>
<path d="M202.83 109.294L199.292 122.956C198.555 122.794 197.918 122.243 197.685 121.464L196.637 117.975L198.549 110.579L202.83 109.294Z" fill="white"/>
<path d="M215.27 107.872L216.491 111.935L214.763 118.605L212.303 119.345L215.27 107.872Z" fill="white"/>
<path d="M207.356 128.666C207.481 129.081 207.245 129.518 206.831 129.643C206.416 129.768 205.979 129.532 205.854 129.118C205.729 128.703 205.965 128.266 206.379 128.141C206.794 128.016 207.231 128.251 207.356 128.666Z" fill="url(#paint28_linear_1612_3056)"/>
<path d="M209.307 130.399C209.432 130.814 209.196 131.251 208.782 131.376C208.367 131.501 207.93 131.265 207.805 130.851C207.68 130.436 207.916 129.999 208.33 129.875C208.745 129.75 209.182 129.985 209.307 130.399Z" fill="url(#paint29_linear_1612_3056)"/>
<path d="M209.989 127.876C210.114 128.291 209.878 128.728 209.464 128.853C209.049 128.978 208.612 128.742 208.487 128.328C208.362 127.913 208.598 127.476 209.012 127.351C209.427 127.226 209.864 127.462 209.989 127.876Z" fill="url(#paint30_linear_1612_3056)"/>
<path d="M211.937 129.609C212.062 130.024 211.826 130.461 211.412 130.585C210.997 130.71 210.56 130.474 210.436 130.06C210.311 129.645 210.547 129.208 210.961 129.083C211.376 128.959 211.813 129.194 211.937 129.609Z" fill="url(#paint31_linear_1612_3056)"/>
<path d="M212.619 127.085C212.744 127.5 212.508 127.937 212.094 128.062C211.679 128.186 211.242 127.951 211.117 127.536C210.993 127.121 211.228 126.684 211.642 126.56C212.058 126.435 212.495 126.67 212.619 127.085Z" fill="url(#paint32_linear_1612_3056)"/>
<path d="M214.57 128.819C214.695 129.234 214.459 129.671 214.045 129.796C213.63 129.92 213.193 129.685 213.069 129.271C212.944 128.856 213.18 128.419 213.594 128.294C214.008 128.169 214.445 128.404 214.57 128.819Z" fill="url(#paint33_linear_1612_3056)"/>
<path d="M215.25 126.294C215.374 126.709 215.139 127.146 214.725 127.27C214.31 127.395 213.873 127.159 213.748 126.745C213.623 126.33 213.859 125.893 214.273 125.768C214.688 125.644 215.126 125.88 215.25 126.294Z" fill="url(#paint34_linear_1612_3056)"/>
<path d="M182.742 126.432L181.636 127.777C181.483 127.963 181.252 128.032 181.022 127.961L179.358 127.448C179.106 127.371 178.894 127.137 178.805 126.841L178.081 124.432C177.948 123.987 178.129 123.54 178.486 123.433L181.256 122.601C181.613 122.494 182.011 122.767 182.145 123.212L182.868 125.621C182.958 125.918 182.91 126.229 182.742 126.432Z" fill="white"/>
<path d="M181.188 133.543L182.294 132.198C182.447 132.012 182.677 131.943 182.908 132.014L184.572 132.527C184.824 132.605 185.036 132.838 185.125 133.134L185.849 135.543C185.983 135.988 185.801 136.435 185.444 136.542L182.674 137.374C182.317 137.481 181.919 137.208 181.785 136.763L181.061 134.354C180.972 134.058 181.021 133.747 181.188 133.543Z" fill="white"/>
<path d="M178.009 129.814L179.29 130.708C179.467 130.832 179.526 131.027 179.446 131.228L178.87 132.68C178.783 132.899 178.544 133.092 178.248 133.181L175.839 133.905C175.394 134.038 174.96 133.901 174.869 133.599L174.165 131.253C174.074 130.95 174.361 130.597 174.806 130.463L177.215 129.74C177.51 129.65 177.815 129.679 178.009 129.814Z" fill="white"/>
<path d="M186.031 130.529L184.75 129.635C184.573 129.511 184.514 129.316 184.594 129.115L185.17 127.663C185.257 127.443 185.496 127.251 185.792 127.162L188.201 126.438C188.646 126.305 189.08 126.441 189.171 126.744L189.875 129.09C189.966 129.393 189.679 129.746 189.234 129.88L186.825 130.604C186.531 130.693 186.225 130.665 186.031 130.529Z" fill="white"/>
<path d="M189.232 119.306C188.435 119.546 187.594 119.093 187.355 118.296L187.06 117.315C186.82 116.518 187.273 115.677 188.07 115.438C188.867 115.198 189.708 115.651 189.947 116.448L190.241 117.429C190.482 118.226 190.029 119.067 189.232 119.306Z" fill="#210042"/>
<path d="M189.949 116.448C190.188 117.245 189.736 118.086 188.939 118.325C188.142 118.565 187.301 118.112 187.062 117.315C186.822 116.518 187.275 115.677 188.072 115.438C188.869 115.199 189.709 115.651 189.949 116.448Z" fill="white"/>
<path d="M223.716 108.949C222.919 109.189 222.078 108.736 221.839 107.939L221.544 106.958C221.305 106.161 221.757 105.32 222.554 105.081C223.351 104.841 224.192 105.294 224.431 106.091L224.726 107.072C224.966 107.869 224.514 108.709 223.716 108.949Z" fill="#210042"/>
<path d="M224.433 106.091C224.672 106.888 224.22 107.729 223.423 107.968C222.626 108.208 221.785 107.755 221.546 106.958C221.307 106.161 221.759 105.32 222.556 105.081C223.353 104.841 224.193 105.293 224.433 106.091Z" fill="white"/>
<path d="M234.476 111.239C235.986 111.239 237.21 110.014 237.21 108.505C237.21 106.995 235.986 105.771 234.476 105.771C232.966 105.771 231.742 106.995 231.742 108.505C231.742 110.014 232.966 111.239 234.476 111.239Z" fill="white"/>
<path d="M240.358 121.3C241.068 119.968 240.564 118.312 239.232 117.601C237.899 116.891 236.243 117.395 235.533 118.727C234.822 120.06 235.326 121.716 236.659 122.426C237.991 123.137 239.647 122.633 240.358 121.3Z" fill="white"/>
<path d="M233.066 115.205C233.5 116.651 232.68 118.176 231.234 118.61C229.788 119.044 228.263 118.224 227.829 116.778C227.395 115.332 228.215 113.807 229.661 113.373C231.107 112.938 232.632 113.758 233.066 115.205Z" fill="white"/>
<path d="M244.582 111.746C245.016 113.192 244.196 114.717 242.75 115.151C241.304 115.585 239.779 114.765 239.345 113.319C238.911 111.873 239.731 110.348 241.177 109.914C242.623 109.479 244.147 110.3 244.582 111.746Z" fill="white"/>
<path d="M231.085 114.783L229.223 115.343L229.782 117.205L231.645 116.646L231.085 114.783Z" fill="#69A0E1"/>
<path d="M235.116 107.297L233.252 107.856L233.812 109.72L235.675 109.16L235.116 107.297Z" fill="#E47272"/>
<path d="M238.59 118.868L236.727 119.428L237.286 121.29L239.15 120.731L238.59 118.868Z" fill="#E05C5C"/>
<path d="M242.617 111.386L240.754 111.945L241.314 113.809L243.176 113.25L242.617 111.386Z" fill="#5186C7"/>
<path d="M247.292 111.654C245.901 107.854 242.522 104.917 238.238 104.294C232.017 103.387 226.237 107.697 225.328 113.92C225.114 115.378 225.189 116.815 225.508 118.168C224.879 116.451 224.654 114.557 224.938 112.62C225.847 106.395 231.627 102.088 237.848 102.994C242.608 103.689 246.251 107.237 247.292 111.654Z" fill="#345870"/>
<path d="M192.993 127.964C191.602 124.164 188.224 121.227 183.939 120.604C177.718 119.697 171.938 124.007 171.029 130.23C170.815 131.688 170.89 133.125 171.209 134.478C170.58 132.761 170.355 130.867 170.639 128.93C171.548 122.705 177.328 118.398 183.549 119.304C188.309 119.998 191.952 123.547 192.993 127.964Z" fill="#345870"/>
<path d="M203.214 197.126V243.679C203.214 246.546 201.368 249.266 199.056 249.76L127.603 265.052C123.861 265.853 120.766 263.482 120.766 259.741V198.995C120.766 195.254 123.86 192.21 127.603 192.197L199.056 191.949C201.368 191.941 203.214 194.259 203.214 197.126Z" fill="#F5F9FD"/>
<path d="M203.214 197.126V197.772L120.766 199.838V198.995C120.766 195.254 123.86 192.21 127.603 192.197L199.056 191.949C201.368 191.941 203.214 194.259 203.214 197.126Z" fill="#69A0E1"/>
<path d="M131.563 195.876C131.563 196.979 130.669 197.891 129.559 197.913C128.442 197.936 127.531 197.049 127.531 195.933C127.531 194.817 128.442 193.905 129.559 193.895C130.669 193.887 131.563 194.773 131.563 195.876Z" fill="white"/>
<path d="M138.423 195.777C138.423 196.858 137.564 197.751 136.499 197.773C135.427 197.794 134.553 196.926 134.553 195.833C134.553 194.74 135.427 193.846 136.499 193.837C137.564 193.828 138.423 194.697 138.423 195.777Z" fill="white"/>
<path d="M145.014 195.683C145.014 196.743 144.189 197.618 143.165 197.639C142.135 197.66 141.295 196.808 141.295 195.736C141.295 194.664 142.135 193.789 143.165 193.78C144.189 193.772 145.014 194.624 145.014 195.683Z" fill="white"/>
<path d="M162.744 214.039L175.398 220.705C176.584 221.33 176.584 223.287 175.398 224.162L162.744 233.496C161.499 234.414 159.969 233.628 159.969 232.057V216.062C159.969 214.492 161.499 213.384 162.744 214.039Z" fill="#E47272"/>
<path d="M198.75 249.826L128.089 264.948C124.083 265.805 120.766 263.262 120.766 259.249V254.078L203.214 239.339V243.302C203.214 246.378 201.233 249.295 198.75 249.826Z" fill="#69A0E1"/>
<path d="M174.929 250.29C174.937 249.726 174.919 249.16 174.882 248.596L137.201 255.996C136.63 256.108 136.258 256.663 136.37 257.234C136.469 257.736 136.91 258.085 137.403 258.085C137.47 258.085 137.538 258.079 137.607 258.065L174.915 250.738C174.919 250.589 174.927 250.439 174.929 250.29Z" fill="#E47272"/>
<path d="M199.016 243.855L176.311 248.314C176.397 248.898 176.457 249.486 176.51 250.074C176.52 250.189 176.525 250.304 176.534 250.419L199.423 245.924C199.994 245.812 200.366 245.257 200.254 244.686C200.141 244.115 199.588 243.745 199.016 243.855Z" fill="#FFFFFD"/>
<path d="M127.196 260.088C126.703 260.088 126.261 259.74 126.162 259.237C126.05 258.666 126.422 258.111 126.993 257.999L145.905 254.284C146.477 254.171 147.031 254.544 147.143 255.115C147.255 255.686 146.883 256.241 146.312 256.353L127.4 260.068C127.332 260.082 127.264 260.088 127.196 260.088Z" fill="#E47272"/>
<path d="M178.334 248.958C178.334 251.029 176.74 253.04 174.752 253.453C172.74 253.872 171.09 252.498 171.09 250.381C171.09 248.264 172.74 246.242 174.752 245.87C176.74 245.502 178.334 246.887 178.334 248.958Z" fill="#E47272"/>
<path d="M176.527 249.312C176.527 250.338 175.735 251.33 174.753 251.528C173.765 251.728 172.959 251.05 172.959 250.013C172.959 248.976 173.764 247.981 174.753 247.793C175.735 247.605 176.527 248.286 176.527 249.312Z" fill="#FFFFFD"/>
<path opacity="0.4" d="M95.1517 235.521C95.1527 235.537 95.1527 235.56 95.1617 235.584L95.9627 262.281C95.7217 254.242 108.718 246.543 130.086 240.509L129.283 213.749C107.907 219.784 94.9107 227.482 95.1517 235.521Z" fill="url(#paint35_linear_1612_3056)"/>
<path opacity="0.4" d="M120.777 225.15C106.853 229.88 97.7754 235.405 95.4434 241.207C95.4884 242.406 95.5264 243.607 95.5554 244.808C98.1504 238.95 107.593 233.383 121.949 228.647C122.727 228.39 123.25 227.656 123.225 226.838C123.186 225.596 121.953 224.751 120.777 225.15Z" fill="url(#paint36_linear_1612_3056)"/>
<path opacity="0.4" d="M120.779 232.367C107.189 236.984 98.2326 242.36 95.6426 248.01C95.6496 249.275 95.6486 250.539 95.6456 251.803C98.3786 246.026 107.774 240.541 121.949 235.864C122.726 235.608 123.252 234.874 123.226 234.056V234.054C123.187 232.814 121.954 231.968 120.779 232.367Z" fill="url(#paint37_linear_1612_3056)"/>
<path d="M95.1133 234.169L95.9163 260.932C96.3263 274.602 134.943 284.997 187.474 287.091L186.67 260.322C134.141 258.234 95.5243 247.839 95.1133 234.169Z" fill="#9BC3EA"/>
<path d="M271.436 158.369C269.476 158.369 267.608 157.663 266.127 156.354L268.921 153.196C269.684 153.871 270.655 154.215 271.68 154.145C272.696 154.083 273.628 153.629 274.302 152.866C274.977 152.103 275.314 151.124 275.252 150.107C275.189 149.091 274.735 148.16 273.973 147.485L276.767 144.327C278.373 145.748 279.33 147.709 279.461 149.849C279.593 151.99 278.882 154.053 277.461 155.659C276.04 157.265 274.079 158.222 271.938 158.353C271.77 158.364 271.603 158.369 271.436 158.369Z" fill="#CFE1EF"/>
<path d="M445.075 158.426C444.026 158.426 442.978 158.218 441.981 157.801C440.003 156.974 438.464 155.427 437.649 153.443C436.835 151.46 436.841 149.278 437.668 147.299C438.495 145.321 440.043 143.782 442.026 142.967L443.628 146.867C442.686 147.254 441.951 147.984 441.559 148.924C441.167 149.863 441.164 150.9 441.55 151.842C441.937 152.784 442.668 153.519 443.607 153.912C444.547 154.305 445.582 154.306 446.524 153.921L448.126 157.821C447.141 158.224 446.108 158.426 445.075 158.426Z" fill="#E6BC7A"/>
<path d="M143.13 67.6993C142.081 67.6993 141.032 67.4913 140.035 67.0743C138.056 66.2473 136.518 64.7003 135.703 62.7163C134.022 58.6203 135.986 53.9203 140.08 52.2393L141.682 56.1393C139.738 56.9373 138.805 59.1693 139.603 61.1143C140.402 63.0583 142.632 63.9903 144.577 63.1923L146.179 67.0923C145.195 67.4973 144.162 67.6993 143.13 67.6993Z" fill="#E6BC7A"/>
<path d="M28.6327 189.286C26.4837 189.286 24.3407 188.432 22.7617 186.741L25.8437 183.863C27.2777 185.398 29.6937 185.482 31.2317 184.048C32.7677 182.614 32.8507 180.197 31.4157 178.661L34.4977 175.783C37.5187 179.018 37.3447 184.109 34.1087 187.13C32.5647 188.572 30.5967 189.286 28.6327 189.286Z" fill="#CFE1EF"/>
<path d="M165.566 171.362C160.849 171.362 160.847 178.683 165.566 178.683C170.284 178.683 170.286 171.362 165.566 171.362Z" fill="white"/>
<path d="M436.001 110.596C431.284 110.596 431.282 117.917 436.001 117.917C440.719 117.917 440.721 110.596 436.001 110.596Z" fill="white"/>
<path d="M346.273 281.895C341.556 281.895 341.554 289.216 346.273 289.216C350.991 289.216 350.993 281.895 346.273 281.895Z" fill="white"/>
<path d="M84.8569 84.1816C80.1399 84.1816 80.1379 91.5026 84.8569 91.5026C89.5739 91.5026 89.5759 84.1816 84.8569 84.1816Z" fill="white"/>
<path d="M250.329 42.6348C247.633 42.6348 247.632 46.8178 250.329 46.8178C253.024 46.8178 253.026 42.6348 250.329 42.6348Z" fill="white"/>
<path d="M232.073 171.207C229.377 171.207 229.376 175.39 232.073 175.39C234.769 175.39 234.77 171.207 232.073 171.207Z" fill="white"/>
<path d="M315.587 154.115C312.891 154.115 312.89 158.298 315.587 158.298C318.282 158.299 318.284 154.115 315.587 154.115Z" fill="white"/>
<path d="M335.007 94.6846C332.311 94.6846 332.31 98.8676 335.007 98.8676C337.703 98.8676 337.704 94.6846 335.007 94.6846Z" fill="white"/>
<path d="M403.761 48.4609C401.065 48.4609 401.064 52.6439 403.761 52.6439C406.457 52.6449 406.458 48.4609 403.761 48.4609Z" fill="white"/>
<path d="M389.39 216.265C386.694 216.265 386.693 220.449 389.39 220.449C392.086 220.448 392.087 216.265 389.39 216.265Z" fill="white"/>
<path d="M310.149 231.024C307.453 231.024 307.452 235.207 310.149 235.207C312.844 235.208 312.845 231.024 310.149 231.024Z" fill="white"/>
<path d="M180.411 297.448C177.715 297.448 177.714 301.631 180.411 301.631C183.106 301.631 183.107 297.448 180.411 297.448Z" fill="white"/>
<path d="M89.5185 212.769C86.8225 212.769 86.8215 216.952 89.5185 216.952C92.2145 216.952 92.2155 212.769 89.5185 212.769Z" fill="white"/>
<path d="M36.3017 138.967C33.6057 138.967 33.6047 143.15 36.3017 143.15C38.9977 143.15 38.9987 138.967 36.3017 138.967Z" fill="white"/>
<path d="M171.477 61.2793C168.781 61.2793 168.78 65.4623 171.477 65.4623C174.172 65.4623 174.173 61.2793 171.477 61.2793Z" fill="white"/>
<path d="M435.612 180.917C432.916 180.917 432.915 185.1 435.612 185.1C438.308 185.101 438.309 180.917 435.612 180.917Z" fill="white"/>
</g>
<defs>
<linearGradient id="paint0_linear_1612_3056" x1="50.9241" y1="116.134" x2="85.0791" y2="165.989" gradientUnits="userSpaceOnUse">
<stop stop-color="#9BC3EA"/>
<stop offset="1" stop-color="#EBF4FA"/>
</linearGradient>
<linearGradient id="paint1_linear_1612_3056" x1="347.667" y1="44.6991" x2="366.233" y2="84.1842" gradientUnits="userSpaceOnUse">
<stop stop-color="#9BC3EA"/>
<stop offset="1" stop-color="#EBF4FA"/>
</linearGradient>
<linearGradient id="paint2_linear_1612_3056" x1="240.333" y1="51.713" x2="263.858" y2="160.869" gradientUnits="userSpaceOnUse">
<stop stop-color="#9BC3EA"/>
<stop offset="0.1927" stop-color="#A2C7EB"/>
<stop offset="0.464" stop-color="#B4D2EF"/>
<stop offset="0.7805" stop-color="#D2E5F5"/>
<stop offset="1" stop-color="#EBF4FA"/>
</linearGradient>
<linearGradient id="paint3_linear_1612_3056" x1="196.462" y1="72.4929" x2="243.926" y2="72.4929" gradientUnits="userSpaceOnUse">
<stop stop-color="#9BC3EA"/>
<stop offset="0.1927" stop-color="#A2C7EB"/>
<stop offset="0.464" stop-color="#B4D2EF"/>
<stop offset="0.7805" stop-color="#D2E5F5"/>
<stop offset="1" stop-color="#EBF4FA"/>
</linearGradient>
<linearGradient id="paint4_linear_1612_3056" x1="196.457" y1="79.2957" x2="243.859" y2="79.2957" gradientUnits="userSpaceOnUse">
<stop stop-color="#9BC3EA"/>
<stop offset="0.1927" stop-color="#A2C7EB"/>
<stop offset="0.464" stop-color="#B4D2EF"/>
<stop offset="0.7805" stop-color="#D2E5F5"/>
<stop offset="1" stop-color="#EBF4FA"/>
</linearGradient>
<linearGradient id="paint5_linear_1612_3056" x1="196.463" y1="86.0987" x2="243.812" y2="86.0987" gradientUnits="userSpaceOnUse">
<stop stop-color="#9BC3EA"/>
<stop offset="0.1927" stop-color="#A2C7EB"/>
<stop offset="0.464" stop-color="#B4D2EF"/>
<stop offset="0.7805" stop-color="#D2E5F5"/>
<stop offset="1" stop-color="#EBF4FA"/>
</linearGradient>
<linearGradient id="paint6_linear_1612_3056" x1="196.471" y1="93.5229" x2="214.637" y2="93.5229" gradientUnits="userSpaceOnUse">
<stop stop-color="#9BC3EA"/>
<stop offset="0.1927" stop-color="#A2C7EB"/>
<stop offset="0.464" stop-color="#B4D2EF"/>
<stop offset="0.7805" stop-color="#D2E5F5"/>
<stop offset="1" stop-color="#EBF4FA"/>
</linearGradient>
<linearGradient id="paint7_linear_1612_3056" x1="258.157" y1="104.512" x2="305.621" y2="104.512" gradientUnits="userSpaceOnUse">
<stop stop-color="#9BC3EA"/>
<stop offset="0.1927" stop-color="#A2C7EB"/>
<stop offset="0.464" stop-color="#B4D2EF"/>
<stop offset="0.7805" stop-color="#D2E5F5"/>
<stop offset="1" stop-color="#EBF4FA"/>
</linearGradient>
<linearGradient id="paint8_linear_1612_3056" x1="258.224" y1="111.315" x2="305.625" y2="111.315" gradientUnits="userSpaceOnUse">
<stop stop-color="#9BC3EA"/>
<stop offset="0.1927" stop-color="#A2C7EB"/>
<stop offset="0.464" stop-color="#B4D2EF"/>
<stop offset="0.7805" stop-color="#D2E5F5"/>
<stop offset="1" stop-color="#EBF4FA"/>
</linearGradient>
<linearGradient id="paint9_linear_1612_3056" x1="258.27" y1="118.118" x2="305.619" y2="118.118" gradientUnits="userSpaceOnUse">
<stop stop-color="#9BC3EA"/>
<stop offset="0.1927" stop-color="#A2C7EB"/>
<stop offset="0.464" stop-color="#B4D2EF"/>
<stop offset="0.7805" stop-color="#D2E5F5"/>
<stop offset="1" stop-color="#EBF4FA"/>
</linearGradient>
<linearGradient id="paint10_linear_1612_3056" x1="287.446" y1="125.542" x2="305.612" y2="125.542" gradientUnits="userSpaceOnUse">
<stop stop-color="#9BC3EA"/>
<stop offset="0.1927" stop-color="#A2C7EB"/>
<stop offset="0.464" stop-color="#B4D2EF"/>
<stop offset="0.7805" stop-color="#D2E5F5"/>
<stop offset="1" stop-color="#EBF4FA"/>
</linearGradient>
<linearGradient id="paint11_linear_1612_3056" x1="332.692" y1="164.555" x2="420.899" y2="164.555" gradientUnits="userSpaceOnUse">
<stop stop-color="#9BC3EA"/>
<stop offset="0.1927" stop-color="#A2C7EB"/>
<stop offset="0.464" stop-color="#B4D2EF"/>
<stop offset="0.7805" stop-color="#D2E5F5"/>
<stop offset="1" stop-color="#EBF4FA"/>
</linearGradient>
<linearGradient id="paint12_linear_1612_3056" x1="304.865" y1="108.567" x2="423.742" y2="152.297" gradientUnits="userSpaceOnUse">
<stop stop-color="#9BC3EA"/>
<stop offset="0.1927" stop-color="#A2C7EB"/>
<stop offset="0.464" stop-color="#B4D2EF"/>
<stop offset="0.7805" stop-color="#D2E5F5"/>
<stop offset="1" stop-color="#EBF4FA"/>
</linearGradient>
<linearGradient id="paint13_linear_1612_3056" x1="302.014" y1="116.318" x2="420.891" y2="160.048" gradientUnits="userSpaceOnUse">
<stop stop-color="#9BC3EA"/>
<stop offset="0.1927" stop-color="#A2C7EB"/>
<stop offset="0.464" stop-color="#B4D2EF"/>
<stop offset="0.7805" stop-color="#D2E5F5"/>
<stop offset="1" stop-color="#EBF4FA"/>
</linearGradient>
<linearGradient id="paint14_linear_1612_3056" x1="299.163" y1="124.069" x2="418.04" y2="167.799" gradientUnits="userSpaceOnUse">
<stop stop-color="#9BC3EA"/>
<stop offset="0.1927" stop-color="#A2C7EB"/>
<stop offset="0.464" stop-color="#B4D2EF"/>
<stop offset="0.7805" stop-color="#D2E5F5"/>
<stop offset="1" stop-color="#EBF4FA"/>
</linearGradient>
<linearGradient id="paint15_linear_1612_3056" x1="296.312" y1="131.819" x2="415.189" y2="175.549" gradientUnits="userSpaceOnUse">
<stop stop-color="#9BC3EA"/>
<stop offset="0.1927" stop-color="#A2C7EB"/>
<stop offset="0.464" stop-color="#B4D2EF"/>
<stop offset="0.7805" stop-color="#D2E5F5"/>
<stop offset="1" stop-color="#EBF4FA"/>
</linearGradient>
<linearGradient id="paint16_linear_1612_3056" x1="293.461" y1="139.57" x2="412.337" y2="183.3" gradientUnits="userSpaceOnUse">
<stop stop-color="#9BC3EA"/>
<stop offset="0.1927" stop-color="#A2C7EB"/>
<stop offset="0.464" stop-color="#B4D2EF"/>
<stop offset="0.7805" stop-color="#D2E5F5"/>
<stop offset="1" stop-color="#EBF4FA"/>
</linearGradient>
<linearGradient id="paint17_linear_1612_3056" x1="290.609" y1="147.321" x2="409.485" y2="191.051" gradientUnits="userSpaceOnUse">
<stop stop-color="#9BC3EA"/>
<stop offset="0.1927" stop-color="#A2C7EB"/>
<stop offset="0.464" stop-color="#B4D2EF"/>
<stop offset="0.7805" stop-color="#D2E5F5"/>
<stop offset="1" stop-color="#EBF4FA"/>
</linearGradient>
<linearGradient id="paint18_linear_1612_3056" x1="353.139" y1="216.455" x2="372.324" y2="216.455" gradientUnits="userSpaceOnUse">
<stop stop-color="#9BC3EA"/>
<stop offset="0.1927" stop-color="#A2C7EB"/>
<stop offset="0.464" stop-color="#B4D2EF"/>
<stop offset="0.7805" stop-color="#D2E5F5"/>
<stop offset="1" stop-color="#EBF4FA"/>
</linearGradient>
<linearGradient id="paint19_linear_1612_3056" x1="353.254" y1="214.325" x2="372.323" y2="214.325" gradientUnits="userSpaceOnUse">
<stop stop-color="#9BC3EA"/>
<stop offset="0.1927" stop-color="#A2C7EB"/>
<stop offset="0.464" stop-color="#B4D2EF"/>
<stop offset="0.7805" stop-color="#D2E5F5"/>
<stop offset="1" stop-color="#EBF4FA"/>
</linearGradient>
<linearGradient id="paint20_linear_1612_3056" x1="353.175" y1="222.863" x2="372.323" y2="222.863" gradientUnits="userSpaceOnUse">
<stop stop-color="#9BC3EA"/>
<stop offset="0.1927" stop-color="#A2C7EB"/>
<stop offset="0.464" stop-color="#B4D2EF"/>
<stop offset="0.7805" stop-color="#D2E5F5"/>
<stop offset="1" stop-color="#EBF4FA"/>
</linearGradient>
<linearGradient id="paint21_linear_1612_3056" x1="88.9098" y1="134.781" x2="177.118" y2="134.781" gradientUnits="userSpaceOnUse">
<stop stop-color="#9BC3EA"/>
<stop offset="0.1927" stop-color="#A2C7EB"/>
<stop offset="0.464" stop-color="#B4D2EF"/>
<stop offset="0.7805" stop-color="#D2E5F5"/>
<stop offset="1" stop-color="#EBF4FA"/>
</linearGradient>
<linearGradient id="paint22_linear_1612_3056" x1="70.1076" y1="127.333" x2="180.203" y2="90.8344" gradientUnits="userSpaceOnUse">
<stop stop-color="#9BC3EA"/>
<stop offset="0.1927" stop-color="#A2C7EB"/>
<stop offset="0.464" stop-color="#B4D2EF"/>
<stop offset="0.7805" stop-color="#D2E5F5"/>
<stop offset="1" stop-color="#EBF4FA"/>
</linearGradient>
<linearGradient id="paint23_linear_1612_3056" x1="72.736" y1="135.261" x2="182.831" y2="98.7623" gradientUnits="userSpaceOnUse">
<stop stop-color="#9BC3EA"/>
<stop offset="0.1927" stop-color="#A2C7EB"/>
<stop offset="0.464" stop-color="#B4D2EF"/>
<stop offset="0.7805" stop-color="#D2E5F5"/>
<stop offset="1" stop-color="#EBF4FA"/>
</linearGradient>
<linearGradient id="paint24_linear_1612_3056" x1="75.3643" y1="143.189" x2="185.459" y2="106.69" gradientUnits="userSpaceOnUse">
<stop stop-color="#9BC3EA"/>
<stop offset="0.1927" stop-color="#A2C7EB"/>
<stop offset="0.464" stop-color="#B4D2EF"/>
<stop offset="0.7805" stop-color="#D2E5F5"/>
<stop offset="1" stop-color="#EBF4FA"/>
</linearGradient>
<linearGradient id="paint25_linear_1612_3056" x1="77.9927" y1="151.118" x2="188.088" y2="114.619" gradientUnits="userSpaceOnUse">
<stop stop-color="#9BC3EA"/>
<stop offset="0.1927" stop-color="#A2C7EB"/>
<stop offset="0.464" stop-color="#B4D2EF"/>
<stop offset="0.7805" stop-color="#D2E5F5"/>
<stop offset="1" stop-color="#EBF4FA"/>
</linearGradient>
<linearGradient id="paint26_linear_1612_3056" x1="80.621" y1="159.046" x2="190.716" y2="122.547" gradientUnits="userSpaceOnUse">
<stop stop-color="#9BC3EA"/>
<stop offset="0.1927" stop-color="#A2C7EB"/>
<stop offset="0.464" stop-color="#B4D2EF"/>
<stop offset="0.7805" stop-color="#D2E5F5"/>
<stop offset="1" stop-color="#EBF4FA"/>
</linearGradient>
<linearGradient id="paint27_linear_1612_3056" x1="83.2496" y1="166.975" x2="193.345" y2="130.476" gradientUnits="userSpaceOnUse">
<stop stop-color="#9BC3EA"/>
<stop offset="0.1927" stop-color="#A2C7EB"/>
<stop offset="0.464" stop-color="#B4D2EF"/>
<stop offset="0.7805" stop-color="#D2E5F5"/>
<stop offset="1" stop-color="#EBF4FA"/>
</linearGradient>
<linearGradient id="paint28_linear_1612_3056" x1="218.422" y1="120.542" x2="202.842" y2="131.55" gradientUnits="userSpaceOnUse">
<stop stop-color="#1C0035"/>
<stop offset="1" stop-color="#46008D"/>
</linearGradient>
<linearGradient id="paint29_linear_1612_3056" x1="219.888" y1="122.618" x2="204.309" y2="133.626" gradientUnits="userSpaceOnUse">
<stop stop-color="#1C0035"/>
<stop offset="1" stop-color="#46008D"/>
</linearGradient>
<linearGradient id="paint30_linear_1612_3056" x1="218.926" y1="121.256" x2="203.347" y2="132.264" gradientUnits="userSpaceOnUse">
<stop stop-color="#1C0035"/>
<stop offset="1" stop-color="#46008D"/>
</linearGradient>
<linearGradient id="paint31_linear_1612_3056" x1="220.391" y1="123.331" x2="204.811" y2="134.339" gradientUnits="userSpaceOnUse">
<stop stop-color="#1C0035"/>
<stop offset="1" stop-color="#46008D"/>
</linearGradient>
<linearGradient id="paint32_linear_1612_3056" x1="219.43" y1="121.968" x2="203.85" y2="132.976" gradientUnits="userSpaceOnUse">
<stop stop-color="#1C0035"/>
<stop offset="1" stop-color="#46008D"/>
</linearGradient>
<linearGradient id="paint33_linear_1612_3056" x1="220.896" y1="124.044" x2="205.316" y2="135.052" gradientUnits="userSpaceOnUse">
<stop stop-color="#1C0035"/>
<stop offset="1" stop-color="#46008D"/>
</linearGradient>
<linearGradient id="paint34_linear_1612_3056" x1="219.933" y1="122.681" x2="204.353" y2="133.69" gradientUnits="userSpaceOnUse">
<stop stop-color="#1C0035"/>
<stop offset="1" stop-color="#46008D"/>
</linearGradient>
<linearGradient id="paint35_linear_1612_3056" x1="95.599" y1="230.382" x2="130.807" y2="246.168" gradientUnits="userSpaceOnUse">
<stop stop-color="#9BC3EA"/>
<stop offset="0.1927" stop-color="#A2C7EB"/>
<stop offset="0.464" stop-color="#B4D2EF"/>
<stop offset="0.7805" stop-color="#D2E5F5"/>
<stop offset="1" stop-color="#EBF4FA"/>
</linearGradient>
<linearGradient id="paint36_linear_1612_3056" x1="90.5471" y1="233.891" x2="121.127" y2="235.659" gradientUnits="userSpaceOnUse">
<stop stop-color="#9BC3EA"/>
<stop offset="0.1927" stop-color="#A2C7EB"/>
<stop offset="0.464" stop-color="#B4D2EF"/>
<stop offset="0.7805" stop-color="#D2E5F5"/>
<stop offset="1" stop-color="#EBF4FA"/>
</linearGradient>
<linearGradient id="paint37_linear_1612_3056" x1="90.1378" y1="240.972" x2="120.717" y2="242.74" gradientUnits="userSpaceOnUse">
<stop stop-color="#9BC3EA"/>
<stop offset="0.1927" stop-color="#A2C7EB"/>
<stop offset="0.464" stop-color="#B4D2EF"/>
<stop offset="0.7805" stop-color="#D2E5F5"/>
<stop offset="1" stop-color="#EBF4FA"/>
</linearGradient>
<clipPath id="clip0_1612_3056">
<rect width="500" height="500" fill="white"/>
</clipPath>
</defs>
</svg>
